<svg width="24" height="30" viewBox="0 0 24 30" fill="none" xmlns="http://www.w3.org/2000/svg">
<g clip-path="url(#clip0_3063_1665)">
<path d="M12 23.8999L16.95 18.9499C17.9289 17.9709 18.5955 16.7236 18.8655 15.3658C19.1356 14.0079 18.9969 12.6005 18.4671 11.3215C17.9373 10.0424 17.04 8.94923 15.8889 8.18009C14.7378 7.41095 13.3844 7.00043 12 7.00043C10.6156 7.00043 9.26221 7.41095 8.11108 8.18009C6.95995 8.94923 6.06275 10.0424 5.53291 11.3215C5.00308 12.6005 4.86441 14.0079 5.13445 15.3658C5.40449 16.7236 6.0711 17.9709 7.05 18.9499L12 23.8999ZM12 26.7279L5.636 20.3639C4.37734 19.1052 3.52018 17.5016 3.17292 15.7558C2.82567 14.0099 3.0039 12.2004 3.68509 10.5558C4.36629 8.91129 5.51984 7.50569 6.99988 6.51677C8.47992 5.52784 10.22 5 12 5C13.78 5 15.5201 5.52784 17.0001 6.51677C18.4802 7.50569 19.6337 8.91129 20.3149 10.5558C20.9961 12.2004 21.1743 14.0099 20.8271 15.7558C20.4798 17.5016 19.6227 19.1052 18.364 20.3639L12 26.7279ZM12 15.9999C12.5304 15.9999 13.0391 15.7892 13.4142 15.4141C13.7893 15.0391 14 14.5304 14 13.9999C14 13.4695 13.7893 12.9608 13.4142 12.5857C13.0391 12.2106 12.5304 11.9999 12 11.9999C11.4696 11.9999 10.9609 12.2106 10.5858 12.5857C10.2107 12.9608 10 13.4695 10 13.9999C10 14.5304 10.2107 15.0391 10.5858 15.4141C10.9609 15.7892 11.4696 15.9999 12 15.9999ZM12 17.9999C10.9391 17.9999 9.92172 17.5785 9.17157 16.8283C8.42143 16.0782 8 15.0608 8 13.9999C8 12.9391 8.42143 11.9216 9.17157 11.1715C9.92172 10.4213 10.9391 9.99992 12 9.99992C13.0609 9.99992 14.0783 10.4213 14.8284 11.1715C15.5786 11.9216 16 12.9391 16 13.9999C16 15.0608 15.5786 16.0782 14.8284 16.8283C14.0783 17.5785 13.0609 17.9999 12 17.9999Z" fill="#E9571D"/>
</g>
<defs>
<clipPath id="clip0_3063_1665">
<rect width="24" height="24" fill="white" transform="translate(0 3)"/>
</clipPath>
</defs>
</svg>
