<svg width="24" height="30" viewBox="0 0 24 30" fill="none" xmlns="http://www.w3.org/2000/svg">
<g clip-path="url(#clip0_3063_1671)">
<path d="M17 6H21C21.2652 6 21.5196 6.10536 21.7071 6.29289C21.8946 6.48043 22 6.73478 22 7V23C22 23.2652 21.8946 23.5196 21.7071 23.7071C21.5196 23.8946 21.2652 24 21 24H3C2.73478 24 2.48043 23.8946 2.29289 23.7071C2.10536 23.5196 2 23.2652 2 23V7C2 6.73478 2.10536 6.48043 2.29289 6.29289C2.48043 6.10536 2.73478 6 3 6H7V4H9V6H15V4H17V6ZM20 14H4V22H20V14ZM15 8H9V10H7V8H4V12H20V8H17V10H15V8ZM6 16H8V18H6V16ZM11 16H13V18H11V16ZM16 16H18V18H16V16Z" fill="#E9571D"/>
</g>
<defs>
<clipPath id="clip0_3063_1671">
<rect width="24" height="24" fill="white" transform="translate(0 3)"/>
</clipPath>
</defs>
</svg>
