<svg width="115" height="33" viewBox="0 0 115 33" fill="none" xmlns="http://www.w3.org/2000/svg">
<g clip-path="url(#clip0_3063_2206)">
<path d="M71.5637 14.0238C84.6748 8.78571 92.8335 5.76984 114.453 0.5C102.707 1.2619 76.7383 3.07143 58.8335 6.56349L71.5637 14.0238Z" fill="#E41D1B"/>
<path d="M30.8014 31.4208H47.9443C51.3411 26.278 54.7062 23.7701 58.6427 20.9764C55.6585 19.8335 52.6744 18.7224 49.6268 17.6431C38.6744 22.4685 32.6109 28.9447 30.8014 31.4208Z" fill="#E41D1B"/>
<path d="M34.1665 12.7222C18.8967 18.1825 10.3887 24.0872 4.67444 31.4206H23.5951C25.4363 28.8492 32.4522 21.4523 45.6586 16.3095C42.0078 15.0714 35.6903 13.1031 34.1665 12.7222Z" fill="#E41D1B"/>
<path d="M42.0399 1.19836H0.16684C42.3573 8.81741 62.7065 18.6269 95.4049 32.5C92.6113 30.4047 47.5319 3.86503 42.0399 1.19836Z" fill="#E41D1B"/>
</g>
<defs>
<clipPath id="clip0_3063_2206">
<rect width="114.286" height="32" fill="white" transform="translate(0.166626 0.5)"/>
</clipPath>
</defs>
</svg>
