<svg width="121" height="41" viewBox="0 0 121 41" fill="none" xmlns="http://www.w3.org/2000/svg">
<g clip-path="url(#clip0_3063_2212)">
<path d="M120.309 10.5C119.952 11.7143 119.667 12.9286 119.309 14.2143C119.238 14.5714 119.095 14.6429 118.738 14.6429C116.595 14.6429 114.452 14.6429 112.238 14.6429C111.309 14.6429 110.524 15 110.095 15.8571C109.809 16.3571 109.809 16.8571 110.238 17.2857C110.667 17.7143 111.095 18.0714 111.595 18.3571C112.524 18.9286 113.452 19.3571 114.381 19.9286C115.238 20.4286 116.024 21 116.738 21.7143C118.024 22.9286 118.381 24.5714 118.167 26.2857C118.024 27.5 117.595 28.6429 117.024 29.7143C115.595 32.2857 113.381 33.6429 110.524 33.7857C107.595 33.9286 104.667 33.8572 101.738 33.8572C101.667 33.8572 101.595 33.8571 101.381 33.7857C101.524 33.2857 101.667 32.7857 101.738 32.3571C102.024 31.3571 102.238 30.4286 102.524 29.4286C102.595 29.0714 102.738 29 103.095 29C105.238 29 107.381 29 109.524 29C110.167 29 110.809 28.9286 111.452 28.7857C112.309 28.5714 112.738 27.9286 112.881 27.0714C113.024 26.3571 112.667 25.8571 112.167 25.5C111.524 25 110.809 24.5714 110.095 24.1429C109.095 23.5 108.024 22.9286 107.095 22.2857C105.881 21.4286 104.881 20.2857 104.667 18.7143C104.595 17.9286 104.595 17.1429 104.738 16.4286C105.667 11.9286 109.524 10 112.738 9.92858C115.167 9.85715 117.667 9.92858 120.095 9.92858C120.167 9.92858 120.238 9.92858 120.381 10C120.381 10.0714 120.309 10.2857 120.309 10.5ZM103.809 14.2143C103.738 14.5 103.595 14.5714 103.309 14.5714C101.952 14.5714 100.524 14.5714 99.1666 14.7143C94.8095 15.3571 91.3809 19.1429 91.0952 23.4286C90.8809 26.6429 92.8809 28.8571 96.0952 28.8571C97.3095 28.8571 98.5238 28.8571 99.8095 28.8571H100.381C100.238 29.5 100.095 30 99.9523 30.5C99.738 31.4286 99.4523 32.2857 99.238 33.2143C99.1666 33.5 99.0238 33.6429 98.738 33.6429C97.0952 33.6429 95.3809 33.7143 93.738 33.5714C89.238 33.3571 86.1666 30.5 85.738 26.2143C85.4523 23.2143 86.3095 20.4286 87.738 17.8571C90.238 13.3571 94.0952 10.7143 99.238 10C101.024 9.78572 102.809 9.85715 104.667 9.78572C104.738 9.78572 104.809 9.78572 104.881 9.85715L104.524 11.2143C104.309 12.2143 104.024 13.2143 103.809 14.2143ZM81.6666 33.2857C81.5952 33.6429 81.4523 33.7857 81.0238 33.7857C79.5952 33.7857 78.238 33.7857 76.8095 33.7857C76.6666 33.7857 76.5238 33.7857 76.3095 33.7857L76.8095 31.9286L82.3095 10.9286C82.5952 9.78572 82.5952 9.78572 83.5952 9.78572C84.8095 9.78572 86.0238 9.78572 87.1666 9.78572C87.3095 9.78572 87.5238 9.78572 87.738 9.78572C87.3809 11.2143 87.0238 12.5 86.6666 13.8572C85.0238 20.3572 83.3809 26.7857 81.6666 33.2857ZM77.5238 14.1429C77.4523 14.5 77.3095 14.5714 76.9523 14.5714C74.8095 14.5714 72.6666 14.5714 70.5238 14.5714C69.5952 14.5714 68.8809 14.9286 68.4523 15.7143C68.0952 16.2857 68.1666 16.7857 68.5952 17.2143C69.0238 17.6429 69.5238 18 70.0952 18.3571C71.0952 19 72.238 19.5714 73.238 20.1429C73.6666 20.3571 74.0238 20.6429 74.3809 21C76.0952 22.3571 76.8809 24.2143 76.4523 26.4286C76.238 27.8571 75.6666 29.2143 74.8809 30.4286C73.5952 32.2857 71.738 33.3572 69.4523 33.6429C68.4523 33.7857 67.4523 33.7857 66.4523 33.7857C64.3809 33.7857 62.3095 33.7857 60.3095 33.7857C60.0952 33.7857 59.9523 33.7857 59.6666 33.7857C59.738 33.4286 59.8095 33.0714 59.8809 32.7857C60.1666 31.7143 60.4523 30.6429 60.738 29.5714C60.8095 29.1429 61.0238 29 61.5238 29C63.6666 29 65.8095 29 67.8809 29C68.3809 29 68.9523 28.9286 69.4523 28.8571C70.0952 28.7143 70.5952 28.4286 70.8809 27.7857C71.3095 26.8571 71.238 26.1429 70.4523 25.5C69.738 24.9286 68.9523 24.5 68.238 24C67.238 23.3572 66.1666 22.7857 65.1666 22.0714C63.8095 21.0714 62.9523 19.7857 62.8095 18.0714C62.738 16.6429 63.0952 15.2857 63.8095 14.0714C65.238 11.5 67.5238 10.2143 70.3809 9.85715C70.8095 9.78572 71.3095 9.78572 71.738 9.78572C73.8809 9.78572 76.0238 9.78572 78.0952 9.78572H78.5952C78.3095 10.9286 78.0238 12.0714 77.738 13.1429C77.738 13.5 77.5952 13.7857 77.5238 14.1429ZM57.9523 30C57.6666 31.1429 57.3095 32.2857 57.0238 33.4286C56.9523 33.7143 56.8095 33.7857 56.5952 33.7857C53.238 33.7857 49.8095 33.7857 46.4523 33.7143C45.3095 33.7143 44.1666 33.3572 43.1666 32.7857C40.9523 31.5714 39.8095 29.0714 40.3809 26.3571C40.8095 24.1429 42.0238 22.5 43.8095 21.1429C46.0952 19.3571 48.738 18.3571 51.6666 18.4286C52.8809 18.4286 54.0952 18.4286 55.238 18.4286C55.5952 18.4286 55.8095 18.2857 55.8095 17.9286C55.8809 17.3571 56.0952 16.7857 56.1666 16.2143C56.238 15.3571 55.738 14.7857 54.8809 14.6429C54.5238 14.5714 54.1666 14.5714 53.8095 14.5714C51.738 14.5714 49.5952 14.5714 47.5238 14.5714H46.9523C47.3809 13 47.8095 11.5 48.1666 10C48.1666 9.85715 48.4523 9.78572 48.5952 9.78572C50.3809 9.78572 52.238 9.78572 54.0952 9.78572C54.738 9.78572 55.4523 9.71429 56.1666 9.78572C58.3809 10 60.1666 10.9286 61.1666 13C61.8095 14.3571 61.738 15.7857 61.3809 17.2143C60.238 21.5 59.0952 25.7143 57.9523 30ZM54.238 23.2143C52.8095 23.2143 51.3809 23.1429 49.9523 23.2143C48.238 23.2857 46.5952 24.5714 46.1666 26.1429C45.8095 27.5714 46.5952 28.7857 48.0238 28.8571C49.5238 28.9286 51.0952 28.8571 52.5952 28.9286C52.8809 28.9286 52.9523 28.7857 53.0238 28.5714C53.4523 26.9286 53.8809 25.2143 54.3809 23.5714C54.3809 23.5 54.3809 23.3571 54.4523 23.2143C54.3095 23.2143 54.238 23.2143 54.238 23.2143ZM30.5952 26.2143C27.3809 30.1429 23.738 33.6429 19.4523 36.5C16.8809 38.1429 14.238 39.5714 11.238 40.2143C9.09519 40.6429 6.95233 40.7143 4.8809 40C2.16661 39 0.523757 36.7143 0.452328 33.8572C0.3809 31 1.30947 28.5 2.73804 26.0714C4.52376 23.1429 6.80947 20.7143 9.45233 18.6429C12.5952 16.1429 15.9523 14.1429 19.8095 12.9286C21.0238 12.5714 22.3095 12.2857 23.6666 12.2143C24.5238 12.1429 25.4523 12.2857 26.3095 12.5714C28.238 13.1429 29.1666 15 28.6666 16.9286C28.6666 17 28.5952 17.1429 28.5952 17.2857L28.6666 17.3571C29.0238 16.9286 29.3809 16.5 29.6666 16C31.0952 14 32.3809 11.9286 33.0238 9.50001C33.238 8.64286 33.4523 7.71429 33.3095 6.85715C33.0238 5.14286 31.9523 4.14286 30.3809 3.64286C28.738 2.92858 27.0952 3.07143 25.4523 3.35715C22.3095 3.92858 19.4523 5.14286 16.6666 6.71429C15.5238 7.35715 14.3809 8.07143 13.238 8.78572L12.9523 8.35715C13.3809 8.00001 13.738 7.71429 14.1666 7.35715C18.0238 4.42858 22.1666 2.21429 26.8809 1.07143C29.238 0.500006 31.5952 0.214292 33.9523 0.78572C37.0952 1.50001 39.1666 4.00001 39.3809 7.21429C39.5238 9.78572 38.8809 12.1429 37.8809 14.4286C36.0952 18.7857 33.5238 22.6429 30.5952 26.2143ZM24.5238 14.6429C23.5238 14.5 22.5952 14.7143 21.5952 15C17.6666 16.2143 14.5238 18.6429 11.9523 21.7143C11.0952 22.7143 10.3809 23.8571 10.0238 25.1429C9.45233 27.2857 10.738 28.9286 12.8809 28.9286C14.0238 28.9286 15.0238 28.6429 16.0238 28.1429C19.6666 26.4286 22.6666 23.8571 25.3095 20.8571C26.0238 20.0714 26.4523 19.0714 26.738 18C27.3095 16.1429 26.4523 14.8571 24.5238 14.6429Z" fill="white"/>
</g>
<defs>
<clipPath id="clip0_3063_2212">
<rect width="120" height="40" fill="white" transform="translate(0.452332 0.5)"/>
</clipPath>
</defs>
</svg>
