<svg width="84" height="56" viewBox="0 0 84 56" fill="none" xmlns="http://www.w3.org/2000/svg">
<g clip-path="url(#clip0_3063_2182)">
<path d="M41.6552 48.6557C41.6552 46.4024 43.4949 44.6498 45.6692 44.6498C47.8435 44.6498 49.6833 46.4858 49.6833 48.6557C49.6833 50.8256 47.8435 52.6617 45.6692 52.6617C43.4949 52.6617 41.6552 50.9091 41.6552 48.6557ZM58.1296 48.6557C58.1296 46.4024 59.9694 44.6498 62.1437 44.6498C64.4016 44.6498 66.1578 46.4858 66.1578 48.6557C66.1578 50.8256 64.318 52.6617 62.1437 52.6617C59.9694 52.7451 58.1296 50.9091 58.1296 48.6557ZM19.9959 48.6557C19.9959 46.4024 21.8356 44.6498 24.0099 44.6498C26.2679 44.6498 28.024 46.4858 28.024 48.6557C28.024 50.8256 26.1842 52.6617 24.0099 52.6617C21.752 52.7451 19.9959 50.9091 19.9959 48.6557ZM3.5214 48.6557C3.5214 46.4024 5.36118 44.6498 7.53548 44.6498C9.7934 44.6498 11.5496 46.4858 11.5496 48.6557C11.5496 50.8256 9.70977 52.6617 7.53548 52.6617C5.36118 52.7451 3.5214 50.9091 3.5214 48.6557ZM36.8048 41.5618H33.2925V55.6662H36.8048V41.5618ZM11.6332 55.6662H15.1455V41.5618H11.6332V42.7302C10.4624 41.8957 9.04076 41.3949 7.45185 41.3949C3.43777 41.3949 0.176331 44.6498 0.176331 48.6557C0.176331 52.7451 3.43777 55.9165 7.45185 55.9165C9.04076 55.9165 10.4624 55.4158 11.6332 54.5812V55.6662ZM66.2414 55.6662H69.7537V41.5618H66.2414V42.7302C65.0706 41.8957 63.649 41.3949 62.0601 41.3949C58.046 41.3949 54.7846 44.6498 54.7846 48.6557C54.7846 52.7451 58.046 55.9165 62.0601 55.9165C63.649 55.9165 65.0706 55.4158 66.2414 54.5812V55.6662ZM71.0081 51.076C71.0918 53.9136 73.5169 55.9165 77.6146 55.9165C80.9597 55.9165 83.7194 54.4978 83.7194 51.3264C83.7194 49.073 82.465 47.8212 79.6217 47.2369L77.3638 46.8197C75.9421 46.5693 74.9386 46.2355 74.9386 45.4009C74.9386 44.4829 75.9421 44.0656 77.1129 44.0656C78.869 44.0656 79.6217 44.9836 79.6217 45.9851H83.134C82.9667 43.231 80.7088 41.3949 77.1129 41.3949C73.4333 41.3949 71.259 43.3979 71.259 46.0685C71.259 49.2399 73.8514 49.8241 76.1094 50.2414L77.9491 50.5753C79.2872 50.8256 79.8726 51.2429 79.8726 51.994C79.8726 52.6617 79.2035 53.4128 77.6146 53.4128C75.2731 53.4128 74.6041 52.2444 74.5204 51.1595H71.0081V51.076ZM28.024 36.7213V42.6468C26.8532 41.8122 25.4316 41.3115 23.8427 41.3115C19.8286 41.3115 16.5672 44.5663 16.5672 48.5723C16.5672 52.6617 19.8286 55.8331 23.8427 55.8331C25.4316 55.8331 26.8532 55.3323 28.024 54.4978V55.4992H31.5363V36.7213H28.024ZM49.767 36.7213V42.6468C48.5962 41.8122 47.1745 41.3115 45.5856 41.3115C41.5715 41.3115 38.3101 44.5663 38.3101 48.5723C38.3101 52.6617 41.5715 55.8331 45.5856 55.8331C47.1745 55.8331 48.5962 55.3323 49.767 54.4978V55.4992H53.2793V36.7213H49.767ZM9.20801 32.5484L11.6332 36.7213H28.024L21.5011 25.4545L9.20801 32.5484ZM36.8048 40.2265V36.7213H49.767L35.9686 12.9359L23.6754 19.9463L33.2925 36.7213V40.2265H36.8048ZM54.9518 36.7213H71.4263L50.1851 0L37.892 7.09389L54.9518 36.7213Z" fill="white"/>
</g>
<defs>
<clipPath id="clip0_3063_2182">
<rect width="83.6267" height="56" fill="white" transform="translate(0.0923462)"/>
</clipPath>
</defs>
</svg>
