<svg width="71" height="41" viewBox="0 0 71 41" fill="none" xmlns="http://www.w3.org/2000/svg">
<g clip-path="url(#clip0_3063_2201)">
<path fill-rule="evenodd" clip-rule="evenodd" d="M28.0432 39.975H23.4471V0.980435H30.542L35.3166 33.1565C34.6027 25.4913 33.6656 13.1467 33.6656 6.68478V0.980435H38.2617V39.975H31.7468L27.3738 8.73478C27.7755 15.7315 28.0432 24.0652 28.0432 28.7891V39.975ZM40.8944 39.975V0.980435H47.4093C51.7376 0.980435 54.415 3.34239 54.415 8.77935V14.5283C54.415 18.0935 53.2994 19.8761 51.7822 20.812C53.2994 21.7924 54.415 23.5304 54.415 26.5609V32.2207C54.415 37.5685 51.5591 39.975 47.4093 39.975H40.8944ZM46.1152 5.92717V18.8065H46.7845C48.6587 18.8065 49.1495 18.0935 49.1495 15.9543V8.55652C49.1495 6.77391 48.6141 5.92717 47.0077 5.92717H46.1152ZM46.1152 23.0848V35.1174H47.0077C48.6587 35.1174 49.1495 34.1815 49.1495 32.3543V25.6696C49.1495 23.7533 48.5248 23.0402 46.7845 23.0402H46.1152V23.0848ZM64.2319 32.6663H60.9298L60.4836 39.975H55.1735L59.011 0.980435H66.463L70.1666 39.975H64.6335L64.2319 32.6663ZM61.1529 28.2543H63.9641L63.5179 21.0793C63.3394 18.2272 62.9378 9.225 62.5808 4.36739H62.3577L61.5991 21.0793L61.1529 28.2543ZM14.3441 0H4.70573C2.38537 0 0.466614 1.9163 0.466614 4.2337V36.7217C0.466614 39.0837 2.38537 41 4.70573 41H14.2995C16.6645 41 18.5386 39.0837 18.5386 36.7663V4.2337C18.5833 1.9163 16.6645 0 14.3441 0Z" fill="#FFFFFE"/>
<path fill-rule="evenodd" clip-rule="evenodd" d="M11.9343 7.53107V7.66476C12.2467 7.84302 12.3805 7.97672 12.6929 8.15498C13.4961 8.6452 14.4332 9.5365 14.2993 12.5224C14.5224 13.1908 14.6117 14.4832 14.8348 14.8843C15.2364 15.6865 15.5041 16.2213 15.638 16.9789C15.638 16.9789 15.7718 18.1822 15.9057 18.2713C16.7089 18.4495 16.4858 18.5387 16.6197 18.6724C16.7535 18.8506 17.1998 18.8061 17.1998 19.2517C17.3782 19.4745 17.4675 19.6974 17.5567 19.9202V4.23324C17.5567 2.45063 16.0842 0.97998 14.2993 0.97998H11.1757C11.6666 1.15824 11.9789 1.38107 12.1128 1.69302C12.5144 1.73759 13.0053 2.62889 12.2467 3.96585C12.559 4.18868 12.3359 4.50063 12.0682 4.90172C11.9789 5.03541 11.9343 5.25824 11.7112 5.21368C11.4435 5.79302 11.0865 6.37237 10.8188 6.41694C10.7295 6.50607 10.6849 6.77346 10.8188 6.90715C11.265 7.08541 11.7112 7.30824 11.9343 7.53107ZM17.5567 22.0593C17.1105 23.1735 16.0396 23.8865 14.8794 23.8865C13.273 23.8865 11.9789 22.5941 11.9789 20.9898C11.9789 19.6082 12.916 18.4941 14.2101 18.1822C13.8531 17.38 13.1391 15.9985 12.9606 15.5528C12.7821 15.1072 12.2913 12.3441 12.2021 11.8093C12.1574 11.6756 10.9526 12.5224 10.9526 12.5669C10.8634 12.6561 10.0156 14.8398 10.0156 14.9735C10.0156 15.0626 10.0156 15.33 10.0156 15.33C10.0156 15.33 10.4172 15.3745 10.6849 16.0876C10.908 16.8006 11.6666 19.4745 11.6666 19.4745C11.6666 19.4745 11.4881 19.6974 11.4435 19.6528C12.3805 22.7278 12.0236 24.0202 12.4698 24.9115C13.0053 26.1593 13.1391 26.0256 13.5853 27.0506C13.8977 27.8082 14.2547 30.8832 14.3885 31.0169C14.8794 31.6408 15.1471 32.1311 15.1471 32.4876C15.1471 32.8441 14.7455 33.9137 14.8794 34.493C14.9686 34.8495 15.0133 35.6517 15.1917 35.83C15.1917 35.83 15.3256 36.1419 15.281 36.2756C15.281 36.3202 15.2364 36.4093 15.2364 36.4539C15.5041 37.4343 16.3965 39.0387 14.9686 39.93H15.0133C16.575 39.6626 17.7352 38.3256 17.7352 36.7213V22.0593H17.5567Z" fill="#B52532"/>
<path fill-rule="evenodd" clip-rule="evenodd" d="M13.8968 36.1424C13.3613 35.6968 13.7183 35.4739 13.7183 35.2957C13.3613 33.8696 12.2458 33.0229 12.8259 32.5326C12.692 32.0424 12.3796 31.4631 12.3796 31.4631C10.6394 30.4381 9.12221 28.8337 8.85447 28.5663C8.54212 28.2098 8.00665 27.8979 7.9174 27.6305C7.5158 27.2294 5.41856 24.2881 4.92771 23.2185L4.07989 23.0848C3.67829 21.525 2.42886 20.2326 2.38424 18.6283C2.38424 18.0489 2.65198 16.7566 2.74122 16.5337C2.83046 16.2663 3.32131 15.8652 3.32131 15.8652V15.4642C1.4918 15.5087 2.02726 15.3305 1.71491 14.6174C1.4918 14.1272 1.67029 13.9935 1.71491 13.6816C1.98264 12.6566 2.78584 11.0968 3.0982 10.3837C3.18744 10.0272 3.54442 9.18047 3.54442 9.18047C4.92771 6.41742 5.41856 6.59569 7.06958 6.46199L7.15883 6.32829C8.80985 6.23916 8.54212 6.15003 8.76523 4.54569C8.54212 4.63482 8.45287 4.05547 8.45287 4.05547C8.31901 3.16416 8.7206 3.34242 8.89909 3.29786C8.94372 1.82721 9.07758 1.38156 10.1485 0.980469H4.7046C2.91971 0.980469 1.44717 2.45112 1.44717 4.23373V36.7218C1.44717 38.5044 2.91971 39.975 4.7046 39.975H14.2984C13.2275 39.3957 13.8968 38.2816 13.8968 36.1424Z" fill="#253B73"/>
</g>
<defs>
<clipPath id="clip0_3063_2201">
<rect width="69.7" height="41" fill="white" transform="translate(0.466614)"/>
</clipPath>
</defs>
</svg>
