<svg width="114" height="29" viewBox="0 0 114 29" fill="none" xmlns="http://www.w3.org/2000/svg">
<g clip-path="url(#clip0_3063_2217)">
<path d="M37.127 0.561279C32.9061 0.561279 30.099 2.76858 29.7097 6.09997C29.6277 6.87661 29.5253 7.63281 29.4228 8.40945H84.356C84.356 8.40945 84.4584 7.59194 84.5404 6.95836C84.9502 3.60653 83.5364 0.581717 78.3525 0.581717C78.3525 0.581717 39.3399 0.581717 37.127 0.561279ZM3.58519 0.581717L2.62217 8.40945H27.5378L28.5008 0.581717H3.58519ZM87.2246 0.581717L86.2615 8.40945H113.267C113.267 8.40945 113.308 8.12332 113.411 7.20362C114.066 2.05325 110.747 0.581717 107.53 0.581717H87.2246ZM85.8927 11.3934L83.7823 28.5H93.1051L95.2156 11.4138L85.8927 11.3934ZM103.596 11.3934L101.485 28.5H110.808L112.919 11.3934H103.596ZM2.25335 11.3934L0.163391 28.4795H25.079L26.001 21.0605H10.4083L10.7771 17.8722H26.3699L27.169 11.3934H2.25335ZM29.054 11.3934C28.3778 15.8489 30.6112 17.8722 33.7872 17.8722C35.5083 17.8722 46.3884 17.8722 46.3884 17.8722L45.9991 21.081H27.8656L26.9436 28.5C26.9436 28.5 46.6752 28.5 47.4743 28.5C48.13 28.4591 52.7607 28.3365 54.3179 24.5554C54.8302 23.3292 55.281 18.9554 55.4039 18.0357C56.121 12.681 52.4124 11.4138 49.5028 11.4138C47.9046 11.3934 32.2299 11.3934 29.054 11.3934ZM58.0676 11.3934L55.9571 28.4795H65.28L66.5913 17.8722H78.291C81.6104 17.8722 83.393 16.0941 83.7208 13.7029C83.8233 12.9262 83.9257 12.17 84.0077 11.3934H58.0676Z" fill="white"/>
</g>
<defs>
<clipPath id="clip0_3063_2217">
<rect width="113.514" height="28" fill="white" transform="translate(0.0198975 0.5)"/>
</clipPath>
</defs>
</svg>
