<svg width="119" height="29" viewBox="0 0 119 29" fill="none" xmlns="http://www.w3.org/2000/svg">
<g clip-path="url(#clip0_3063_2215)">
<path d="M38.8849 0.0639648C34.5133 0.0639648 31.6059 2.3501 31.2027 5.80046C31.1178 6.60484 31.0117 7.38805 30.9056 8.19243H87.8007C87.8007 8.19243 87.9068 7.34572 87.9917 6.68951C88.4161 3.21798 86.9518 0.0851327 81.5827 0.0851327C81.5827 0.0851327 41.1768 0.0851327 38.8849 0.0639648ZM4.14518 0.0851327L3.14777 8.19243H28.9532L29.9506 0.0851327H4.14518ZM90.7717 0.0851327L89.7743 8.19243H117.744C117.744 8.19243 117.787 7.89608 117.893 6.94353C118.572 1.60922 115.134 0.0851327 111.802 0.0851327H90.7717ZM89.3923 11.2829L87.2065 29.0005H96.8623L99.0481 11.3041L89.3923 11.2829ZM107.728 11.2829L105.542 29.0005H115.198L117.384 11.2829H107.728ZM2.76578 11.2829L0.601181 28.9793H26.4066L27.3616 21.2954H11.212L11.594 17.9932H27.7436L28.5712 11.2829H2.76578ZM30.5236 11.2829C29.8233 15.8975 32.1365 17.9932 35.4258 17.9932C37.2084 17.9932 48.4771 17.9932 48.4771 17.9932L48.0739 21.3165H29.2928L28.3378 29.0005C28.3378 29.0005 48.7742 29.0005 49.6018 29.0005C50.2809 28.9581 55.077 28.8311 56.6898 24.9151C57.2204 23.645 57.6872 19.1151 57.8146 18.1625C58.5573 12.6165 54.7162 11.3041 51.7028 11.3041C50.0475 11.2829 33.813 11.2829 30.5236 11.2829ZM60.5734 11.2829L58.3875 28.9793H68.0434L69.4016 17.9932H81.5191C84.957 17.9932 86.8032 16.1516 87.1428 13.6749C87.2489 12.8705 87.355 12.0873 87.4399 11.2829H60.5734Z" fill="#DD0000"/>
</g>
<defs>
<clipPath id="clip0_3063_2215">
<rect width="117.568" height="29" fill="white" transform="translate(0.452332)"/>
</clipPath>
</defs>
</svg>
