<svg width="199" height="40" viewBox="0 0 199 40" fill="none" xmlns="http://www.w3.org/2000/svg">
<g clip-path="url(#clip0_3063_2166)">
<path d="M41.1284 31.4369C42.0617 31.2169 42.914 30.7155 43.8689 30.7931C45.4473 31.0365 46.1951 30.7281 47.4005 29.9472C48.2852 30.454 49.3356 31.5108 51.4942 31.4874C52.1879 31.5325 52.9933 31.1898 52.8312 30.4558C52.7879 29.8192 54.0348 30.0951 54.1141 29.2836C54.2528 28.7984 54.1501 28.8183 53.3933 28.362C52.1321 27.6713 52.1537 26.3511 51.2041 25.4963C51.0996 25.3718 50.7915 25.1482 50.7825 24.9913C47.6167 16.4158 51.3483 19.3429 44.159 11.2507C42.114 9.73221 39.1248 6.2407 36.4689 6.4481C34.0581 6.52565 33.4473 7.89087 31.6707 8.46978C29.4292 9.26511 28.0851 9.49235 26.2814 11.175C25.1139 12.1561 23.5625 10.9441 21.903 12.6917C18.3877 16.2391 17.9931 12.9045 12.2219 17.4132C9.2381 20.0065 5.11555 18.1345 8.43809 14.7999C10.1228 13.597 12.2561 12.1164 11.4687 9.81877C11.2021 8.09827 8.73179 7.62216 7.17502 7.37508C6.27412 7.19473 4.73537 6.00986 4.22726 5.68884C2.70292 7.40033 3.46509 11.3553 6.74979 11.7575C6.88566 11.7655 6.99406 11.874 7.00205 12.01C7.01466 12.1286 6.98533 12.248 6.91916 12.3472C4.56419 14.203 4.05789 14.9604 3.975 17.0687C3.79482 19.9542 6.17141 22.14 9.20026 22.0408C9.68219 22.0489 10.164 22.0205 10.6417 21.9561C10.7246 21.9561 10.8093 21.9561 10.8093 22.0408C11.0471 23.3447 11.148 24.939 11.5678 25.4133C11.6507 25.581 11.6507 25.7506 11.4832 25.8335C10.5192 26.7822 8.46512 25.7127 7.9462 27.435C7.62367 28.1384 7.70115 29.013 6.93718 29.3737C6.39664 29.2547 6.25249 28.454 5.50474 28.4467C4.75699 28.4395 3.52275 28.9986 2.9822 30.2177C2.40562 30.6127 1.82184 30.344 1.55156 31.2277C1.42904 31.2187 1.36237 31.6948 1.38399 31.9022C1.36061 32.2893 1.24509 32.6653 1.04706 32.9987C0.492097 33.7002 1.0939 34.5587 1.97319 34.6849C2.62364 34.7354 3.03446 34.9915 3.23446 34.7679C3.31734 34.7679 3.31734 34.6849 3.40203 34.6849C3.58221 34.5136 3.72095 34.638 3.90653 34.6849C4.28131 34.7048 4.82546 34.9969 5.25429 34.9374C5.34686 34.926 5.43961 34.9572 5.50654 35.0222C6.76781 35.0114 7.16782 34.5082 7.61106 33.8409C7.58764 33.5415 7.82728 33.3359 7.948 33.0835C8.06332 32.9626 8.1462 32.9031 8.28494 32.9139C8.50296 32.977 9.00566 33.051 9.12819 33.0835C11.0561 33.253 11.5606 31.28 13.0922 31.06C13.4706 31.06 14.1733 31.1339 15.7012 31.3125C16.703 31.3918 17.6832 30.6632 18.649 30.133C19.0814 29.9166 19.458 29.7957 19.8274 29.289C20.2814 28.9283 20.8274 26.7028 21.4274 26.6775C22.658 26.6523 23.822 26.2483 25.0472 26.2555C26.5517 26.1888 28.0815 26.6072 29.4256 26.0878C29.4761 26.1059 29.7716 26.0427 29.8472 26.1708C30.0382 26.4539 30.577 26.5802 30.4364 26.93C30.4364 27.0148 30.2671 27.0978 30.1842 27.1825C29.9067 27.1825 29.5031 27.2042 29.258 27.5198C29.1355 27.6316 28.7932 27.664 28.6671 27.5198C27.8616 27.5919 25.5823 27.2547 25.2995 28.4467C25.5139 29.3701 26.2724 31.6822 27.822 31.482C27.9067 31.482 28.0743 31.5649 28.0743 31.6497C28.6634 32.8292 29.6743 33.5884 30.5968 33.5884C31.5193 33.5884 33.8148 32.7642 35.5644 31.9022H36.3103C37.3788 31.803 37.8058 31.5162 38.4149 30.3007C39.2239 29.4928 38.5698 31.9545 41.1356 31.4405L41.1284 31.4369ZM39.5068 26.0031C39.2545 26.2555 39.0023 26.3403 38.6653 26.8453C38.0761 26.5928 37.9914 25.8335 37.9086 25.4963C38.4131 25.4133 39.5068 25.159 40.0978 25.0761C39.759 25.4133 39.5896 25.581 39.505 26.0031H39.5068Z" fill="white"/>
<path d="M52.6661 28.7297C51.5722 28.1406 51.1505 26.8775 50.4765 25.9514C48.7141 24.128 48.4149 21.0092 47.9536 18.4561C47.4887 15.9768 45.3712 14.1426 43.9025 12.2255C42.5996 11.1625 39.199 7.94093 37.5951 7.42563C35.4777 6.54456 33.6305 8.2094 31.8681 9.0256C30.4372 9.61478 28.9216 9.78234 27.6584 10.8778C25.6761 13.4219 24.4849 11.3859 22.1836 13.4003C18.7596 16.9894 17.4621 13.8309 12.7532 18.0326C11.4918 18.7894 10.3114 19.5479 8.78862 19.4632C6.3684 19.3497 5.54484 16.0975 7.44065 14.6633C8.76158 13.1859 12.0054 11.667 10.3925 9.27785C8.71653 7.78418 6.74504 8.4202 4.75192 6.75537C3.83285 8.19679 5.00782 10.1517 6.51978 10.6292C7.1397 11.0148 8.58138 10.4003 8.87692 11.2976C8.23898 12.5751 6.49635 13.267 5.6782 14.4994C3.64002 16.8525 5.65297 20.7101 8.53993 20.8902C9.60677 21.2362 10.9674 20.3641 11.6558 20.7227C11.7405 21.5641 11.6558 22.3226 11.8252 23.0812C11.9026 23.91 12.8469 24.8001 12.3297 25.6037C11.4919 26.325 10.4059 26.6915 9.30221 26.6253C8.72734 27.2865 8.63003 28.0379 8.29124 28.8144C7.87135 29.5712 7.02977 29.9081 6.43868 30.245C6.04943 30.8378 5.66198 31.4936 4.83842 31.5927C4.33383 32.1819 4.24913 32.9405 4.08154 33.699C6.18819 34.2558 6.63871 33.9729 7.78665 32.1819C8.20834 31.7621 8.79763 32.099 9.21751 32.1819C10.4141 32.0396 11.3061 31.2396 12.1657 30.4991C15.2293 29.6973 15.2005 31.7045 18.7326 29.4036C19.3237 29.1513 19.576 28.4775 19.8283 27.9712C20.1238 27.4072 20.9402 26.3208 19.913 26.0361C17.2693 31.3873 12.6667 27.0325 9.13282 31.081C8.59219 31.2306 9.01208 30.3892 9.13282 30.2378C11.6684 26.5442 17.4351 29.7964 19.4048 25.0127C19.7508 24.2776 19.5543 21.3479 20.4157 21.3911C20.5004 21.3911 20.7527 21.4758 20.7527 21.6434C19.9346 25.2145 20.4752 26.3226 24.2885 25.6974C25.5932 25.319 29.3343 26.6505 29.2568 24.8559C29.2568 24.519 28.9198 24.3514 29.2568 24.0992C29.3397 24.0145 29.5938 24.0992 29.6767 24.1821C29.9146 25.6235 31.1797 26.6811 32.3799 27.2991C34.8001 28.9459 33.8216 31.0955 31.0319 31.0036C30.1056 30.4991 29.8533 29.5712 29.1794 28.8144C28.3918 28.1243 27.316 28.4541 26.4005 28.6451C25.9464 29.3315 27.0258 30.1495 27.2421 30.836C27.6638 31.0882 28.2531 30.6666 28.5901 31.1711C28.9271 31.6756 29.0947 32.1819 29.601 32.5189C31.0607 33.9188 34.1063 31.4594 35.6633 31.3405C37.0239 31.4882 37.6456 30.2486 38.1051 29.2342C38.8728 27.8325 36.8311 26.4469 36.6743 25.1929C36.2093 25.0649 35.593 24.701 35.2416 25.1929C35.4993 25.8199 36.9446 28.1135 36.8419 28.8144C36.6526 29.3207 36.2238 30.4955 35.5804 30.4144C35.7498 29.8252 36.0021 29.1531 36.0021 28.4775C35.6957 27.7568 34.3424 25.6757 34.2342 24.9406C34.5027 24.2289 35.885 24.6415 36.422 23.9298C37.0131 23.0037 37.1807 22.0776 37.3501 20.8992C37.3862 20.7776 37.481 20.6822 37.6024 20.6452C38.4223 21.1731 37.5879 23.7082 37.096 24.2668C37.0491 25.1388 38.7683 24.555 39.1179 24.2668C39.7685 24.4019 41.0876 23.7532 41.3904 24.1821C40.996 24.6792 40.7094 25.2529 40.5488 25.8667C40.0442 26.4559 39.2026 26.8775 39.2026 27.7189C39.2945 28.2487 40.0064 27.3946 40.0442 28.0559C39.3107 28.9874 39.4027 29.2126 39.6225 30.245C40.392 31.3261 41.8625 30.436 42.823 30.1621C44.4449 29.5261 46.2704 30.5333 47.5391 28.8144C47.8824 28.8438 48.193 29.03 48.3807 29.3189C49.3188 30.3044 50.6426 30.8281 52.0011 30.7513C52.5526 30.3675 51.347 30.0666 51.1595 29.9081C50.5702 29.5712 49.8116 29.0667 49.644 28.3928C49.4223 27.4523 48.7429 26.591 48.296 25.6992C50.2621 25.728 50.4693 29.8342 53.3419 29.236C53.4824 29.1387 53.468 29.0342 53.4266 28.8991L52.6661 28.7297ZM38.5196 16.0147C38.4349 16.0993 38.3502 16.0993 38.1826 16.0993C37.9574 15.2489 37.8781 14.3606 37.424 13.6561C37.1879 13.4255 36.8833 13.1246 37.087 12.73C37.2134 12.5836 37.4262 12.548 37.5933 12.6453C38.3646 13.2219 38.4944 14.0255 38.5196 15.0039C38.6872 15.1714 38.6025 15.6777 38.5196 16.0147ZM45.4235 27.8883C45.0386 27.9907 44.643 28.047 44.2449 28.0559H44.162C43.6628 27.5964 44.7026 26.6793 45.2559 26.7081C45.3099 26.7081 45.4523 26.7081 45.5082 26.7081C45.8163 26.8361 45.737 27.6487 45.4235 27.8883ZM47.613 23.0037C47.5193 23.1677 47.3751 23.5965 47.1931 23.5929C47.0111 23.5893 46.9318 23.6199 46.9408 23.4253C46.9246 22.8596 46.8327 22.1641 46.3497 21.8254C45.2505 20.1155 44.9729 22.2578 44.5819 21.9929C44.3476 21.5173 44.717 20.9785 44.9189 20.5623C45.0126 20.4488 45.0504 20.3173 45.1712 20.2254C45.3514 19.1894 46.2975 19.7804 46.5191 20.393C47.0994 21.1137 47.7806 21.9263 47.6977 22.7515C47.613 22.6668 47.613 22.8361 47.613 23.0037ZM4.91951 30.7513C5.5088 30.4144 5.84579 29.8252 6.09808 29.3189C5.91787 29.036 5.69802 28.6631 5.2565 28.8144C4.85606 29.1238 4.43455 29.405 3.99504 29.6558C3.78419 30.2288 4.3104 30.9495 4.92131 30.7513M3.06876 30.7513C2.06859 31.1603 2.59841 32.3927 1.97488 33.0251C1.97488 33.108 1.80549 33.2774 1.97488 33.3621C2.39477 33.445 2.73177 33.6143 3.23635 33.699C3.46162 32.9459 3.67967 32.108 3.82564 31.4252C3.65624 31.1711 3.40395 30.836 3.06696 30.7513M30.3507 28.8991C30.6877 29.3189 30.6877 29.9081 31.1094 30.245C31.6245 30.317 32.1457 30.1641 32.5403 29.8252C32.7926 29.6558 32.4556 29.4036 32.3727 29.1513C32.1186 28.8144 32.288 28.1406 31.6987 28.1406C31.0607 28.2883 30.3615 28.1045 29.7614 28.3081C29.7614 28.5622 30.266 28.5622 30.3507 28.8991Z" fill="#DB0A40"/>
<path d="M71.5887 23.1681C71.5472 21.776 70.9844 20.265 70.0428 19.2726L69.9996 19.2222C69.5179 21.1222 68.8271 22.7989 66.8428 25.8192C66.0798 26.9754 64.7251 27.0258 63.8864 28.0866C63.6879 27.9785 63.7457 27.8309 63.4895 28.1046C64.5466 26.97 63.338 27.5535 63.8322 27.0078C65.6758 24.9727 67.3642 23.1393 68.0785 20.3928C67.7772 20.7693 67.595 20.8863 67.292 21.2681C67.6347 20.0993 67.9017 19.107 68.156 17.9075L67.8313 17.7778C66.7003 21.5941 64.8334 24.9331 61.4169 27.2239C56.9795 30.4441 60.726 29.3671 61.4728 28.7007C55.881 34.4008 43.5031 38.0658 36.3887 32.2667C37.4277 33.277 38.7031 34.4062 39.9152 35.1482C39.1775 35.0222 38.6525 34.4513 37.9563 34.2333C37.9671 34.2567 39.6483 36.4413 44.6665 37.014C44.9894 37.0501 45.2979 37.0825 45.5955 37.1095C52.4374 37.6498 52.8541 36.4269 57.6289 35.4184C57.8435 35.5102 56.0902 36.4143 53.6785 37.0951C49.8706 38.4854 45.4494 37.4553 42.2223 37.1203H42.2368C42.3107 37.1563 42.8122 37.3868 45.379 38.3035C45.1987 38.3684 44.3599 38.4836 40.8604 36.9852C49.4467 41.9289 58.6877 38.1865 66.2746 32.5692C66.2746 32.5944 66.2638 32.6305 66.2638 32.6611C66.3306 32.6719 66.4153 32.6827 66.4839 32.6881C66.4424 32.8088 66.4424 32.8088 65.8543 33.5093C67.1351 32.4774 67.7917 30.8763 69.1481 29.9074C68.4537 31.2995 67.5662 32.2973 65.9139 33.911C66.0397 33.815 66.1601 33.7122 66.2746 33.603C63.7763 35.9335 60.4807 38.2459 55.3669 39.4598C55.737 39.4169 56.1031 39.3446 56.4618 39.2436C55.8142 39.4237 55.7962 39.4454 55.522 39.5354C55.6916 39.5138 55.6915 39.5138 56.5736 39.3355C56.0595 39.5876 55.4661 39.7083 54.0302 40.0001C62.5425 38.6529 71.3957 32.0397 71.5887 23.1681Z" fill="url(#paint0_linear_3063_2166)"/>
<path d="M62.964 34.8075C59.5872 36.9434 55.851 38.8066 51.6779 39.2822C56.698 39.4617 62.6552 35.8485 65.9001 32.8887C64.9286 33.5348 63.9571 34.1846 62.964 34.8075Z" fill="url(#paint1_linear_3063_2166)"/>
<path d="M57.5443 35.3778C52.7396 36.3998 52.4674 37.6207 45.5929 37.1006C45.0521 37.2666 42.1945 37.0914 41.7221 36.9363C41.7455 36.9363 41.9673 37.0331 42.1584 37.1097H42.1458C42.8669 37.0185 47.6212 38.0441 49.1392 37.8397C51.1098 37.9747 57.2937 36.1151 57.5443 35.3778Z" fill="url(#paint2_linear_3063_2166)"/>
<path d="M68.2654 18.029L68.0952 17.9556C67.8381 19.1406 67.572 20.1322 67.228 21.294C67.5322 20.9145 67.715 20.7981 68.0174 20.424C67.2932 23.1538 65.6057 24.976 63.7553 26.9988C63.2592 27.5358 64.4795 26.9612 63.4113 28.0889C63.6684 27.8168 63.6105 27.9636 63.8096 28.071C64.6497 27.0167 66.0113 26.9666 66.7772 25.8174C68.7688 22.8137 69.4622 21.149 69.9438 19.2605C69.9599 19.2763 69.975 19.2931 69.9891 19.3106C69.5042 18.7768 68.9187 18.3415 68.2654 18.029Z" fill="url(#paint3_linear_3063_2166)"/>
<path d="M45.7622 32.9579C42.6088 31.1705 44.8946 32.3591 47.6574 33.0122C49.6814 33.5109 51.7696 33.6939 53.8489 33.5549C57.139 32.2886 59.9504 30.4487 61.5127 28.7029C60.764 29.3903 57.0617 30.4197 61.4587 27.2194C64.864 24.9182 66.7305 21.5677 67.8554 17.736C66.9733 17.4102 66.0573 17.1856 65.125 17.0667C63.8075 20.2163 63.6113 22.4035 60.692 24.1439C57.4342 26.2751 59.4735 25.7287 59.5059 25.7124C59.7596 25.6111 60.0011 25.4812 60.2258 25.3253C58.9659 27.3515 56.7737 28.645 54.1603 29.2293C54.0775 30.0471 52.8302 29.7721 52.8788 30.4053C53.039 31.1416 52.2362 31.4907 51.5433 31.4401C49.3835 31.4636 48.3378 30.4035 47.454 29.8951C46.0753 30.8141 45.4274 30.9317 43.6923 30.7381C42.8302 30.7508 42.0437 31.1904 41.1887 31.3894C42.4126 32.4894 47.6826 33.9041 45.7622 32.9579ZM62.3838 24.1837C62.9328 22.9807 64.2071 22.3348 64.6264 20.8821C64.5652 21.0956 65.0206 21.1842 65.2006 21.1842C65.9205 21.0612 65.9385 20.0698 66.1707 19.8635C65.9907 22.1159 64.4699 23.9612 62.8068 25.4881C62.5879 25.3549 62.3167 25.3426 62.0868 25.4555C62.0167 25.0322 62.9292 24.4424 62.3838 24.1837Z" fill="url(#paint4_linear_3063_2166)"/>
<path d="M65.27 10.9185C63.1584 9.71255 60.7734 9.43093 58.5305 8.53551C61.9048 9.25762 65.9176 9.99237 68.4123 12.527C68.4519 12.5468 68.5454 12.6389 68.5922 12.6515C68.808 12.7978 69.0544 13.3159 69.3548 13.1245C64.1207 2.87238 48.2206 4.01331 40.6554 8.21779C41.0673 8.53551 41.5205 8.90921 41.9432 9.27026C43.3822 8.10045 49.2188 7.28446 49.7332 7.36389C47.7835 7.75564 44.5531 8.93267 42.5908 9.81545L42.8659 10.0483C46.8698 8.63481 52.9636 7.64913 57.2822 8.68896C53.8306 9.07349 47.6774 9.02113 43.5836 10.6567C44.7078 11.5106 45.7096 13.0649 46.6755 14.2059C53.3539 10.9365 57.2067 10.83 60.5845 11.2579C60.9083 11.4384 58.1887 11.5521 58.8488 11.7525C59.5827 11.9222 60.9587 11.5142 61.277 11.4727C61.4839 11.4059 62.7825 11.4492 63.1926 11.5268C64.7538 11.9078 63.2897 12.1063 62.7447 11.9782C62.4763 11.9566 62.2063 11.962 61.9389 11.9944C61.3364 12.1081 60.6079 12.2417 60.0072 12.332C59.8453 12.3591 58.0125 12.3103 58.2912 12.5486C58.642 12.5252 60.1852 12.805 60.5827 12.758C60.822 12.7039 61.0648 12.7851 61.2914 12.6624C61.4029 12.5847 61.8598 12.5288 61.8796 12.7201C61.3598 13.8827 59.7805 13.0108 58.5916 13.2617C57.5322 13.3411 56.4081 13.8159 56.2174 13.6498C59.6924 11.5287 51.2513 14.6807 51.3934 15.2168C51.4028 15.2195 51.4128 15.2195 51.4222 15.2168C51.4473 15.6916 52.773 15.0002 53.041 15.0507C53.6219 15.0056 54.4079 14.6427 54.9745 14.5092C55.399 14.5092 55.5663 14.7222 55.989 14.6283C56.9171 14.6121 57.7552 14.2113 58.651 14.0344C58.7301 14.0344 59.2895 14.2709 59.2625 14.3358C60.9497 15.8541 61.84 14.5886 63.6908 15.0886C63.9858 15.1284 63.6369 15.3197 63.5361 15.3793C62.5595 16.0689 61.3993 16.1754 60.268 16.2585C60.0785 16.2362 59.8867 16.2674 59.714 16.3487C59.3417 16.3198 58.9945 16.5293 58.6222 16.4733C57.5628 16.495 56.516 16.6538 55.5645 17.1394C55.2047 17.2098 54.7965 17.2676 54.5285 17.5366C54.2551 17.7586 53.8432 17.6738 53.6021 17.9229C53.192 18.1702 50.0984 18.8256 50.4473 19.4628C50.4473 19.4628 50.4365 19.4628 50.4293 19.4628H50.4473C50.4489 19.4766 50.4489 19.4905 50.4473 19.5043C55.5573 18.7714 61.6493 15.1554 68.0939 17.8633C70.747 19.2191 72.2309 21.5768 71.1732 26.1333C71.1822 26.1116 71.2973 25.8083 71.2956 25.7957L71.2758 25.8102C71.5761 24.7468 71.8513 23.8334 71.8441 22.7574C72.5366 18.8238 69.5616 13.2563 65.27 10.9185ZM59.2229 7.06964C60.1601 7.28085 61.8778 7.59497 62.439 8.1889C60.9659 8.17266 60.2356 7.53359 60.259 7.54984C59.9766 7.46318 59.0898 7.14546 59.2229 7.06964Z" fill="#FAD50A"/>
<path d="M42.6091 9.85502L41.9925 9.34295C43.462 8.14272 49.2045 7.37731 49.7869 7.4366C48.9218 7.61097 48.0699 7.84511 47.2375 8.13733C45.7121 8.63503 44.0317 9.25671 42.6091 9.85502ZM72.4345 18.1201C71.533 11.4128 69.236 5.52487 61.0521 3.36158C66.1131 4.58517 66.4936 5.21583 67.1535 5.65243C63.2229 2.02121 56.8908 0.7581 50.4901 1.84513C54.2223 0.639515 60.3561 0.786848 64.1929 3.15855C55.0409 -2.48862 44.0407 -0.0468417 37.2776 6.40168C38.5398 6.64603 39.6486 7.47972 40.6781 8.27389C48.3535 4.10184 64.1929 2.95911 69.4613 13.1646C69.1584 13.3551 68.9204 12.8412 68.6969 12.6939C68.6554 12.6813 68.5616 12.5897 68.5166 12.5699C66.014 10.0545 61.9969 9.31061 58.6108 8.5973C60.87 9.49567 63.25 9.76878 65.3667 10.969C70.8893 14.1349 73.2999 20.551 71.3887 25.7778L71.4086 25.7634C72.2588 23.31 72.6076 20.7117 72.4345 18.1218V18.1201ZM53.8256 8.31162C50.3242 8.31162 45.8924 8.96923 42.9084 10.1084L43.608 10.6977C47.1726 9.34295 53.1639 8.99977 56.0956 8.88837C59.2707 8.79135 54.9868 8.3224 53.8256 8.31162ZM60.3399 7.61628C60.2822 7.58573 61.0737 8.24514 62.5252 8.25233C61.9572 7.6594 60.2444 7.35395 59.2996 7.13834C59.1698 7.21381 60.0586 7.53003 60.3417 7.61628H60.3399Z" fill="#F2940A"/>
<path fill-rule="evenodd" clip-rule="evenodd" d="M170.917 26.3335C170.917 27.8335 172.167 29.0835 173.75 29.0835C175.334 29.0835 176.584 27.8335 176.584 26.3335V17.3335H181.5V27.3335C181.5 30.6668 178 33.4168 173.667 33.4168C169.334 33.4168 165.834 30.6668 165.834 27.3335V17.3335H170.834V26.3335H170.917ZM192.75 32.8335H197.75V6.5835H192.75V32.8335ZM184.334 32.8335H189.334V6.5835H184.334V32.8335ZM92.8335 12.0835H90.0835V32.8335H84.7502V7.8335H93.9169C98.0835 7.8335 101.417 11.1668 101.417 15.2502C101.417 18.6668 99.0002 21.6668 95.6669 22.4168L103 32.9168H96.7502L91.4169 24.7502V18.7502H92.6669C94.6669 18.7502 96.2502 17.2502 96.2502 15.5002C96.2502 13.5835 94.7502 12.0835 92.8335 12.0835Z" fill="#D2003C"/>
<path fill-rule="evenodd" clip-rule="evenodd" d="M107.75 23.2502C107.667 21.5835 108.917 20.0835 110.667 20.0002C112.334 19.9168 113.834 21.1668 113.917 22.9168C113.917 23.0002 113.917 23.1668 113.917 23.2502H107.75ZM118.75 26.0835C118.75 25.7502 118.834 25.4168 118.834 25.0002C118.917 19.5835 115.334 16.5835 110.75 16.5835C106.167 16.5835 102.5 20.3335 102.5 24.9168C102.5 29.5002 106.167 33.2502 110.75 33.2502C114.25 33.2502 116.917 31.6668 118.334 29.2502L114.25 27.3335C113.667 28.5002 112.417 29.2502 111.084 29.2502C109.167 29.2502 107.667 27.8335 107.667 26.1668V26.0002C107.75 26.0835 118.75 26.0835 118.75 26.0835ZM130.084 29.0002C128.084 29.0002 126.417 27.1668 126.417 25.0002C126.417 22.7502 128.084 21.0002 130.084 21.0002C132.084 21.0002 133.75 22.8335 133.75 25.0002C133.75 27.2502 132.084 29.0002 130.084 29.0002ZM138.667 32.8335V6.5835H133.667V19.0002C132.334 17.6668 130.5 16.9168 128.667 16.9168C124.584 16.9168 121.167 20.5835 121.167 25.0835C121.167 29.5835 124.5 33.2502 128.667 33.2502C130.584 33.2502 132.417 32.4168 133.75 31.0835V32.8335H138.667ZM155.667 28.5002H150.917V12.0835H154.25C155.75 12.0835 156.917 13.4168 156.917 14.9168C156.917 16.4168 155.75 17.5835 154.25 17.5835H152.5V22.0835H155.667C157.417 22.0835 158.75 23.5002 158.75 25.2502V25.3335C158.667 27.0835 157.584 28.4168 155.667 28.5002ZM159.834 19.2502C161.25 18.0002 162 16.2502 162 14.4168C162 12.7502 161.334 11.1668 160.167 9.91683C159 8.5835 156.834 7.91683 154 7.91683H145.5V32.9168H156.584C160.834 32.8335 164.25 29.6668 164.25 25.7502C164.167 22.8335 163.167 20.8335 159.834 19.2502Z" fill="#D2003C"/>
</g>
<defs>
<linearGradient id="paint0_linear_3063_2166" x1="422.048" y1="1129.52" x2="3669.85" y2="1129.52" gradientUnits="userSpaceOnUse">
<stop stop-color="#1885C8"/>
<stop offset="0.14" stop-color="#1881C3"/>
<stop offset="0.32" stop-color="#1A74B3"/>
<stop offset="0.52" stop-color="#1B6099"/>
<stop offset="0.73" stop-color="#1E4475"/>
<stop offset="0.96" stop-color="#212047"/>
<stop offset="1" stop-color="#22183D"/>
</linearGradient>
<linearGradient id="paint1_linear_3063_2166" x1="89.2379" y1="375.504" x2="1548.42" y2="153.596" gradientUnits="userSpaceOnUse">
<stop offset="0.24" stop-color="#52BCE8"/>
<stop offset="1" stop-color="#3F88B9"/>
</linearGradient>
<linearGradient id="paint2_linear_3063_2166" x1="41.7221" y1="159.658" x2="1623.94" y2="159.658" gradientUnits="userSpaceOnUse">
<stop offset="0.54" stop-color="#52BCE8"/>
<stop offset="1" stop-color="#49A4D3"/>
</linearGradient>
<linearGradient id="paint3_linear_3063_2166" x1="307.351" y1="551.025" x2="502.988" y2="508.852" gradientUnits="userSpaceOnUse">
<stop stop-color="#3A78AC"/>
<stop offset="0.29" stop-color="#34689E"/>
<stop offset="0.86" stop-color="#253E78"/>
<stop offset="1" stop-color="#21336E"/>
</linearGradient>
<linearGradient id="paint4_linear_3063_2166" x1="-2.00784" y1="1001.63" x2="2746.49" y2="395.817" gradientUnits="userSpaceOnUse">
<stop stop-color="#52BCE8"/>
<stop offset="0.25" stop-color="#51B9E6"/>
<stop offset="0.41" stop-color="#4EB0DE"/>
<stop offset="0.56" stop-color="#48A1D0"/>
<stop offset="0.69" stop-color="#418CBD"/>
<stop offset="0.78" stop-color="#3977AB"/>
<stop offset="0.85" stop-color="#33669C"/>
<stop offset="0.98" stop-color="#243B75"/>
<stop offset="1" stop-color="#21336E"/>
</linearGradient>
<clipPath id="clip0_3063_2166">
<rect width="198.333" height="40" fill="white"/>
</clipPath>
</defs>
</svg>
