<svg width="51" height="56" viewBox="0 0 51 56" fill="none" xmlns="http://www.w3.org/2000/svg">
<g clip-path="url(#clip0_3063_2187)">
<path d="M34.4999 25.0721L25.0688 35.0566H36.3463V42.7259C34.2646 43.6122 32.9069 43.9197 30.7528 43.9197C27.2411 43.9197 23.6931 42.5269 21.2132 40.5915C21.2132 40.5915 15.8007 37.191 15.8007 28.0204C15.8007 19.5553 21.5571 13.315 29.4676 13.315C31.4407 13.315 33.2328 13.6044 35.0068 14.2556L46.2299 10.6018L42.2837 15.5579L48.2935 13.4054L44.3835 17.4209L43.8948 17.9274H49.2529V-0.0157471H40.7993V2.62508C37.4143 1.32275 33.7034 0.68968 29.5762 0.68968C12.6691 0.707767 0.522758 12.4468 0.522758 28.9067C0.522758 44.8783 12.1984 55.9843 28.9969 55.9843C36.9075 55.9843 44.0215 53.8318 50.1761 49.5992V25.0721H34.4999Z" fill="white"/>
<path d="M33.6129 13.8374C33.6129 13.8374 37.3418 14.9408 39.1882 17.9433H44.5464L48.8003 14.9408V7.56091L35.4773 9.49631L33.6129 13.8374Z" fill="white"/>
<path d="M18.359 42.7835C19.2279 40.613 25.0567 25.9437 25.0567 25.9437L21.2191 27.4089L27.5186 17.8404L43.4844 12.5406L39.1761 17.6957L44.5343 15.8326L18.359 42.7835Z" fill="#161413"/>
<path d="M28.0121 18.5484L39.905 14.6052L35.5787 19.8145L40.2671 18.2047L21.2058 37.8119L26.6364 24.1556L23.541 25.3313L28.0121 18.5484Z" fill="#E52935"/>
<path d="M22.4488 34.6986L37.5457 19.1249L33.3099 20.572L37.6362 15.3627L28.0241 18.5461L24.7658 23.5022L27.282 22.5616L22.4488 34.6986Z" fill="#F9B018"/>
</g>
<defs>
<clipPath id="clip0_3063_2187">
<rect width="49.6533" height="56" fill="white" transform="translate(0.522766)"/>
</clipPath>
</defs>
</svg>
