<svg width="30" height="30" viewBox="0 0 30 30" fill="none" xmlns="http://www.w3.org/2000/svg">
<path d="M26.1838 10.3813C26.1712 9.4346 25.9939 8.49729 25.66 7.61132C25.3705 6.86401 24.9282 6.18532 24.3615 5.61861C23.7948 5.0519 23.1161 4.60963 22.3688 4.32007C21.4942 3.99176 20.5702 3.81424 19.6363 3.79507C18.4338 3.74132 18.0525 3.72632 15 3.72632C11.9475 3.72632 11.5563 3.72632 10.3625 3.79507C9.42898 3.81439 8.50546 3.9919 7.63128 4.32007C6.88385 4.60943 6.20505 5.05162 5.63832 5.61836C5.07158 6.18509 4.62939 6.86389 4.34003 7.61132C4.01107 8.48523 3.83393 9.40896 3.81628 10.3426C3.76253 11.5463 3.74628 11.9276 3.74628 14.9801C3.74628 18.0326 3.74628 18.4226 3.81628 19.6176C3.83503 20.5526 4.01128 21.4751 4.34003 22.3513C4.62987 23.0985 5.0724 23.777 5.63932 24.3435C6.20625 24.91 6.88511 25.352 7.63253 25.6413C8.50432 25.9828 9.42799 26.173 10.3638 26.2038C11.5675 26.2576 11.9488 26.2738 15.0013 26.2738C18.0538 26.2738 18.445 26.2738 19.6388 26.2038C20.5727 26.1854 21.4967 26.0083 22.3713 25.6801C23.1184 25.3902 23.7969 24.9478 24.3636 24.3811C24.9302 23.8145 25.3726 23.1359 25.6625 22.3888C25.9913 21.5138 26.1675 20.5913 26.1863 19.6551C26.24 18.4526 26.2563 18.0713 26.2563 15.0176C26.2538 11.9651 26.2538 11.5776 26.1838 10.3813ZM14.9925 20.7526C11.8 20.7526 9.21378 18.1663 9.21378 14.9738C9.21378 11.7813 11.8 9.19507 14.9925 9.19507C16.5251 9.19507 17.995 9.8039 19.0787 10.8876C20.1624 11.9714 20.7713 13.4412 20.7713 14.9738C20.7713 16.5064 20.1624 17.9763 19.0787 19.06C17.995 20.1437 16.5251 20.7526 14.9925 20.7526ZM21.0013 10.3288C20.8243 10.329 20.649 10.2942 20.4854 10.2266C20.3219 10.1589 20.1732 10.0597 20.0481 9.93451C19.9229 9.80935 19.8237 9.66074 19.756 9.49718C19.6884 9.33362 19.6536 9.15832 19.6538 8.98132C19.6538 8.80444 19.6886 8.6293 19.7563 8.46589C19.824 8.30248 19.9232 8.154 20.0483 8.02893C20.1733 7.90386 20.3218 7.80466 20.4852 7.73697C20.6486 7.66928 20.8238 7.63444 21.0007 7.63444C21.1775 7.63444 21.3527 7.66928 21.5161 7.73697C21.6795 7.80466 21.828 7.90386 21.953 8.02893C22.0781 8.154 22.1773 8.30248 22.245 8.46589C22.3127 8.6293 22.3475 8.80444 22.3475 8.98132C22.3475 9.72632 21.745 10.3288 21.0013 10.3288Z" fill="white"/>
<path d="M14.992 18.7275C17.0652 18.7275 18.7458 17.0469 18.7458 14.9737C18.7458 12.9006 17.0652 11.22 14.992 11.22C12.9189 11.22 11.2383 12.9006 11.2383 14.9737C11.2383 17.0469 12.9189 18.7275 14.992 18.7275Z" fill="white"/>
</svg>
