<svg width="30" height="30" fill="none" xmlns="http://www.w3.org/2000/svg"><path d="M26.184 10.381a8.163 8.163 0 0 0-.524-2.77 5.762 5.762 0 0 0-3.291-3.29 8.258 8.258 0 0 0-2.733-.526c-1.202-.054-1.584-.069-4.636-.069-3.053 0-3.444 0-4.637.07a8.257 8.257 0 0 0-2.732.524A5.759 5.759 0 0 0 4.34 7.611a8.192 8.192 0 0 0-.524 2.732c-.053 1.203-.07 1.585-.07 4.637 0 3.053 0 3.443.07 4.638.019.935.195 1.857.524 2.733a5.762 5.762 0 0 0 3.293 3.29 8.23 8.23 0 0 0 2.73.563c1.205.054 1.586.07 4.638.07 3.053 0 3.444 0 4.638-.07a8.24 8.24 0 0 0 2.732-.524 5.769 5.769 0 0 0 3.292-3.291 8.232 8.232 0 0 0 .523-2.734c.054-1.202.07-1.584.07-4.637-.002-3.053-.002-3.44-.072-4.637zM14.992 20.753a5.778 5.778 0 0 1-5.778-5.78 5.777 5.777 0 0 1 9.865-4.085 5.78 5.78 0 0 1-4.087 9.865zm6.01-10.424a1.347 1.347 0 1 1-.003-2.694A1.347 1.347 0 0 1 21 10.329z" fill="#fff"/><path d="M14.992 18.727a3.754 3.754 0 1 0 0-7.507 3.754 3.754 0 0 0 0 7.507z" fill="#fff"/></svg>