<svg width="78" height="64" viewBox="0 0 78 64" fill="none" xmlns="http://www.w3.org/2000/svg">
<path d="M34.8678 0H37.5495V0.14496L37.8395 0.289921L38.3468 0.797282L38.5643 0.869762L38.7092 0.652322H38.8542V0.507361H38.9992V0.362401L39.3616 0H42.4057L43.2755 0.0724802L46.0297 0.14496L49.3638 0.362401L49.5813 0.434881L50.8859 0.507361L50.9584 0.579841L52.1905 0.652322L53.4952 0.797282L55.3072 1.01472L55.4521 1.0872L56.3944 1.15968L56.5393 1.23216L58.8587 1.52208L59.7285 1.66704L59.801 1.73952L60.5258 1.812L61.2506 1.95696L63.135 2.31937L63.9323 2.53681L65.4544 2.82673L66.2517 3.04417L67.4114 3.33409L68.2087 3.55153L68.716 3.62401V3.76897L69.3683 3.84145L70.528 4.13137L70.6005 4.20385L71.1079 4.27633L71.7602 4.49377L72.1226 4.63873V5.07361L71.9051 5.72593L71.8327 6.2333H71.6877V6.74066L71.3978 7.6829L71.3253 8.19026H71.1803V8.69762L70.7455 10.2197L70.528 11.2344L70.3831 11.7418L70.1656 12.684L69.9482 13.2639L69.7307 14.2786L69.5133 15.2208L69.4408 15.2933L69.3683 15.8007H69.2234L69.1509 16.453L68.9335 17.2503V17.6127L69.2234 18.0476V18.265H69.3683V18.5549H69.5133L69.8757 19.2072V19.3522H70.0207L70.3831 20.077V20.222H70.528V20.5119H70.673V20.8018L70.3106 20.8743V21.0193H70.0207V21.1642L69.1509 21.6716H68.9335V21.8165L68.2811 22.1789H68.0637V22.3239L67.7738 22.4689H67.5563V22.8313L67.3389 23.4836L67.049 24.7882L66.8315 25.4405L66.6866 26.0929L66.3966 27.325L66.3242 27.3975L66.2517 27.9049H66.1067V28.5572H77.8485V32.8335H75.3117L75.3842 36.4575H77.776L77.8485 36.6025V40.8788L71.6877 40.9513L72.485 41.3862L73.6447 42.0385V42.1835H73.9346V42.3284L74.297 42.4009V42.5459L74.5869 42.6183L74.8044 42.6908V42.8358L75.2392 42.9807L75.3117 43.1982L75.0218 43.6331L74.9493 43.8505H74.8044L74.7319 44.1404L74.5869 44.5028H74.442L74.3695 44.7928L74.297 45.0102H74.152L74.0071 45.4451L73.7896 45.88H73.6447L73.5722 46.1699L73.2823 46.7497H73.1373L73.0648 47.0396L72.9924 47.2571H72.8474L72.7749 47.6195L72.6299 47.9094H72.485V48.1268H72.34V48.4168H72.1951L72.1226 48.7792H71.9776V49.0691H71.8327L71.7602 49.359L71.3978 49.9388L71.3253 50.2288H71.1803L71.0354 50.6636L70.528 51.5334H70.3831L70.3106 51.8958L70.1656 52.1857H70.0207L69.9482 52.4757L69.8757 52.6931H69.7307L69.6583 53.0555L69.5133 53.3454H69.3683L69.2959 53.6353L69.2234 53.8528H69.0784L68.861 54.5051H68.716L68.6435 54.795L68.2087 55.6648H68.0637L67.9187 56.0997L67.3389 57.0419L67.049 57.6217H66.904V57.9117H66.7591L66.6866 58.2016L66.3966 58.7814H66.2517V59.0713H66.1067L66.0343 59.3613L65.7443 59.9411H65.5994V60.231H65.4544L65.3819 60.521L65.237 60.8834H65.092V61.1008H64.947V61.3907H64.8021L64.5846 62.043H64.4397V62.2605H64.2947L64.2222 62.5504L63.9323 63.2027H63.7874V63.4202H63.6424L63.5699 63.7101L63.4974 63.855H63.135V63.7101L62.7726 63.5651L62.6277 63.4926V63.3477L62.2653 63.2027L61.3955 62.6229L61.1781 62.5504V62.4054L60.5258 62.188V62.043H60.3083V61.8981H60.0184V61.7531L59.3661 61.5357V61.3907L59.0037 61.3182L57.989 60.8109L57.699 60.7384V60.5934L57.2641 60.521L56.9017 60.376V60.231H56.5393V60.0861L56.1769 60.0136L55.3072 59.7237L54.4374 59.3613L53.4952 59.0713L52.9878 58.8539L51.4657 58.419V58.2741H51.0309L50.3785 58.0566L49.1464 57.7667L49.0739 57.6942L46.1747 57.1144L46.1022 57.0419L43.9278 56.752L42.6232 56.607L42.4057 56.5345H36.5348L36.2449 56.607L34.9403 56.6795L33.1283 56.8969L32.186 57.0419L32.1135 57.1144L31.3163 57.1869L31.2438 57.2593L28.9244 57.6942L28.8519 57.7667L28.3446 57.8392L27.9097 57.9841L27.0399 58.2016L26.9674 58.2741H26.5326V58.419L25.5178 58.7089L25.3729 58.7814H24.938V58.9264L23.9958 59.2163L23.126 59.5062L22.2562 59.8686L21.7489 60.0861H21.459V60.231L20.2993 60.6659L19.9369 60.7384V60.8834L19.2121 61.1733L18.8497 61.2458V61.3907L18.3423 61.6082L18.0524 61.7531H17.8349V61.8981H17.545V62.043L16.3853 62.6229L15.6605 63.0578H15.5156V63.2027H15.2257V63.3477H15.0082V63.4926L14.5733 63.7101H14.4284V63.855L14.066 64V63.855H13.921L12.9063 62.043V61.8981H12.7613L12.3264 61.0283L12.254 60.7384H12.109L11.8916 60.0861H11.7466L11.6016 59.7961V59.5787H11.4567L11.0943 58.9264V58.7089H10.9493V58.419H10.8044L10.3695 57.6217L9.9346 56.8969L9.78964 56.4621H9.64468L9.42724 55.9547L9.28228 55.7373V55.5198H9.13732V55.3024H8.99236V55.0125H8.8474L8.77492 54.6501H8.62996V54.3601H8.485V54.1427H8.34004L8.1226 53.7078V53.4904H7.97764V53.2005H7.83268V52.983H7.68772L7.47027 52.5481V52.3307H7.32531L6.89043 51.5334L6.67299 51.171V50.9536H6.52803L6.16563 50.2288V50.0838H6.02067L5.87571 49.7939V49.5764H5.73075L5.51331 49.1416V48.9241H5.36835L5.22339 48.6342V48.4168H5.07843L4.86099 47.9819V47.7644H4.71603V47.547H4.57107L4.35363 47.1121V46.8947H4.20867L3.77379 46.0974L3.55634 45.735V45.5176H3.41138L3.04898 44.7928V44.6478H2.90402V44.3579H2.75906L2.39666 43.7055V43.4881H2.2517V43.1982H2.10674V42.9807L2.90402 42.5459L3.48386 42.1835H3.70131V42.0385L4.28115 41.7486L4.57107 41.6761V41.5311H4.86099V41.3862L5.51331 41.0238H5.73075V40.8788H0.149776V36.6025L0.367217 36.4575H3.19394L3.26642 32.8335H0.149776V28.5572H12.254L12.1815 28.0498L12.109 27.9773L11.8916 26.8901L11.6016 25.8029L11.5292 25.2956L11.3117 24.6433L11.0218 23.1937L10.9493 23.1212L10.8768 22.6138L10.6594 22.4689V22.3239H10.442V22.1789L10.152 22.1065L8.77492 21.3092L8.485 21.1642V21.0193L8.19508 20.9468L7.83268 20.7293L7.90516 20.3669L8.34004 19.5696H8.485V19.3522H8.62996L8.77492 18.9173L8.99236 18.5549H9.13732V18.265H9.28228L9.35476 17.9026H9.49972L9.5722 17.2503L9.28228 16.0906L9.13732 15.5832V15.0759H8.99236L8.91988 14.496L8.62996 13.4813V12.974H8.485V12.3216H8.34004L7.90516 10.2922L7.83268 10.2197L7.61523 9.20498L7.32531 8.0453V7.53794H7.18035L6.96291 6.45074L6.74547 5.43601L6.67299 5.36353V4.78369L6.52803 4.71121L7.18035 4.42129L8.1226 4.20385L8.70244 3.98641L9.9346 3.69649L10.5144 3.47905L11.7466 3.18913L12.4714 3.04417L12.5439 2.97169L13.0512 2.89921L13.1237 2.82673L14.7183 2.53681L14.7908 2.46433L16.0229 2.24689L17.3276 1.95696L17.9799 1.88448L18.1249 1.812H18.8497V1.66704L19.502 1.59456L19.6469 1.52208L21.7489 1.23216L21.9663 1.15968L22.7636 1.0872L22.8361 1.01472L23.7058 0.942242L23.9233 0.869762L25.5903 0.724802L27.0399 0.579841L27.1849 0.507361L28.4895 0.434881L28.707 0.362401L31.6062 0.14496L34.143 0.0724802L34.8678 0ZM35.3751 0.362401L34.7228 0.434881L31.6062 0.507361L31.4612 0.579841L30.0116 0.652322L29.6492 0.724802L27.3298 0.869762L27.0399 0.942242L26.0977 1.01472L25.8802 1.0872L24.7206 1.15968L24.5756 1.23216L23.7783 1.30464L22.9086 1.4496L21.169 1.66704L21.0965 1.73952L20.2993 1.812L20.1543 1.88448L19.357 1.95696L17.9799 2.24689L17.3276 2.31937L17.1826 2.39185L16.5303 2.46433V2.60929H15.878L14.7908 2.82673L14.7183 2.89921L14.066 2.97169V3.11665H13.5586L12.3989 3.40657L11.4567 3.62401L10.8044 3.84145L9.5722 4.13137L9.49972 4.20385L8.99236 4.27633V4.42129H8.55748L8.1226 4.56625L7.25283 4.78369L7.03539 4.92865L7.18035 5.87089L7.25283 5.94337L7.32531 6.45074L7.47027 6.9581L7.7602 8.0453L7.83268 8.55266L7.90516 8.62514L7.97764 9.1325L8.05012 9.20498L8.34004 10.6546L8.41252 10.7271L8.485 11.3069L8.70244 11.9592L8.99236 13.4088L9.06484 13.4813L9.13732 13.9887L9.28228 14.496L9.5722 15.5832L9.64468 16.0906L9.71716 16.1631L9.78964 16.6704L9.86212 16.7429L10.0071 17.6127L9.9346 17.9026H9.78964V18.12H9.64468L9.2098 18.9173L9.13732 19.2072H8.99236L8.77492 19.6421V19.8596H8.62996L8.34004 20.3669V20.5844L8.77492 20.8743H8.99236V21.0193L9.78964 21.4541L10.0796 21.6716H10.297V21.8165L10.8768 22.1065L11.1668 22.3239L11.3842 23.1212L11.4567 23.6285L11.5292 23.701L11.6016 24.2809H11.7466V24.7882L12.0365 25.8029L12.109 26.3828H12.254V26.9626L12.3989 27.47L12.7613 28.9196H0.584658V32.4711H3.70131L3.62883 34.573L3.55634 35.2978V36.8924H0.584658V40.5164L7.10787 40.5889L5.58579 41.3862L4.86099 41.8211L4.42611 42.0385V42.1835H4.20867V42.3284L3.84627 42.4009L3.55634 42.5459V42.6908L3.26642 42.7633L3.04898 42.8358V42.9807L2.6141 43.1257V43.3431H2.75906L2.83154 43.6331L2.90402 43.8505H3.04898L3.12146 44.1404L3.26642 44.5028H3.41138V44.7928H3.55634V45.0102H3.70131L3.84627 45.4451L4.71603 46.9672L5.22339 47.9094H5.36835L5.44083 48.1993L5.51331 48.4168H5.65827L5.73075 48.7792L5.87571 49.0691H6.02067L6.09315 49.359L6.16563 49.5764H6.31059L6.52803 50.2288H6.67299V50.4462H6.81795L6.89043 50.7361L7.10787 51.0985L7.18035 51.3884H7.32531L7.47027 51.8233L8.05012 52.7656L8.34004 53.3454H8.485L8.55748 53.7078L8.99236 54.5051H9.13732V54.795H9.28228L9.35476 55.1574L9.64468 55.6648H9.78964V55.9547H9.9346L10.0071 56.2446L10.297 56.8245H10.442L10.5144 57.1144L10.9493 57.9841H11.0943L11.1668 58.2741L12.109 59.9411L12.254 60.231H12.3989L12.4714 60.5934L12.6164 60.8834H12.7613L12.8338 61.1733L12.9063 61.3907H13.0512L13.1237 61.6806L13.2687 62.043H13.4136V62.2605H13.5586V62.5504H13.7036L13.921 63.2027H14.066V63.4202L14.5009 63.3477L14.7183 63.2027V63.0578L15.0082 62.9853L15.3706 62.8403V62.6954H15.5881V62.5504H15.878V62.4054L16.5303 62.188V62.043L16.8202 61.9706L17.0377 61.8981V61.7531L17.4001 61.6806L17.69 61.5357V61.3907L18.0524 61.3182L19.357 60.7384L20.5167 60.1586L21.6764 59.7237L22.4737 59.3613L23.4159 59.0713V58.9264H23.7783V58.7814H24.1407L24.8655 58.4915L25.2279 58.419V58.2741H25.7353V58.1291H26.0977L26.5326 57.9841L27.4023 57.7667L27.4748 57.6942L27.9822 57.6217V57.4768L28.6345 57.4043L29.4318 57.2593L29.5042 57.1869L30.1566 57.1144V56.9694H30.8089L31.7511 56.752L32.9108 56.607L33.0558 56.5345L33.9255 56.4621L34.0705 56.3896L35.4476 56.2446L38.7092 56.0997H40.3038L43.1305 56.2446L44.2902 56.3896L44.4352 56.4621L45.2324 56.5345L47.4069 56.9694L47.9867 57.0419L48.0592 57.1144L48.5665 57.1869L49.5813 57.4768H50.0161V57.6217H50.5235V57.7667L51.7557 58.0566L52.3355 58.2741H52.7704V58.419L53.7851 58.7089L54.2925 58.7814V58.9264L55.3072 59.2888H55.5971V59.4337L56.2494 59.6512L57.1917 60.0136L57.5541 60.0861V60.231L58.0614 60.4485L58.7138 60.7384H58.9312V60.8834L60.1634 61.4632L60.8882 61.8981H61.1056V62.043H61.323V62.188L61.9754 62.5504H62.1203V62.6954H62.3378V62.8403L62.7002 63.0578H62.8451V63.2027L63.135 63.3477L63.425 63.2752L63.6424 62.9128V62.6954H63.7874V62.4054H63.9323L64.2222 61.8256L64.2947 61.5357H64.4397V61.2458H64.5846L64.6571 60.8834H64.8021V60.5934H64.947V60.376H65.092V60.0861H65.237L65.3095 59.7237H65.4544V59.4337H65.5994L65.9618 58.7814V58.564H66.1067V58.2741H66.2517L66.7591 57.4043L67.1939 56.607L67.2664 56.3171H67.4114L67.8463 55.4473L67.9187 55.1574H68.0637L68.2087 54.8675V54.6501H68.3536L68.5711 54.2152V53.9977H68.716L69.1509 53.128L69.2234 52.8381H69.3683L70.0931 51.5334L70.528 50.8086V50.5912H70.673L70.9629 50.0113L71.0354 49.7214H71.1803V49.4315H71.3253L71.6877 48.7792V48.5617H71.8327V48.2718H71.9776L72.34 47.6195V47.402H72.485L72.9199 46.5323L73.3547 45.8075L73.6447 45.3726V45.1552H73.7896L74.0071 44.5028H74.152L74.297 44.2129V43.9955H74.442L74.6594 43.3431H74.8044L74.7319 43.1257L74.5144 42.9807H74.297V42.8358L74.0071 42.6908H73.7896V42.5459L73.3547 42.3284H73.1373V42.1835L72.34 41.7486L72.0501 41.5311H71.8327V41.3862L71.1803 41.1687V41.0238H70.8904V40.8788L70.2381 40.5889L77.4136 40.5164L77.4861 40.4439V36.9649L77.4136 36.8924L75.0218 36.8199L74.9493 32.4711H77.4136L77.4861 32.3986V28.9196H65.5994L65.6718 28.4122L65.8893 27.7599L66.1792 26.4553L66.2517 26.3828L66.3242 25.8754L66.7591 24.3533L66.9765 23.3386L67.1215 22.8313L67.3389 22.2514L67.5563 22.1789V22.034L67.8463 21.9615L68.2087 21.8165V21.6716L68.4986 21.5991L68.716 21.5266V21.3817L69.3683 21.1642V21.0193L69.7307 20.8743L70.1656 20.6569V20.3669H70.0207V20.1495H69.8757V19.8596H69.7307L69.5858 19.4972L68.716 17.9026H68.5711L68.4986 17.4677L68.716 16.8154L68.7885 16.308L69.0059 15.6557L69.2234 14.786V14.2786H69.3683L69.4408 13.7712L69.5858 13.2639L69.8757 12.3216L69.9482 11.8143L70.1656 11.1619L70.4555 9.8573L70.528 9.71234V9.20498H70.673L70.8904 8.19026L71.1079 7.3205L71.1803 7.24802V6.74066H71.3253L71.5427 5.72593L71.6877 5.21857V4.92865H71.4703V4.78369L70.2381 4.49377L69.6583 4.27633L68.716 4.05889L67.7013 3.76897L66.6866 3.55153L66.6141 3.47905L65.1645 3.18913L65.0195 3.11665H64.4397V2.97169L63.8598 2.89921L63.7874 2.82673L62.0478 2.53681L61.9754 2.46433L61.323 2.39185L61.1781 2.31937L59.801 2.10193L59.0762 1.95696L58.3514 1.88448L58.2789 1.812H57.4091V1.66704L56.3219 1.52208L55.0897 1.37712L54.9448 1.30464L54.075 1.23216L53.9301 1.15968L52.6979 1.0872L52.4805 1.01472L51.4657 0.942242L50.3061 0.797282L49.1464 0.724802L48.7115 0.652322L46.7545 0.579841L46.6096 0.507361L43.8553 0.434881L42.9856 0.362401H39.6515L39.434 0.507361V0.652322H39.2891V0.797282L38.9992 0.942242L38.6368 1.30464V1.4496H38.3468V1.30464H38.2019V1.15968H38.0569V1.01472H37.9119L37.8395 0.797282H37.6945V0.652322H37.5495V0.507361H37.4046V0.362401H35.3751Z" fill="#E8E8E8"/>
<path d="M77.3774 32.5798H74.9131L74.9856 36.9286L77.3774 37.0011L77.4499 37.0736V40.5527L77.3774 40.6251L70.2019 40.6976L70.8542 40.9875V41.1325H71.1441V41.2775L71.7964 41.4949V41.6399H72.0139L72.3038 41.8573L73.1011 42.2922V42.4371H73.3185L73.7534 42.6546V42.7995H73.9708L74.2608 42.9445V43.0895H74.4782L74.6956 43.2344L74.7681 43.4519H74.6231L74.4057 44.1042H74.2608V44.3216L74.1158 44.6115H73.9708L73.7534 45.2639H73.6084V45.4813L73.3185 45.9162L72.8836 46.641L72.4487 47.5108H72.3038V47.7282L71.9414 48.3805H71.7964V48.6704H71.6515V48.8879L71.2891 49.5402H71.1441V49.8301H70.9991L70.9267 50.12L70.6367 50.6999H70.4918V50.9173L70.0569 51.6421L69.3321 52.9468H69.1871L69.1147 53.2367L68.6798 54.1065H68.5348V54.3239L68.3174 54.7588H68.1724V54.9762L68.0275 55.2661H67.8825L67.81 55.5561L67.3751 56.4258H67.2302L67.1577 56.7157L66.7228 57.513L66.2155 58.3828H66.0705V58.6727H65.9255V58.8901L65.5631 59.5425H65.4182V59.8324H65.2732L65.2007 60.1948H65.0558V60.4847H64.9108V60.7021H64.7659V60.9921H64.6209L64.5484 61.3545H64.4034V61.6444H64.2585L64.186 61.9343L63.8961 62.5142H63.7511V62.8041H63.6062V63.0215L63.3887 63.3839L63.0988 63.4564L62.8089 63.3114V63.1665H62.6639L62.3015 62.949V62.8041H62.0841V62.6591H61.9391L61.2868 62.2967V62.1518H61.0694V62.0068H60.8519L60.1271 61.5719L58.895 60.9921V60.8471H58.6775L58.0252 60.5572L57.5178 60.3397V60.1948L57.1554 60.1223L56.2132 59.7599L55.5609 59.5425V59.3975H55.2709L54.2562 59.0351V58.8901L53.7489 58.8177L52.7341 58.5277V58.3828H52.2993L51.7194 58.1653L50.4873 57.8754V57.7305H49.9799V57.5855H49.545L48.5303 57.2956L48.0229 57.2231L47.9504 57.1506L47.3706 57.0781L45.1962 56.6433L44.3989 56.5708L44.254 56.4983L43.0943 56.3533L40.2675 56.2084H38.673L35.4114 56.3533L34.0343 56.4983L33.8893 56.5708L33.0195 56.6433L32.8746 56.7157L31.7149 56.8607L30.7726 57.0781H30.1203V57.2231L29.468 57.2956L29.3955 57.3681L28.5982 57.513L27.9459 57.5855V57.7305L27.4386 57.8029L27.3661 57.8754L26.4963 58.0929L26.0614 58.2378H25.699V58.3828H25.1917V58.5277L24.8293 58.6002L24.1045 58.8901H23.7421V59.0351H23.3797V59.1801L22.4374 59.47L21.6401 59.8324L20.4805 60.2673L19.3208 60.8471L18.0161 61.427L17.6537 61.4994V61.6444L17.3638 61.7894L17.0014 61.8618V62.0068L16.784 62.0793L16.494 62.1518V62.2967L15.8417 62.5142V62.6591H15.5518V62.8041H15.3344V62.949L14.972 63.094L14.682 63.1665V63.3114L14.4646 63.4564L14.0297 63.5289V63.3114H13.8848L13.6673 62.6591H13.5224V62.3692H13.3774V62.1518H13.2324L13.0875 61.7894L13.015 61.4994H12.87L12.7976 61.282L12.7251 60.9921H12.5801L12.4352 60.7021L12.3627 60.3397H12.2177L12.0728 60.0498L11.1305 58.3828L11.058 58.0929H10.9131L10.4782 57.2231L10.4057 56.9332H10.2608L9.97083 56.3533L9.89835 56.0634H9.75339V55.7735H9.60843L9.31851 55.2661L9.24603 54.9037H9.10107V54.6138H8.95611L8.52123 53.8165L8.44875 53.4541H8.30379L8.01387 52.8743L7.43403 51.932L7.28907 51.4972H7.14411L7.07163 51.2072L6.85418 50.8448L6.7817 50.5549H6.63674V50.3375H6.49178L6.27434 49.6852H6.12938L6.0569 49.4677L5.98442 49.1778H5.83946L5.6945 48.8879L5.62202 48.5255H5.47706L5.40458 48.308L5.3321 48.0181H5.18714L4.67978 47.0759L3.81002 45.5538L3.66506 45.1189H3.5201V44.9015H3.37514V44.6115H3.23018L3.08522 44.2491L3.01273 43.9592H2.86777L2.79529 43.7418L2.72281 43.4519H2.57785V43.2344L3.01273 43.0895V42.9445L3.23018 42.872L3.5201 42.7995V42.6546L3.81002 42.5096L4.17242 42.4371V42.2922H4.38986V42.1472L4.82474 41.9298L5.54954 41.4949L7.07163 40.6976L0.548409 40.6251V37.0011H3.5201V35.4066L3.59258 34.6818L3.66506 32.5798H0.548409V29.0283H12.7251L12.3627 27.5787L12.2177 27.0713V26.4915H12.0728L12.0003 25.9117L11.7104 24.8969V24.3896H11.5654L11.4929 23.8097L11.4204 23.7373L11.348 23.2299L11.1305 22.4326L10.8406 22.2152L10.2608 21.9253V21.7803H10.0433L9.75339 21.5629L8.95611 21.128V20.983H8.73867L8.30379 20.6931V20.4757L8.59371 19.9683H8.73867V19.7508L8.95611 19.316H9.10107L9.17355 19.026L9.60843 18.2288H9.75339V18.0113H9.89835L9.97083 17.7214L9.82587 16.8516L9.75339 16.7792L9.68091 16.2718L9.60843 16.1993L9.53595 15.692L9.24603 14.6048L9.10107 14.0974L9.02859 13.59L8.95611 13.5176L8.66619 12.068L8.44875 11.4156L8.37627 10.8358L8.30379 10.7633L8.01387 9.3137L7.94139 9.24122L7.86891 8.73386L7.79643 8.66138L7.72395 8.15402L7.43403 7.06682L7.28907 6.55946L7.21659 6.05209L7.14411 5.97961L6.99915 5.03737L7.21659 4.89241L8.08635 4.67497L8.52123 4.53001H8.95611V4.38505L9.46347 4.31257L9.53595 4.24009L10.7681 3.95017L11.4204 3.73273L12.3627 3.51529L13.5224 3.22537H14.0297V3.08041L14.682 3.00793L14.7545 2.93545L15.8417 2.71801H16.494V2.57305L17.1464 2.50057L17.2913 2.42809L17.9437 2.35561L19.3208 2.06569L20.1181 1.9932L20.263 1.92072L21.0603 1.84824L21.1328 1.77576L22.8723 1.55832L23.7421 1.41336L24.5393 1.34088L24.6843 1.2684L25.844 1.19592L26.0614 1.12344L27.0037 1.05096L27.2936 0.978482L29.613 0.833522L29.9754 0.761042L31.425 0.688562L31.5699 0.616082L34.6866 0.543601L35.3389 0.471121H37.3683V0.616082H37.5133V0.761042H37.6583V0.906002H37.8032L37.8757 1.12344H38.0207V1.2684H38.1656V1.41336H38.3106V1.55832H38.6005V1.41336L38.9629 1.05096L39.2528 0.906002V0.761042H39.3978V0.616082L39.6152 0.471121H42.9493L43.8191 0.543601L46.5733 0.616082L46.7183 0.688562L48.6752 0.761042L49.1101 0.833522L50.2698 0.906002L51.4295 1.05096L52.4442 1.12344L52.6617 1.19592L53.8938 1.2684L54.0388 1.34088L54.9085 1.41336L55.0535 1.48584L56.2857 1.6308L57.3729 1.77576V1.92072H58.2426L58.3151 1.9932L59.0399 2.06569L59.7647 2.21065L61.1418 2.42809L61.2868 2.50057L61.9391 2.57305L62.0116 2.64553L63.7511 2.93545L63.8236 3.00793L64.4034 3.08041V3.22537H64.9833L65.1282 3.29785L66.5779 3.58777L66.6503 3.66025L67.6651 3.87769L68.6798 4.16761L69.622 4.38505L70.2019 4.60249L71.434 4.89241V5.03737H71.6515V5.32729L71.5065 5.83465L71.2891 6.84938H71.1441V7.35674L71.0716 7.42922L70.8542 8.29898L70.6367 9.3137H70.4918V9.82106L70.4193 9.96602L70.1294 11.2707L69.9119 11.923L69.8395 12.4304L69.5495 13.3726L69.4046 13.88L69.3321 14.3873H69.1871V14.8947L68.9697 15.7644L68.7523 16.4168L68.6798 16.9241L68.4623 17.5764L68.5348 18.0113H68.6798L69.5495 19.6059L69.6945 19.9683H69.8395V20.2582H69.9844V20.4757H70.1294V20.7656L69.6945 20.983L69.3321 21.128V21.2729L68.6798 21.4904V21.6353L68.4623 21.7078L68.1724 21.7803V21.9253L67.81 22.0702L67.5201 22.1427V22.2877L67.3027 22.3601L67.0852 22.94L66.9403 23.4473L66.7228 24.4621L66.2879 25.9841L66.2155 26.4915L66.143 26.564L65.853 27.8686L65.6356 28.521L65.5631 29.0283H77.4499V32.5074L77.3774 32.5798Z" fill="#071A25"/>
<path d="M35.955 35.0804H41.4635L43.2755 35.1529L43.5654 35.2254L45.3774 35.2978L45.4499 35.3703L46.5371 35.4428L46.7545 35.5153L48.0592 35.6602L49.0014 35.8052L49.1464 35.8777L49.9436 35.9502L50.0161 36.0226L50.9584 36.1676L51.8281 36.3126L52.5529 36.4575L52.6254 36.53L53.7851 36.7475L54.7273 36.9649L54.7998 37.0374L55.3072 37.1099L55.3797 37.1823L56.3944 37.3998L57.1192 37.6172L57.1917 37.6897L57.699 37.7622V37.9071L58.2064 37.9796L59.1486 38.2695L59.7285 38.487L61.1056 38.9219L61.8304 39.2118L62.8451 39.5742L63.7874 40.0091L64.4397 40.2265V40.3715L64.8021 40.4439L65.5994 40.7339V40.8788H65.8893V41.0238L66.2517 41.0963L66.9765 41.4587L67.2664 41.5311V41.6761L67.6288 41.7486L68.3536 42.0385V42.1835L68.6435 42.2559L69.5858 42.6908V42.8358H69.8757V42.9807L70.1656 43.0532L70.528 43.1982V43.3431H70.8179V43.4881L71.1079 43.5606L71.6877 43.8505V43.9955H71.8327V44.1404H71.6877V44.3579H71.5427L71.3253 45.0102H71.1803L71.1079 45.3001L70.6005 46.1699L70.1656 46.9672L70.0207 47.2571H69.8757L69.8032 47.6195L69.3683 48.4168H69.2234L69.1509 48.7067L69.0059 49.0691H68.861L68.7885 49.359L68.716 49.5764H68.5711L68.4986 49.8664L68.2087 50.4462H68.0637V50.7361H67.9187L67.7738 51.171L67.1215 52.2582L66.2517 53.8528H66.1067V54.1427H65.9618L65.8893 54.5051H65.7443L65.6718 54.795L65.5994 55.0125H65.4544L65.3819 55.3024L64.947 56.1721H64.8021L64.6571 56.607L63.7874 58.1291L63.28 59.0713H63.135L63.0626 59.3613L62.9901 59.5787H62.8451L62.7726 59.9411L62.6277 60.231L62.2653 60.1586L61.3955 59.7237L60.6707 59.2888L60.1634 59.0713V58.9264L59.8734 58.8539L58.8587 58.419V58.2741L58.4963 58.2016L58.2064 58.1291V57.9841L57.844 57.9117L57.4091 57.7667V57.6217L57.0467 57.5493L55.7421 57.0419L54.5824 56.607L54.075 56.3896L53.0603 56.0997L51.3208 55.5198L50.1611 55.3024V55.1574H49.6537L48.494 54.8675L47.8417 54.7225L47.1894 54.6501L47.0444 54.5776L46.3921 54.5051L45.6673 54.3601L44.7976 54.2152L43.7828 54.1427L43.5654 54.0702L42.3332 53.9977L42.1883 53.9253L38.5643 53.8528L35.2302 53.9253L35.0127 53.9977L33.7806 54.0702L33.5631 54.1427L32.1135 54.2877L31.0988 54.4326L30.9538 54.5051L30.3015 54.5776L30.1566 54.6501L29.2868 54.795L27.8372 55.0849L27.7647 55.1574H27.1849V55.3024L26.1702 55.5198L25.3729 55.7373L24.793 55.9547L23.7058 56.3171H23.2709V56.4621L22.6186 56.6795L21.6039 57.0419L20.7341 57.4043L20.2993 57.4768V57.6217H19.9369V57.7667H19.6469V57.9117L19.1396 58.1291H18.8497V58.2741L18.3423 58.4915L17.69 58.7814H17.4725V58.9264H17.1826V59.0713L16.2404 59.5787H16.0229V59.7237L15.588 59.9411H15.3706V60.0861L15.0807 60.231L14.7908 60.1586L14.2109 59.2163L13.3412 57.6217L13.0512 57.1144V56.9694H12.9063L12.5439 56.2446L12.3989 56.0272V55.8097H12.254V55.5198H12.109V55.3024H11.964L11.7466 54.8675V54.6501H11.6016L11.1668 53.8528L11.0943 53.4904H10.9493L10.442 52.6206L10.0071 51.8233L9.78963 51.4609V51.2435H9.64467L9.49971 50.7361H9.35475L9.28227 50.3737H9.13731V50.0838H8.99235L8.62995 49.4315V49.214H8.48499L8.05011 48.4168L7.47027 47.402L7.03539 46.6048L6.67298 46.0249V45.8075H6.52802L6.31058 45.1552H6.16562L6.02066 44.8652V44.6478H5.8757L5.58578 43.9955L6.16562 43.6331L6.89042 43.1982L7.54275 42.8358H7.83267V42.6908L8.55747 42.3284H8.77491V42.1835L9.28227 41.966L9.57219 41.8211H9.78963V41.6761L10.6594 41.3137L11.1668 41.0238H11.4567V40.8788L12.3989 40.5164L12.9788 40.2265H13.2687V40.0815L14.1384 39.7916L14.9357 39.4292L16.1679 38.9943L16.8927 38.7044L17.6175 38.487L18.1249 38.2695L19.1396 37.9796L19.7194 37.7622L20.5892 37.5447L21.4589 37.2548L22.5461 37.0374L22.6186 36.9649L24.0682 36.675L24.7205 36.53L24.793 36.4575L26.0252 36.2401L26.6775 36.0951L27.3298 36.0226L27.4748 35.9502L28.1996 35.8777L28.3446 35.8052L29.7942 35.5878L30.9538 35.4428L31.9686 35.3703L32.1135 35.2978L33.7806 35.2254L34.0705 35.1529L35.955 35.0804Z" fill="#071A25"/>
<path d="M37.6945 24.7882H38.0569L38.1294 33.9932L38.7092 34.0657V24.7882H39.2166L39.5065 24.8607L40.8111 25.0057L42.1158 25.2956L42.6232 25.4405V25.5855L43.1305 25.658L43.9278 25.9479V26.0929L44.5801 26.1653L45.3049 26.0204L45.3774 25.9479L46.0297 25.8754L46.1022 25.8029L46.8995 25.7305L47.0444 26.0929L47.1169 26.7452L47.4068 28.0498V28.4122H47.2619L47.1169 28.7022L46.8995 28.7746V28.9196H46.7545V29.0646H46.6096V29.2095L46.3921 29.427H46.2472V29.5719H46.1022L45.8848 30.0068H45.7398L45.5948 30.3692H45.4499L45.3049 30.7316L45.2324 30.8766H45.0875V31.1665H44.9425L44.7976 31.5289L44.5801 32.0362H44.4352L44.3627 32.3262L43.7104 33.8482L43.6379 34.2106L44.2902 34.2831V33.9932H44.4352V33.6308L44.87 32.6886L45.0875 32.1812H45.2324L45.3049 31.8913L45.9572 30.8766L46.2472 30.4417H46.3921V30.2242L46.7545 29.8618H46.8995V29.7169H47.0444V29.5719H47.1894L47.3344 29.282L47.5518 29.2095V29.0646H47.6968V28.9196L47.9142 28.8471L48.0592 28.9196V29.0646H48.2041V29.2095H48.3491L49.0014 30.0793V30.2242H49.1464L49.2188 30.5142H49.3638V30.7316H49.5088L49.9436 31.5289L50.0161 31.8188H50.1611L50.6685 32.906L50.8859 33.6308L51.1033 34.2831L51.3208 34.863V35.2978H51.6832L51.7557 35.3703L54.075 35.8052L54.7273 36.0226L55.9595 36.3126L56.6118 36.4575L57.1917 36.675L58.3514 36.9649L58.8587 37.1099V37.2548L59.3661 37.3273L60.3808 37.6172L60.8157 37.7622V37.9071L61.323 37.9796L61.5405 38.0521L76.254 38.1246V39.2843H64.8021V39.4292L65.3095 39.5742L66.2517 40.0091L67.8463 40.7339L68.2087 40.8788V41.0238L68.5711 41.0963L69.2234 41.4587L69.5133 41.5311V41.6761L69.8032 41.7486L70.673 42.1835L71.3253 42.5459V42.6908L71.6152 42.7633L71.8327 42.8358V42.9807L72.1951 43.0532L72.485 43.1982V43.3431L72.7749 43.4156L72.9924 43.4881V43.6331L73.1373 43.7055L72.9924 43.9955H72.8474L72.7749 44.3579L72.6299 44.6478H72.485L72.4125 44.9377L72.34 45.1552H72.1951L71.9776 45.8075H71.8327L71.7602 46.0974L71.3253 46.9672H71.1803L71.1079 47.2571L70.528 48.2718L70.0931 48.9966L70.0207 49.214H69.8757L69.8032 49.5764L69.3683 50.3737H69.2234L69.1509 50.6636L68.861 51.2435H68.716V51.5334H68.5711L68.4986 51.8233L68.2087 52.4032H68.0637V52.6931H67.9187L67.7738 53.0555L67.1939 54.1427L66.3966 55.5198L66.2517 55.8097H66.1067L66.0343 56.1721L65.8893 56.4621H65.7443L65.6718 56.752L65.5994 56.9694H65.4544L65.3819 57.2593L64.947 58.1291H64.8021L64.5846 58.7814H64.4397L64.3672 59.0713L63.8598 59.9411L63.7874 60.1586H63.6424L63.5699 60.4485L63.28 61.0283H63.135L63.0626 61.3907L62.8451 61.6082L62.6277 61.5357V61.3907H62.3378V61.2458L62.0478 61.1733L61.468 60.8834V60.7384H61.1781V60.5934L60.8157 60.521L60.0184 60.0861L58.9312 59.5062L58.2064 59.1438L57.9165 59.0713V58.9264H57.5541V58.7814L57.2641 58.7089L56.4669 58.3465L56.1045 58.2741V58.1291L55.7421 58.0566L54.7998 57.7667V57.6217H54.4374V57.4768L53.9301 57.4043L53.4227 57.1869L52.4805 56.9694L51.6832 56.6795L50.8134 56.4621L50.7409 56.3896L48.7115 55.9547L48.639 55.8822L48.0592 55.8097L47.9867 55.7373L46.1022 55.4473L45.2324 55.3024L45.16 55.2299L44.0728 55.1574L43.8553 55.0849L40.6662 54.8675H36.7523L33.4907 55.0849L33.2732 55.1574L32.186 55.2299L32.1135 55.3024L30.1566 55.5923L29.3593 55.7373L29.2868 55.8097L28.707 55.8822L28.1996 56.0272L27.0399 56.3171H26.5326V56.4621L25.6628 56.6795L24.8655 56.9694L23.9957 57.1869L22.9085 57.6217H22.6186V57.7667L21.8938 57.9841L20.8066 58.419L20.0093 58.7814H19.7919V58.9264L19.0671 59.2163L18.6322 59.4337H18.3423V59.5787L17.8349 59.7961L17.1101 60.231L16.3853 60.5934H16.1679V60.7384H15.878V60.8834L15.0807 61.3182L14.5008 61.6082L14.2109 61.1733V60.9558H14.066L13.6311 60.0861L13.5586 59.7961H13.4136V59.5787H13.2687L13.0512 59.1438V58.9264H12.9063L12.5439 58.2016L12.3989 57.9841V57.7667H12.254V57.4768H12.109V57.2593H11.964L11.3842 56.1721L10.442 54.5776V54.3601H10.297L9.86211 53.4904L9.78963 53.2005H9.64467L9.49971 52.6931H9.35475L9.28227 52.3307H9.13731V52.0408H8.99235L8.55747 51.2435L8.48499 50.8811H8.34003L7.83267 50.0113L7.39779 49.1416L6.9629 48.4168L6.67298 47.9819V47.7644H6.52802L6.31058 47.1121H6.16562L6.02066 46.8222V46.6048H5.8757L5.5133 45.9524V45.6625H5.36834V45.4451H5.22338L4.7885 44.5753L4.35362 43.8505L4.28114 43.6331L4.64354 43.3431H4.86098V43.1982L5.5133 42.9807V42.8358L5.80322 42.6908H6.02066V42.5459L6.45554 42.3284H6.67298V42.1835H6.9629V42.0385L8.19507 41.4587L8.48499 41.3862V41.2412L9.20979 40.8788L9.93459 40.5889L10.5869 40.2265H10.8044V40.0815L11.6016 39.7916L11.964 39.7191V39.5742L12.5439 39.4292V39.2843H1.74433V38.1246L15.878 38.0521L16.2404 37.9071H16.5303V37.7622L17.0376 37.6172L18.5597 37.1099H18.9946V36.9649L20.2268 36.675L20.8066 36.4575L21.9663 36.1676L22.7636 35.9502H23.2709V35.8052L25.0829 35.4428H25.5178L25.5903 34.7905L25.8802 33.7758L26.1702 33.051L26.3876 32.4711H26.5326V32.1812H26.6775L26.75 31.8188L27.0399 31.239H27.1849V31.0215H27.3298L27.4023 30.7316L27.6922 30.2242H27.8372L27.9822 29.9343L28.3446 29.427H28.4895L28.6345 29.137L28.9969 28.8471L29.3593 29.0646V29.2095H29.5042V29.3545H29.6492L30.0116 29.7169V29.8618H30.1566L30.3015 30.2242H30.4465L30.8089 30.7316V30.8766H30.9538L31.1713 31.239V31.3839H31.3162L31.7511 32.1812L31.9686 32.5436V32.8335H32.1135L32.5484 33.9932L32.6209 34.3556L33.2732 34.2831V33.9932H33.1283L32.8383 33.051L32.6209 32.6161V32.3262H32.4759L32.2585 31.8913V31.6738H32.1135V31.3839H31.9686L31.7511 31.0215V30.8766H31.6062L31.0988 30.1518V30.0068H30.9538V29.8618H30.8089L30.374 29.282L30.3015 29.0646L30.0116 28.9196L29.4318 28.4122L29.5042 27.7599L29.7217 26.8901L29.9391 25.7305L30.8089 25.8029V25.9479H31.4612L32.331 26.1653L32.6934 26.0929L32.9833 25.9479H33.2732V25.8029L34.2155 25.513L34.7953 25.2956L36.3899 24.9332L37.4046 24.8607L37.6945 24.7882ZM35.955 35.0804L34.0705 35.1529L33.7806 35.2254L32.1135 35.2978L31.9686 35.3703L30.9538 35.4428L29.2868 35.6602L28.3446 35.8052L28.1996 35.8777L27.4748 35.9502L27.3298 36.0226L26.3876 36.1676L25.5178 36.3126L24.793 36.4575L24.7205 36.53L23.6333 36.7475L22.6186 36.9649L21.9663 37.1823L21.314 37.3273L20.1543 37.6897L19.2845 37.9071L18.4873 38.1971L17.69 38.4145L17.1826 38.6319L16.2404 38.9219L15.3706 39.2843L14.2109 39.7191L13.5586 40.0091L13.2687 40.0815V40.2265L12.9063 40.299L12.3989 40.5164L11.4567 40.8788V41.0238L11.0943 41.0963L10.3695 41.4587L9.78963 41.6761V41.8211L9.35475 41.8935L9.06483 42.111L8.77491 42.1835V42.3284L8.48499 42.4009L7.83267 42.6908V42.8358L7.47027 42.9083L6.67298 43.3431L5.65826 43.923L5.58578 44.0679L5.8757 44.6478H6.02066L6.09314 44.9377L6.16562 45.1552H6.31058L6.52802 45.8075H6.67298L6.74546 46.0974L7.32531 47.1121L7.76019 47.8369L8.19507 48.7067L8.48499 49.214H8.62995L8.70243 49.5764L8.99235 50.0838H9.13731V50.3737H9.28227L9.35475 50.7361H9.49971L9.64467 51.2435H9.78963L9.86211 51.5334L10.3695 52.4032L10.8044 53.2005L10.9493 53.4904H11.0943L11.1668 53.8528L11.6016 54.6501H11.7466L11.8191 55.0125L11.964 55.3024H12.109V55.5198H12.254V55.8097H12.3989L12.4714 56.1721L12.6888 56.4621L12.9063 56.9694H13.0512L13.1962 57.4043L13.776 58.419L14.5733 59.7961L14.8632 60.231L15.1532 60.1586L15.3706 60.0861V59.9411L15.733 59.8686L16.0229 59.7237V59.5787L16.3128 59.5062L17.1826 59.0713V58.9264H17.4725V58.7814L17.8349 58.7089L18.5597 58.3465L18.8497 58.2741V58.1291L19.2121 58.0566L19.6469 57.9117V57.7667H19.9369V57.6217H20.2993V57.4768L20.7341 57.4043L21.8938 56.9694L22.6186 56.6795L23.2709 56.4621V56.3171H23.7058L24.793 55.9547L25.3729 55.7373L26.6775 55.3749L27.1849 55.3024V55.1574H27.7647L27.8372 55.0849L29.2868 54.795L30.1566 54.6501L30.3015 54.5776L30.9538 54.5051L31.0988 54.4326L32.6209 54.2152L33.5631 54.1427L33.7806 54.0702L35.0127 53.9977L35.2302 53.9253L38.8542 53.8528L42.1883 53.9253L42.3332 53.9977L43.5654 54.0702L43.7828 54.1427L45.3049 54.2877L46.2472 54.4326L46.3921 54.5051L47.0444 54.5776L47.1894 54.6501L48.0592 54.795L49.5088 55.0849L49.6537 55.1574H50.1611V55.3024L51.3208 55.5198L52.1181 55.8097L53.0603 56.0997L54.075 56.3896L54.9448 56.752L57.0467 57.5493L57.4091 57.6217V57.7667L57.989 57.9841H58.2064V58.1291L58.5688 58.2741H58.8587V58.419L59.9459 58.9264H60.1634V59.0713L61.323 59.6512L62.0478 60.0861L62.3378 60.231H62.6277L62.8451 59.7961V59.5787H62.9901L63.135 59.2888V59.0713H63.28L63.8598 57.9841L64.8021 56.3171V56.1721H64.947L65.3819 55.3024L65.4544 55.0125H65.5994L65.7443 54.7225V54.5051H65.8893L65.9618 54.1427H66.1067V53.8528H66.2517L66.6866 53.0555L67.4114 51.8233L67.8463 51.026L67.9187 50.7361H68.0637V50.4462H68.2087L68.5711 49.7939V49.5764H68.716L68.861 49.2865V49.0691H69.0059L69.2234 48.6342V48.4168H69.3683L69.8032 47.6195L69.8757 47.2571H70.0207L70.528 46.3873L70.9629 45.59L71.1803 45.2276V45.0102H71.3253L71.5427 44.3579H71.6877V44.1404H71.8327V43.9955H71.6877V43.8505L71.1079 43.5606L70.8179 43.4881V43.3431H70.528V43.1982L70.0931 42.9807H69.8757V42.8358H69.5858V42.6908L68.5711 42.1835H68.3536V42.0385L67.6288 41.7486L67.2664 41.6761V41.5311L66.7591 41.3137L66.1067 41.0238H65.8893V40.8788H65.5994V40.7339L64.8021 40.4439L64.4397 40.3715V40.2265L63.28 39.7916L62.2653 39.3567L61.5405 39.0668L60.8157 38.8494L59.7285 38.487L59.1486 38.2695L58.0614 37.9071H57.699V37.7622L57.1917 37.6897L55.887 37.2548L55.3797 37.1823L55.3072 37.1099L54.7998 37.0374L54.2925 36.8924L53.1328 36.6025L52.6254 36.53L52.5529 36.4575L51.3208 36.2401L50.6685 36.0951L50.0161 36.0226L49.9436 35.9502L49.1464 35.8777L49.0014 35.8052L47.5518 35.5878L46.7545 35.5153L46.5371 35.4428L45.4499 35.3703L45.3774 35.2978L43.5654 35.2254L43.2755 35.1529L41.4635 35.0804H35.955Z" fill="#E9571D"/>
<path d="M49.5812 5.43601H50.3061L50.451 5.50849L51.6107 5.58097L51.8281 5.65345L53.5677 5.79841L54.7273 5.94337L54.7998 6.01585L55.7421 6.08834L55.887 6.16082L57.0467 6.30578L59.0037 6.5957L59.0762 6.66818L59.801 6.74066L59.8734 6.81314L61.8304 7.10306L62.6277 7.3205L63.7874 7.53794L65.3819 7.90034L65.4544 7.97282L65.9618 8.0453L65.8893 9.06002L65.8168 9.1325L65.7443 9.63986L65.6718 9.71234L65.5994 10.2197L65.4544 10.7271L65.237 11.7418L65.1645 11.8143L64.947 12.974H64.8021V13.4813L64.5846 14.496L64.4397 14.786H64.0773L64.0048 14.7135L62.4827 14.4236L61.6854 14.2061L60.2358 13.9162L59.656 13.7712V13.1914L59.8734 11.8867L60.2358 11.6693H60.5258V11.5243L60.8882 11.3794H61.1056V11.1619H60.3808L60.2358 11.0895L59.2211 10.9445L58.0614 10.7271L57.4091 10.6546L57.3366 10.5821L56.5393 10.5096L56.4669 10.4371L55.3072 10.2922L54.8723 10.2197L54.7273 11.5968L54.6549 11.8143L54.5824 12.6116L54.5099 12.684L54.4374 13.6263L54.3649 13.7712L54.075 16.2356L54.0025 16.453L53.9301 17.2503L53.8576 17.3228L53.7851 18.265L53.7126 18.3375L53.5677 19.7146L53.4227 20.8018L53.3502 21.0193L53.2777 21.8165L53.1328 22.034L53.7851 22.1065L54.5824 22.1789L54.6549 22.2514L55.4521 22.3239L55.5246 22.3964L56.6118 22.5413L57.5541 22.7588L57.844 22.8313L57.9165 21.889L58.1339 21.0193L58.2064 20.4394L58.2789 20.3669L58.3514 19.7146L57.699 19.6421L55.887 19.3522L55.5971 19.2072V18.5549H55.7421V17.7576L55.8145 17.6127L56.1045 15.3658L56.1769 15.2933H56.8293L56.9017 15.3658L57.699 15.4383L57.7715 15.5108L58.7138 15.6557L59.8734 15.8007L60.0184 15.8732L60.6707 15.9456V16.0906H61.323L61.3955 16.1631L63.0626 16.453L63.135 16.5255L63.7874 16.598V16.7429L64.0048 16.8154L63.9323 17.3228L63.8598 17.3952L63.7874 17.9026H63.9323L64.2947 18.5549V18.6999H64.4397V18.9173H64.5846V19.2072H64.4397V19.3522L63.7874 19.7146H63.6424V19.8596L63.2075 20.077L63.135 20.5844L62.9176 21.1642L62.7726 22.034L62.6277 22.6863H62.4827V23.2661L62.3378 23.7735L62.1203 24.7882L62.0478 24.8607L61.9754 25.3681L61.9029 25.4405L61.8304 25.9479H61.6854V26.4553L61.468 27.47L61.323 27.7599H60.6707L60.0184 27.6149L59.511 27.5425L59.4386 27.47L58.8587 27.3975V27.2525H58.2064V27.1076H57.5541L56.1045 26.8177L55.3797 26.7452V26.6002H54.6549L54.5099 26.5277L52.1905 26.2378L52.0456 26.1653L51.1758 26.0929L51.1033 26.0204L50.1611 25.9479L50.0161 25.8754L48.3491 25.7305L47.6968 25.513L47.7692 25.1506L47.9142 23.1212L47.9867 22.6138L48.0592 21.3092L48.1316 21.1642L48.2041 19.7146L48.2766 19.6421L48.3491 17.7576H48.2041V17.5402H48.0592V17.3952H47.9142L47.6968 17.1053V16.9604H47.5518V16.7429H47.4068V16.453H47.5518V16.308L47.8417 16.0906H47.9867V15.9456L48.494 15.5832L48.5665 15.4383H48.7115V14.4236L48.784 14.2786L48.8564 12.829L48.9289 12.4666L49.2188 8.91506L49.2913 8.55266L49.3638 7.17554L49.4363 7.10306L49.5088 5.58097L49.5812 5.43601Z" fill="#E8E8E8"/>
<path d="M41.6084 5.00113L44.7251 5.07361L46.8995 5.21857L48.639 5.29105L49.0014 5.36353L48.784 5.43601V5.58097H48.494V5.72593H48.2041V5.87089L47.4793 6.2333H47.1894V6.74066L46.972 7.53794L46.5371 9.8573H46.3921V10.5096L46.3196 10.5821L46.1022 11.8143L45.9572 12.3216L45.8848 12.974H45.7398V13.6263L45.5224 14.4236L45.4499 15.2933H45.5948L45.7398 15.7282H45.8848V15.9456H46.0297L46.2472 16.308V16.598H46.1022V16.7429H45.8848V16.8879L45.3049 17.2503H45.0875V17.3952H44.9425L44.7251 18.9173L44.6526 19.0623L44.5801 19.7146H44.4352V20.3669L44.2902 21.0193L44.0728 22.3964L44.0003 22.4689L43.9278 23.1212L43.8553 23.1937L43.7828 23.9185L43.6379 24.6433L43.4929 25.0057L42.6232 24.7882V24.6433H42.1883L41.1735 24.3533L40.4487 24.2809L40.3038 24.2084L38.8542 24.1359H37.9844L36.5348 24.2084L36.3899 24.2809L35.6651 24.3533L34.6503 24.6433L34.2155 24.7882H33.7806V24.9332H33.5631L33.4182 24.4258L33.3457 23.846L33.2732 23.7735L33.2007 23.1212L33.1283 23.0487L32.8383 21.3092L32.6934 20.5844L32.6209 20.5119L32.5484 19.8596L32.4759 19.7871L32.2585 18.6274V18.0476H32.1135L32.041 17.5402L31.5337 17.1778L30.9538 16.8879V16.7429L30.6639 16.6704V16.453H30.8089V16.2356H30.9538L31.0988 15.8007L31.3162 15.4383H31.4612L31.5337 15.1484L31.6062 14.9309H31.4612L31.3887 14.2786L31.0988 13.1189L30.8814 12.0317L30.8089 11.9592L30.7364 11.4519L30.6639 11.3794L30.229 9.20498L30.1566 9.1325L30.0841 8.62514L30.0116 8.55266L29.7217 7.03058L29.5767 6.37826L29.2868 6.2333V6.08834H28.9969V5.94337L28.562 5.87089L27.9822 5.58097V5.43601L29.5767 5.36353L29.9391 5.29105L33.1283 5.07361H35.2302L35.3751 5.43601L35.5201 6.37826L35.7375 7.39298L35.81 8.0453L35.8825 8.19026L35.955 8.84258L36.0999 9.56738L36.3174 10.872L36.3899 11.017L36.4623 11.6693L36.5348 11.7418L36.6073 12.4666L36.7523 13.1189L36.9697 14.496L37.0422 14.641V15.4383H37.1871L37.2596 16.1631L37.3321 16.308L37.4771 17.5402L37.5495 17.7576V18.5549H37.6945L37.767 19.3522L37.8395 19.4972L37.9844 20.5119V21.0193H39.0716L39.2166 19.4972L39.3615 18.3375L39.434 18.265L39.5065 17.3952L39.579 17.3228L39.6515 16.5255L39.7964 15.5832L39.8689 14.9309L39.9414 14.786L40.0139 14.0612L40.0863 13.9887L40.1588 13.1914L40.3763 12.1042L40.5212 11.017L40.6662 10.0747L40.7387 10.0023L40.8111 9.20498L40.9561 8.48018L41.1735 7.10306L41.3185 6.16082L41.391 6.08834L41.4635 5.29105L41.6084 5.00113Z" fill="#E8E8E8"/>
<path d="M26.75 5.58097H27.4023L27.4748 5.72593L27.6198 7.3205L27.6922 7.53794L27.7647 8.69762L27.8372 8.84258L27.9097 10.0747L27.9822 10.3647L28.1271 11.8143V12.4666L26.3151 12.684L24.4306 12.9015L24.2857 12.974L23.1985 13.0464L23.126 12.9015L22.8361 10.5821V10.3647H21.9663V10.5096L21.169 10.5821L21.0965 10.6546L20.0093 10.7995L18.7047 11.017H17.9799V11.1619L18.2698 11.2344L19.1396 11.5243L19.4295 12.829L19.5745 13.7712L19.6469 13.9162L19.7194 14.5685L19.7919 14.641L19.8644 15.2933L19.9369 15.5832L20.6617 15.5108L20.8066 15.4383H21.6039V15.2933L22.4012 15.2208L23.3434 15.0759L24.4306 14.9309L24.5756 15.1484L24.6481 15.9456L24.7205 16.0906L24.793 16.9604L24.8655 17.1053L25.0105 18.1925L25.0829 18.9173L24.5756 19.0623L23.7783 19.1348L23.7058 19.2072L22.8361 19.2797L22.7636 19.3522L21.8938 19.4972L20.8066 19.6421L20.7341 19.8596L20.8066 20.0045L20.8791 20.6569L20.9516 20.7293L21.0241 21.3817L21.2415 22.3239V22.6863L23.1985 22.3964L23.2709 22.3239L23.9957 22.2514L24.0682 22.1789L24.8655 22.1065L25.0105 22.034L26.895 21.8165L27.8372 21.7441L27.9097 21.6716H28.4895L28.6345 22.4689L28.7794 24.3533L28.8519 24.5708L28.9244 25.7305L28.8519 25.8029L28.1271 25.8754L27.9822 25.9479L27.1849 26.0204L27.0399 26.0929L26.2426 26.1653L25.0829 26.3828L23.9233 26.5277L23.7783 26.6002L23.0535 26.6727L22.981 26.7452L22.3287 26.8177L22.2562 26.8901L21.0965 27.0351L20.9516 27.1076L20.2993 27.1801L20.2268 27.2525L18.9946 27.47L18.3423 27.6149H17.8349V27.7599H17.3276L17.1826 27.6149L17.1101 27.1076L17.0376 27.0351L16.9652 26.5277L16.8927 26.4553L16.7477 25.5855L16.6752 25.4405V24.9332H16.5303L16.4578 24.3533L16.3128 23.846L16.0229 22.6863V22.1789H15.878L15.8055 21.6716L15.6605 21.1642L15.4431 20.077L15.3706 19.8596L15.0807 19.7871L14.2834 19.2797L14.066 19.2072L13.9935 18.9898L14.066 18.7724H14.2109V18.5549H14.3559L14.4284 18.1925L14.5733 17.9026H14.7183L14.8632 17.3952H14.7183L14.6458 16.8154L14.5733 16.7429L14.5008 16.1631L14.3559 15.6557L14.1384 14.641L14.066 14.5685L13.9935 13.9887L13.8485 13.4813L13.5586 12.3941L13.4861 11.8867L13.4136 11.8143V11.3069H13.2687L12.9788 9.8573L12.9063 9.71234V9.20498H12.7613L12.5439 8.0453L12.9788 7.90034L15.1532 7.46546L15.2256 7.39298L15.878 7.3205L15.9504 7.24802L17.6175 6.9581L18.4873 6.81314L18.5597 6.74066L19.2845 6.66818L19.357 6.5957L22.4737 6.16082L22.6186 6.08834L23.4159 6.01585L23.5609 5.94337L24.5756 5.87089L25.5903 5.72593L26.5326 5.65345L26.75 5.58097Z" fill="#E8E8E8"/>
<path d="M36.6798 1.59456L37.0422 1.66704L37.5495 2.24689L37.6945 2.31937V2.46433H37.8395L38.2019 2.82673V2.97169H38.3468V3.11665H38.7092V2.97169H38.8542V2.82673H38.9991L39.0716 2.60929H39.2166V2.46433H39.3615V2.31937H39.5065V2.17441H39.6515L39.7239 1.95696H39.8689V1.812H40.0139V1.66704L40.1588 1.59456L45.7398 1.66704L45.8848 1.73952L47.8417 1.812L48.2041 1.88448L50.8134 2.10193L51.9731 2.24689L52.9878 2.31937L53.1328 2.39185L54.1475 2.46433L55.6696 2.68177L56.9017 2.82673L57.0467 2.89921L57.844 2.97169L57.989 3.04417L59.511 3.26161L60.7432 3.47905L60.8157 3.55153L61.5405 3.62401L61.613 3.69649L63.28 3.98641L63.9323 4.13137L64.0048 4.20385L64.5846 4.27633L64.6571 4.34881L66.1067 4.63873L66.7591 4.78369V4.92865H67.2664L68.3536 5.21857L69.3683 5.43601V5.58097H69.8032L70.2381 5.72593L70.1656 6.2333L69.9482 6.88562L69.5133 8.7701L69.4408 8.84258L69.3683 9.34994H69.2234V9.8573L68.9335 10.872L68.716 11.8143L68.4261 12.829L68.2087 13.8437H68.0637V14.4236L67.6288 15.9456L67.4114 16.8879L67.2664 17.3952L67.1939 17.7576L67.4114 18.1925V18.41H67.5563L67.9187 19.0623V19.2072H68.0637V19.4972H68.2087V19.7146H68.3536L68.4261 20.222L67.1939 20.9468L66.904 21.0193V21.1642L66.2517 21.5266L66.0343 22.1789L65.8168 22.9762L65.7443 23.4836H65.5994V23.9909L65.3095 25.0057L65.092 25.9479L64.8746 26.6002L64.5846 27.9049L64.3672 28.5572L64.2222 29.2095L64.0048 30.0068L76.254 30.0793V31.239H63.6424L63.5699 31.6738L63.4974 32.0362L61.6854 31.6738L61.1781 31.5289V31.3839L60.5258 31.3114L59.8734 31.094L59.3661 31.0215V30.8766H58.8587L57.9165 30.5866L57.4091 30.5142L57.3366 30.4417L56.7568 30.3692V30.2242H56.2494L55.6696 30.0793L54.4374 29.8618L54.3649 29.7894L53.6401 29.7169L53.5677 29.6444L51.6832 29.3545L51.4657 29.282L50.6685 29.2095V29.0646H49.6537L49.0014 28.9196V28.7746H48.8564L48.494 28.4122V28.2673H48.3491V28.1223H48.2041L47.9867 27.9049V27.7599H48.9289L49.0014 27.8324L50.0161 27.9049L50.1611 27.9773L51.4657 28.1223L52.6254 28.3398L53.3502 28.4122L54.075 28.5572L54.1475 28.6297L55.887 28.9196L55.9595 28.9921L56.5393 29.0646L56.6118 29.137L58.0614 29.427L58.7138 29.6444L59.2211 29.7169L59.8734 29.9343L61.0331 30.2242L61.613 30.4417L62.7726 30.7316L62.8451 29.9343L63.0626 29.3545L63.135 28.8471L63.2075 28.7746L63.28 28.2673L63.425 27.7599L63.6424 26.7452H63.7874V26.2378L63.9323 25.7305L64.2222 24.7882L64.4397 23.701L64.8746 22.1789L64.947 21.6716H65.092V21.1642L65.3095 20.7293L65.6718 20.5119H65.8893V20.3669H66.1067V20.222L66.5416 20.0045H66.7591V19.8596L66.9765 19.7871L66.904 19.3522H66.7591L66.2517 18.4824V18.265H66.1067L65.9618 17.7576L66.1792 17.1053L66.2517 16.598H66.3966V16.0906L66.6866 15.1484L66.7591 14.641H66.904V14.1336L67.049 13.6263L67.2664 12.684L67.4839 12.1042L67.7738 10.872L67.9187 10.2197L67.9912 10.1472L68.0637 9.63986L68.2811 8.98754L68.5711 7.6829L68.6435 7.61042L68.716 7.10306L68.861 6.5957L68.0637 6.30578L67.5563 6.2333V6.08834H67.1215L66.6141 5.94337L65.4544 5.65345L64.947 5.58097L64.8746 5.50849L64.1498 5.36353L62.6277 5.07361V4.92865H61.9754V4.78369H61.323L60.5258 4.63873L59.8734 4.49377L59.2211 4.42129L59.0762 4.34881L58.3514 4.27633L58.2064 4.20385L56.032 3.91393L55.8145 3.84145L55.0173 3.76897L54.9448 3.69649L53.9301 3.62401L53.7851 3.55153L50.8859 3.26161L50.6685 3.18913L49.2188 3.11665L49.0014 3.04417L47.4068 2.97169L47.0444 2.89921L43.058 2.75425H40.5212L40.3038 2.97169H40.1588L40.0139 3.26161L39.6515 3.62401H39.5065L39.3615 3.91393L38.9991 4.27633H38.8542L38.7092 4.56625L38.4918 4.71121L38.1294 4.42129V4.27633L37.8395 4.13137V3.98641H37.6945V3.84145L37.4046 3.69649L37.3321 3.47905L37.0422 3.33409L36.6798 2.97169L36.3899 2.75425H35.5926L32.1135 2.89921L31.6062 2.97169L30.0116 3.04417L29.7942 3.11665L28.1996 3.18913L25.7353 3.47905L24.8655 3.55153L24.7205 3.62401L23.6333 3.69649L23.5609 3.76897L22.7636 3.84145L21.8938 3.98641L20.2993 4.20385L20.1543 4.27633L19.4295 4.34881L18.4873 4.56625L17.3276 4.78369H16.6752V4.92865L16.0954 5.00113L16.0229 5.07361L13.7036 5.50849L13.6311 5.58097L13.1237 5.65345L13.0512 5.72593L11.6016 6.01585L11.5292 6.08834H11.0943V6.2333L9.78963 6.52322L10.0796 7.6829L10.3695 8.98754L10.442 9.06002L10.6594 10.1472L10.8768 11.0895L10.9493 11.1619L11.0218 11.7418L11.0943 11.8143L11.3117 12.829L11.5292 13.7712L11.6016 13.8437L11.6741 14.4236L11.8916 15.0759L12.1815 16.5255L12.254 16.598L12.4714 17.6852L12.3989 18.1925L11.8916 19.0623H11.7466L11.6741 19.3522L11.6016 19.5696H11.4567V19.8596L11.7466 19.932L12.5439 20.3669V20.5119L12.8338 20.5844L13.1962 20.8018L13.4861 21.9615L13.5586 22.034L13.776 23.1212L13.9935 24.1359L14.066 24.2084V24.7882H14.2109L14.6458 26.8177L14.7183 26.8901L14.7908 27.47L15.0082 28.0498L15.1532 28.9196L15.2256 29.0646V29.5719H15.3706L15.4431 30.0793L15.5156 30.1518L15.588 30.6591L16.2404 30.5866L16.8927 30.4417L17.4725 30.2242L18.8497 29.8618L19.357 29.7169L19.9369 29.6444L20.5892 29.427L21.4589 29.282L22.1113 29.137L22.1837 29.0646L23.4159 28.8471L24.5756 28.6297L24.7205 28.5572L25.3729 28.4847L25.5178 28.4122L26.3151 28.3398L27.5473 28.1223L28.0546 28.0498H28.6345L28.4895 28.1223V28.2673H28.3446V28.4122H28.1996L27.9822 28.8471H27.8372L27.6922 29.2095L27.3298 29.3545L25.2279 29.6444L25.0829 29.7169L24.4306 29.7894L23.5609 30.0068L21.8938 30.2967L21.8213 30.3692L21.314 30.4417L20.8066 30.5866L19.2121 30.949L18.6322 31.1665L17.3276 31.4564L16.6752 31.6738L15.733 31.8913L14.8632 32.1087L14.7183 32.0362L14.5733 31.239H1.74433V30.0793L14.2834 30.0068L14.2109 29.8618V29.3545H14.066L13.9935 28.7746L13.8485 28.2673L13.5586 27.1076V26.6002H13.4136L13.1962 25.513L12.9788 24.4983L12.9063 24.4258L12.8338 23.9185L12.7613 23.846L12.5439 22.7588L12.254 21.6716V21.4541L11.8191 21.3092L11.6016 21.1642V21.0193H11.3117V20.8743H11.0943V20.7293L10.7319 20.5844L10.0796 20.222L10.0071 20.0045L10.152 19.7146H10.297L10.3695 19.4247L10.442 19.2072H10.5869L10.6594 18.9173L10.8044 18.5549H10.9493V18.3375H11.0943L11.1668 18.0476L11.2392 17.9026V17.3952L11.0218 16.3805L10.9493 16.308L10.8768 15.8007L10.8044 15.7282L10.5144 14.2786L10.442 14.1336V13.6263H10.297L10.0796 12.5391L9.86211 11.5243L9.78963 11.4519L9.71715 10.9445L9.64467 10.872L9.20979 8.84258L9.13731 8.7701V8.19026H8.99235L8.70243 6.74066L8.48499 6.08834V5.72593L9.35475 5.50849L9.93459 5.29105L11.1668 5.00113L11.8191 4.78369L13.2687 4.49377L13.921 4.27633L14.5733 4.20385L14.6458 4.13137L15.3706 3.98641L16.3853 3.76897H17.0376V3.62401H17.8349V3.47905L18.7772 3.33409L19.8644 3.11665L20.6617 3.04417L20.8066 2.97169L21.5314 2.89921L21.6039 2.82673L22.7636 2.68177L24.0682 2.53681L24.2857 2.46433L25.3729 2.39185L25.5178 2.31937L26.5326 2.24689L26.8225 2.17441L29.4318 1.95696L30.6639 1.88448L30.9538 1.812L33.6356 1.73952L33.7806 1.66704L36.6798 1.59456Z" fill="#E9571D"/>
<path d="M37.9844 37.7622H38.8542L39.0716 37.8347L42.8406 37.9071L43.348 38.0521L43.7104 38.9219L43.9278 39.4292V39.7191H44.0728L44.3627 40.6614L44.4352 41.0238H44.5801L44.87 42.0385L45.0875 42.6183V42.9807H45.2324L45.4499 43.7055V43.9955H45.5948V43.8505H45.7398L45.8123 43.5606L46.2472 42.8358H46.3921L46.4646 42.5459L46.7545 42.0385H46.8995L46.972 41.7486L47.0444 41.5311H47.1894L47.3344 41.1687L47.4068 41.0238H47.5518L47.6968 40.5889L47.9867 40.2265L48.0592 40.0815H48.2041V39.8641H48.3491L48.494 39.5017L48.8564 38.9219H49.0014V38.7044L50.0161 38.7769L50.1611 38.8494L50.8134 38.9219L50.8859 38.9943L51.6107 39.0668L52.7704 39.3567L53.9301 39.5742L54.0025 39.6467L54.5824 39.7191L54.9448 39.8641L54.7273 40.0091L53.7851 40.3715L53.0603 40.6614L52.7704 41.966L52.6979 42.0385L52.4805 43.1982L52.263 44.1404L52.3355 44.6478H52.4805L52.6254 44.9377V45.1552H52.7704L52.9878 45.6625L52.9153 45.8075L52.1181 46.2424L51.8281 46.3148V46.4598H51.6832L51.6107 47.1121H51.4657V47.6195L51.3208 48.2718H51.1758V48.7792L51.0309 49.359L50.8134 50.4462L50.7409 50.5187L50.6685 51.026L50.5235 51.5334L50.3061 52.3307L49.8712 52.2582L49.2913 52.1857V52.0408H48.639L48.5665 51.9683L47.1894 51.7508L46.827 51.6059L46.8995 50.6636L46.972 50.5912L47.0444 49.8664L47.1169 49.7939L47.2619 48.6342L47.4068 47.6195H47.5518L47.4793 46.9672L47.0444 47.7644H46.8995L46.827 48.0544L46.5371 48.7067H46.3921V48.9241H46.2472L46.1747 49.2865L45.9572 49.7214L45.7398 49.7939L44.87 49.7214L44.7976 49.6489L43.7828 49.5764L43.4929 48.2718L43.4204 48.1993V47.7644H43.2755L43.203 47.2571L42.9856 46.6772L42.9131 46.4598L42.8406 46.7497L42.7681 48.6342L42.6956 48.7067L42.6232 50.5912L42.4782 51.171L41.4635 51.0985L38.9991 51.026L38.9267 45.4451L38.4918 45.0102V44.8652L38.2743 44.7928V44.6478H38.1294V44.5028L37.8395 44.3579L38.2743 43.8505L38.9267 43.1982L38.9991 38.5595L38.6367 38.4145L38.3468 38.1971V38.0521L37.9844 37.9071V37.7622Z" fill="#E8E8E8"/>
<path d="M35.5926 37.7622H35.7375V37.9071H35.5926L35.4476 38.1971L35.2302 38.487H35.0852L34.8678 38.9219H34.7228L34.8678 39.3567L35.0852 40.4439V41.0238H35.2302L35.3027 41.6036L35.3751 41.6761L35.7375 43.4881L36.0999 43.6331L37.0422 44.2129L36.9697 44.5028L36.8972 44.6478H36.7523L36.6798 45.0102H36.5348V45.3001H36.3899V45.4451H36.2449L36.3174 46.2424L36.3899 46.3148L36.4623 46.9672L36.5348 47.0396L36.7523 48.3443L36.9697 49.5764L37.0422 49.7214L37.1147 50.4462L37.1871 50.5187V51.026L34.6503 51.2435H33.5631L33.3457 50.2288L33.1283 49.5764V49.4315L32.331 49.504L32.186 49.5764L31.3162 49.6489L31.2438 49.7214H30.5914L30.6639 49.8664V51.7508L29.3593 51.9683L29.2868 52.0408H28.6345V52.1857L27.5473 52.4032H27.1849L27.0399 52.1857L26.9674 50.8811L26.895 50.5912L26.6775 47.9819V47.1121L26.3876 46.9672L26.0252 46.7497V46.6048H25.8802V46.4598H25.7353V46.3148L25.5178 46.2424L25.5903 45.88L25.7353 45.6625H25.8802L26.0252 45.3726L26.4601 44.8652L26.3876 44.5028L26.3151 42.6183L26.2426 42.0385L26.1702 40.5164L26.0977 40.299L25.8802 40.2265V40.0815L25.4454 40.0091L24.8655 39.7191V39.5742L24.5756 39.5017L24.4306 39.3567L25.2279 39.2118L26.0252 39.1393L26.1702 39.0668H27.1849V38.9219L28.0546 38.8494L28.1996 38.7769L29.6492 38.6319L30.6639 38.487L30.8089 38.4145L31.8236 38.342L31.9686 38.2695L32.7659 38.1971L34.6503 37.9071L35.5201 37.8347L35.5926 37.7622Z" fill="#E8E8E8"/>
<path d="M56.2494 40.3715H56.6843L57.4816 40.6614L57.844 40.7339V40.8788H58.2789L58.8587 41.0963L59.7285 41.3862L60.2358 41.6036L61.1056 41.8935L61.9754 42.2559L62.7726 42.6183L63.3525 42.8358L64.0048 43.1257L64.2947 43.1982V43.3431H64.5846V43.4881L64.947 43.5606L65.6718 43.923L65.9618 43.9955V44.1404L66.3242 44.2129L67.049 44.5753L66.9765 44.9377L66.3966 46.1699L66.2517 46.4598H66.1067L66.0343 46.8222L65.7443 47.4745H65.5994L65.5269 47.8369L65.237 48.5617H65.092L65.0195 48.8516L64.947 49.0691H64.8021L64.7296 49.4315L63.9323 50.8811L62.8451 50.9536L62.7002 51.026L61.5405 51.0985L60.2358 51.2435L59.3661 51.316L59.2211 51.3884L58.2789 51.4609L58.2064 51.5334L57.4091 51.6059L56.9017 51.6784L56.6843 52.4032L56.2494 53.5629L56.1045 53.9977L55.887 54.0702L55.5971 53.9977V53.8528L55.0897 53.7803L54.075 53.4904V53.3454H53.6401L53.1328 53.128L52.6254 52.983V52.4757L52.7704 52.0408L52.9878 51.2435L53.1328 50.7361H53.2777V50.3012L53.4227 49.8664L53.6401 49.0691L53.7851 48.5617H53.9301V48.1268L54.1475 47.2571L54.075 46.7497H53.9301V46.4598H53.7851V46.2424H53.6401V45.9524H53.4952L53.6401 45.6625L54.075 45.4451H54.2925V45.3001L54.5824 45.1552H54.7998V45.0102H54.9448V44.6478H55.0897V44.2129L55.2347 43.778L55.5971 42.4734L55.8145 41.966L55.9595 41.3137L56.1045 40.7339H56.2494V40.3715Z" fill="#E8E8E8"/>
<path d="M21.7489 40.2265L21.9663 40.4439L22.1837 41.3137L22.4012 41.8935L22.6911 43.0532L22.9085 43.6331L23.126 44.4304V44.8652L22.2562 45.1552L21.3865 45.3726L20.8066 45.59L20.2993 45.6625V45.8075L19.6469 45.9524V45.8075H19.502L19.2121 44.8652L19.1396 44.7928V44.4304L18.4873 44.5028V44.6478L17.8349 44.8652L16.8927 45.2276L16.4578 45.4451H16.1679L16.3853 46.0974L16.5303 46.3873V46.6772H16.6752L17.0376 47.6195L17.545 48.7067L18.2698 50.4462L18.4873 50.8811V51.171H18.6322L18.9221 51.8958L19.8644 51.6059L19.9369 51.5334H20.2993V51.3884L21.314 51.026L21.169 50.4462L20.9516 49.8664V49.5764H20.8066L20.7341 49.0691H20.9516V48.9241H21.314V48.7792L22.0388 48.5617H22.4012V48.4168L23.2709 48.1993L23.9233 47.9819H24.2132L24.5031 49.1416L24.7205 49.7214L25.0829 51.026V51.3884H25.2279V51.8958H25.3729L25.5903 52.9105L24.938 53.128L24.3581 53.3454H23.9233V53.4904L22.9085 53.7803L22.8361 53.8528H22.4737V53.9977H22.1113V54.1427L21.169 54.4326L20.8066 54.5051V54.6501L19.8644 55.0125H19.6469V55.1574H19.2845V55.3024H18.9946V55.4473L18.4873 55.5198V55.6648H18.1973V55.8097H17.8349V55.9547L17.0376 56.3171L16.6752 56.2446L16.1679 55.2299V55.0125H16.0229V54.7225H15.878L15.3706 53.7078V53.4904H15.2256L15.0082 52.9105V52.6931H14.8632L14.7183 52.4032V52.1857H14.5733V51.8958H14.4284L14.2834 51.3884L13.5586 51.2435L12.9063 51.026V50.7361H13.0512L13.1237 50.0113L13.1962 49.8664V49.359L12.9063 48.7792V48.5617H12.7613V48.2718H12.6164L12.254 47.547V47.2571H12.109L11.7466 46.5323V46.3148H11.6016L11.3842 45.8075L11.2392 45.5176V45.3001H11.0943V45.0102H10.9493L10.8768 44.6478L10.9493 44.5028L11.964 43.9955H12.254V43.8505L12.7613 43.6331L13.0512 43.4881H13.2687V43.3431L14.4284 42.9083L15.2256 42.5459L15.733 42.3284H16.0229V42.1835H16.3853V42.0385L17.3276 41.7486L18.4873 41.3137L19.2121 41.0238H19.6469V40.8788L21.6764 40.299L21.7489 40.2265Z" fill="#E8E8E8"/>
<path d="M59.3661 44.6478H59.7285L60.3808 44.9377L61.3955 45.3001L61.8304 45.5176L61.7579 45.8075L61.468 46.6048H61.323L61.2506 46.9672L60.8157 47.9094L59.2211 48.0544L58.8587 48.1268H58.2064L58.7138 46.6048L58.9312 46.0249L59.2211 45.1552L59.3661 44.6478Z" fill="#071A25"/>
<path d="M30.8089 41.3862H30.9538L31.1713 42.0385L31.3162 42.5459V42.9807H31.4612L31.6786 43.8505L31.9686 44.7928L32.1135 45.3001V45.8075H32.2585L32.331 46.4598H31.6062V46.6048L30.5914 46.6772L30.519 45.4451V41.5311L30.8089 41.3862Z" fill="#071A25"/>
<path d="M69.2234 33.1234H69.8757V33.3409H70.0207L70.2381 33.9932L70.3831 34.2106L70.7455 33.3409L70.8179 33.1234H71.4703V35.8052H70.8179L70.7455 35.0079L70.673 35.2978H70.528V35.4428H70.1656V35.2978H70.0207V34.9354H69.8757V35.8052H69.2234V33.1234Z" fill="#E8E8E8"/>
<path d="M11.7466 33.1234H13.5586V35.8052H11.7466V33.1234Z" fill="#E8E8E8"/>
<path d="M64.5122 33.1234H66.2517L66.3242 33.1959V34.0657L66.2517 34.1382H65.6718V33.7758H65.1645V35.2978H65.6718V34.9354L65.3095 34.863V34.2831H66.2517L66.3242 34.3556V35.8052H64.4397V33.1959L64.5122 33.1234Z" fill="#E8E8E8"/>
<path d="M67.1939 33.1234H68.4261L68.5711 33.7758L68.716 34.718L68.7885 35.8052H68.0637V35.4428L67.5563 35.5153L67.4114 35.8052H66.7591L66.8315 35.2978L66.904 34.2831L66.9765 34.1382L67.049 33.3409L67.1939 33.1234Z" fill="#E8E8E8"/>
<path d="M7.32531 33.1234H7.97763L8.19507 33.4858V33.6308H8.34003L8.41251 33.7758L8.48499 33.1234H9.20979V35.8052H8.48499L8.41251 34.7905L8.05011 34.2831L7.97763 35.8052H7.32531V33.1234Z" fill="#E8E8E8"/>
<path d="M4.86098 33.1234H5.58578L5.65826 35.2978H6.02066V33.1234H6.74546V35.8052H5.29586L5.07842 35.5878V35.4428H4.93346L4.86098 35.2978V33.1234Z" fill="#E8E8E8"/>
<path d="M58.4963 33.1234H59.0762L59.1486 33.1959V34.2831H59.8734V33.1234H60.5258V35.8052H59.8734V34.9354H59.1486V35.8052H58.4963V33.1234Z" fill="#E8E8E8"/>
<path d="M16.4578 33.1234H17.0376L17.1101 33.2684L17.1826 34.3556L17.4725 34.2831L17.545 33.1959L17.6175 33.1234H18.1973L18.2698 33.1959V34.3556L17.9799 34.5006L18.1973 35.2978H18.3423V35.5878H18.4873V35.8052H17.69L17.4001 35.1529H17.1826L17.1101 35.8052H16.4578V33.1234Z" fill="#E8E8E8"/>
<path d="M14.066 33.1234H15.878V34.1382H15.3706L15.2981 33.7758H14.7183V35.2978H15.3706V34.7905H15.878V35.8052H14.066V33.1234Z" fill="#E8E8E8"/>
<path d="M61.1056 33.1234H62.7002L62.7726 33.1959V33.9932L62.7002 34.1382H62.1203L62.0478 33.7758H61.7579L61.6854 34.2831H62.1928L62.2653 34.3556V34.863L62.1928 34.9354H61.6854V35.2978H62.6277V35.8052H61.0331V33.1959L61.1056 33.1234Z" fill="#E8E8E8"/>
<path d="M72.1226 33.1234H73.6447V34.1382H73.1373V33.7758H72.7749L72.7024 34.2831H73.2098L73.2823 34.4281V34.863L73.2098 34.9354H72.7024V35.2978H73.6447V35.8052H72.0501V33.1959L72.1226 33.1234Z" fill="#E8E8E8"/>
<path d="M56.1769 33.1234H58.0614V33.7033L57.5541 33.7758L57.4816 35.8052H56.7568V33.7033H56.1045V33.1959L56.1769 33.1234Z" fill="#E8E8E8"/>
<path d="M9.78963 33.1234H10.442V35.2978H11.3117V35.8052H9.78963V33.1234Z" fill="#E8E8E8"/>
<path d="M12.3989 33.7033H12.8338L12.9063 33.7758V35.2978H12.3989V33.7033Z" fill="#071A25"/>
<path d="M67.7013 33.7758L67.9187 33.8482V34.863H67.5563L67.7013 33.7758Z" fill="#071A25"/>
</svg>
