<svg width="78" height="64" fill="none" xmlns="http://www.w3.org/2000/svg"><path d="M34.868 0h2.681v.145l.29.145.508.507.217.073.145-.218h.145V.507H39V.362L39.362 0h3.044l.87.072 2.754.073 3.334.217.217.073 1.305.072.072.073 1.233.072 1.304.145 1.812.218.145.072.942.073.145.072 2.32.29.87.145.072.073.725.072.725.145 1.884.362.797.218 1.522.29.798.217 1.16.29.797.218.507.072v.145l.652.072 1.16.29.072.073.508.072.652.218.363.145v.435l-.218.652-.072.507h-.145v.508l-.29.942-.073.507h-.145v.508l-.434 1.522-.218 1.014-.145.508-.217.942-.218.58-.217 1.015-.218.942-.072.072-.073.508h-.145l-.072.652-.218.797v.363l.29.435v.217h.145v.29h.145l.363.652v.145h.145l.362.725v.145h.145v.29h.145v.29l-.362.072v.145h-.29v.145l-.87.508h-.218v.145l-.652.362h-.217v.145l-.29.145h-.218v.362l-.217.653-.29 1.304-.218.652-.144.653-.29 1.232-.073.073-.072.507h-.145v.652h11.742v4.277h-2.537l.072 3.623h2.392l.073.145v4.277l-6.161.072.797.435 1.16.652v.146h.29v.144l.362.073v.145l.29.072.217.073v.145l.435.145.073.217-.29.435-.073.217h-.145l-.072.29-.145.363h-.145l-.072.29-.073.217h-.145l-.145.435-.217.435h-.145l-.073.29-.29.58h-.145l-.072.29-.073.217h-.145l-.072.363-.145.29h-.145v.217h-.145v.29h-.145l-.072.362h-.145v.29h-.145l-.073.29-.362.58-.073.29h-.145l-.145.435-.507.87h-.145l-.072.362-.145.29h-.145l-.073.29-.072.217h-.145l-.073.363-.145.29h-.145l-.072.29-.073.217h-.145l-.217.652h-.145l-.072.29-.435.87h-.145l-.145.435-.58.942-.29.58h-.145v.29h-.145l-.072.29-.29.58h-.145v.29h-.145l-.073.29-.29.58H65.6v.289h-.145l-.072.29-.145.362h-.145v.218h-.145v.29h-.145l-.217.652h-.145v.218h-.145l-.073.29-.29.652h-.145v.217h-.145l-.072.29-.073.145h-.362v-.145l-.362-.145-.145-.072v-.145l-.363-.145-.87-.58-.217-.073v-.145l-.652-.217v-.145h-.218v-.145h-.29v-.145l-.652-.217v-.145l-.362-.073-1.015-.507-.29-.073v-.145l-.435-.072-.362-.145v-.145h-.363v-.145l-.362-.072-.87-.29-.87-.363-.942-.29-.507-.217-1.522-.435v-.145h-.435l-.652-.217-1.233-.29-.072-.073-2.9-.58-.072-.072-2.174-.29-1.305-.145-.217-.072h-5.871l-.29.072-1.305.072-1.812.218-.942.145-.072.072-.798.073-.072.072-2.32.435-.072.073-.507.072-.435.145-.87.218-.073.072h-.434v.145l-1.015.29-.145.072h-.435v.145l-.942.29-.87.29-.87.363-.507.217h-.29v.145l-1.16.435-.362.072v.145l-.725.29-.362.073v.145l-.508.217-.29.145h-.217v.145h-.29v.145l-1.16.58-.725.435h-.144v.145h-.29v.145h-.218v.145l-.435.217h-.145v.145l-.362.145v-.145h-.145l-1.015-1.812v-.145h-.145l-.435-.87-.072-.29h-.145l-.217-.652h-.145l-.145-.29v-.217h-.145l-.363-.653v-.217h-.145v-.29h-.145l-.434-.797-.435-.725-.145-.435h-.145l-.218-.507-.145-.218v-.217h-.145v-.218h-.145v-.29h-.145l-.072-.362H8.63v-.29h-.145v-.217H8.34l-.217-.435v-.218h-.145v-.29h-.145v-.217h-.145l-.218-.435v-.217h-.145l-.435-.798-.217-.362v-.217h-.145l-.362-.725v-.145H6.02l-.145-.29v-.218H5.73l-.218-.434v-.218h-.145l-.145-.29v-.217h-.145l-.217-.435v-.218h-.145v-.217h-.145l-.217-.435v-.217h-.145l-.435-.798-.218-.362v-.217h-.145l-.362-.725v-.145h-.145v-.29h-.145l-.362-.652v-.218h-.145v-.29h-.145v-.217l.797-.435.58-.362H3.7v-.145l.58-.29.29-.073v-.145h.29v-.145l.652-.362h.218v-.145H.15v-4.276l.217-.145h2.827l.072-3.624H.15v-4.277h12.104l-.072-.507-.073-.073-.217-1.087-.29-1.087-.073-.507-.217-.653-.29-1.45-.073-.072-.072-.507-.218-.145v-.145h-.217v-.145l-.29-.072-1.377-.798-.29-.145v-.145l-.29-.072-.362-.218.072-.362.435-.797h.145v-.218h.145l.145-.435.217-.362h.145v-.29h.145l.073-.362H9.5l.072-.653-.29-1.16-.145-.507v-.507h-.145l-.072-.58-.29-1.015v-.507h-.145v-.652H8.34l-.435-2.03-.072-.072-.218-1.015-.29-1.16v-.507H7.18L6.963 6.45l-.218-1.015-.072-.072v-.58l-.145-.073.652-.29.943-.217.58-.218 1.232-.29.58-.217 1.232-.29.724-.145.073-.072.507-.073.073-.072 1.594-.29.073-.073 1.232-.217 1.305-.29.652-.073.145-.072h.725v-.145l.652-.072.145-.073 2.102-.29.217-.072.798-.073.072-.072.87-.073.217-.072L25.59.725 27.04.58l.145-.073L28.49.435l.217-.073 2.9-.217 2.536-.073.725-.072zm.507.362-.652.073-3.117.072-.145.073-1.45.072-.362.073-2.32.145-.29.072-.941.073-.218.072-1.16.073-.144.072-.798.073-.87.145-1.739.217-.073.073-.797.072-.145.072-.797.073-1.377.29-.652.072-.145.073-.653.072v.145h-.652l-1.087.218-.073.072-.652.073v.145h-.507l-1.16.29-.942.217-.653.217-1.232.29-.072.073-.508.072v.145h-.435l-.434.145-.87.218-.218.145.145.942.073.072.072.508.145.507.29 1.087.073.508.072.072.073.508.072.072.29 1.45.073.072.072.58.217.652.29 1.45.073.072.072.508.145.507.29 1.087.073.508.072.072.073.507.072.073.145.87-.072.29H9.79v.217h-.145l-.435.797-.073.29h-.145l-.217.435v.218H8.63l-.29.507v.217l.435.29h.217v.145l.798.435.29.218h.217v.145l.58.29.29.217.217.797.073.508.072.072.073.58h.145v.507l.29 1.015.072.58h.145v.58l.145.507.362 1.45H.585v3.551H3.7l-.072 2.102-.073.725v1.594H.585v3.624l6.523.073-1.522.797-.725.435-.435.218v.145H4.21v.144l-.363.073-.29.145v.145l-.29.072-.217.073v.145l-.435.145v.217h.145l.073.29.072.217h.145l.072.29.145.363h.145v.29h.145v.217h.145l.145.435.87 1.522.507.942h.145l.073.29.072.218h.145l.073.362.145.29h.145l.072.29.073.217h.145l.217.653h.145v.217h.145l.072.29.218.363.072.29h.145l.145.434.58.943.29.58h.145l.072.362.435.797h.145v.29h.145l.073.362.29.508h.145v.29h.145l.072.29.29.58h.145l.072.29.435.87h.145l.073.29.942 1.666.145.29h.145l.072.362.145.29h.145l.073.29.072.218h.145l.073.29.145.362h.145v.218h.145v.29h.145l.217.652h.145v.217l.435-.072.217-.145v-.145l.29-.073.363-.145v-.145h.217v-.145h.29v-.145l.652-.217v-.145l.29-.072.218-.073v-.145l.362-.072.29-.145v-.145l.362-.073 1.305-.58 1.16-.58 1.16-.434.797-.363.942-.29v-.145h.362v-.145h.363l.725-.29.362-.072v-.145h.507v-.145h.363l.435-.145.87-.217.072-.073.507-.072v-.145l.652-.073.798-.145.072-.072.653-.073v-.145h.652l.942-.217 1.16-.145.145-.072.87-.073.145-.072 1.377-.145 3.261-.145h1.595l2.826.145 1.16.145.145.072.797.072 2.175.435.58.073.072.072.508.073 1.014.29h.435v.145h.508v.145l1.232.29.58.217h.434v.145l1.015.29.508.072v.145l1.014.363h.29v.145l.652.217.943.363.362.072v.145l.507.218.653.29h.217v.144l1.232.58.725.435h.218v.145h.217v.145l.652.362h.145v.145h.218v.145l.362.218h.145v.145l.29.145.29-.073.217-.362v-.218h.145v-.29h.145l.29-.58.073-.29h.145v-.29h.145l.072-.362h.145v-.29h.145v-.217h.145v-.29h.145l.073-.362h.144v-.29h.145l.363-.653v-.217h.145v-.29h.145l.507-.87.435-.797.072-.29h.145l.435-.87.073-.29h.145l.145-.29v-.217h.145l.217-.435v-.217h.145l.435-.87.072-.29h.145l.725-1.305.435-.724v-.218h.145l.29-.58.072-.29h.145v-.29h.145l.363-.652v-.217h.145v-.29h.145l.362-.652v-.218h.145l.435-.87.435-.724.29-.435v-.218h.145l.217-.652h.145l.145-.29v-.218h.145l.217-.652h.145l-.072-.217-.218-.145h-.217v-.145l-.29-.145h-.217v-.145l-.435-.218h-.218v-.145l-.797-.434-.29-.218h-.217v-.145l-.653-.217v-.145h-.29v-.145l-.652-.29 7.176-.073.072-.072v-3.48l-.072-.072-2.392-.072-.073-4.349h2.465l.072-.072v-3.48H65.6l.073-.507.217-.652.29-1.305.073-.072.072-.508.435-1.522.218-1.014.144-.508.218-.58.217-.072v-.145l.29-.072.363-.145v-.145l.29-.073.217-.072v-.145l.652-.218v-.145l.363-.145.435-.217v-.29h-.145v-.218h-.145v-.29h-.145l-.145-.362-.87-1.594h-.145l-.072-.435.217-.653.073-.507.217-.652.217-.87v-.507h.145l.073-.508.145-.507.29-.942.072-.508.218-.652.29-1.305.072-.145v-.507h.145l.217-1.015.218-.87.072-.072v-.507h.145l.218-1.015.145-.507v-.29h-.218v-.145l-1.232-.29-.58-.218-.942-.217-1.015-.29-1.014-.217-.073-.073-1.45-.29-.145-.072h-.58v-.145l-.58-.073-.072-.072-1.74-.29-.072-.073-.652-.072-.145-.073-1.377-.217-.725-.145-.725-.073-.072-.072h-.87v-.145l-1.087-.145-1.232-.145-.145-.072-.87-.073-.145-.072-1.232-.073-.218-.072-1.014-.073-1.16-.145-1.16-.072-.434-.073L46.754.58 46.61.507 43.855.435l-.87-.073h-3.334l-.217.145v.145h-.145v.145L39 .942l-.362.363v.145h-.29v-.145h-.145V1.16h-.145v-.145h-.145L37.84.797h-.146V.652h-.145V.507h-.144V.362h-2.03z" fill="#E8E8E8"/><path d="M77.377 32.58h-2.464l.073 4.349 2.391.072.073.073v3.479l-.073.072-7.175.073.652.29v.145h.29v.145l.652.217v.145h.218l.29.217.797.435v.145h.218l.434.218v.145h.218l.29.145v.145h.217l.218.144.072.218h-.145l-.217.652h-.145v.218l-.145.29h-.145l-.218.652h-.145v.217l-.29.435-.434.725-.435.87h-.145v.217l-.363.652h-.145v.29h-.145v.218l-.362.652h-.145v.29H71l-.072.29-.29.58h-.145v.217l-.435.725-.725 1.305h-.145l-.072.29-.435.87h-.145v.217l-.218.435h-.145v.217l-.144.29h-.146l-.072.29-.435.87h-.145l-.072.29-.435.797-.507.87h-.145v.29h-.145v.217l-.363.652h-.145v.29h-.145l-.072.363h-.145v.29h-.145v.217h-.145v.29h-.145l-.073.363h-.145v.29h-.145l-.072.29-.29.58h-.145v.29h-.145v.217l-.217.362-.29.072-.29-.145v-.145h-.145l-.363-.217v-.145h-.217v-.145h-.145l-.652-.362v-.145h-.218v-.145h-.217l-.725-.435-1.232-.58v-.145h-.218l-.652-.29-.507-.217v-.145l-.363-.073-.942-.362-.652-.218v-.145h-.29l-1.015-.362v-.145l-.507-.072-1.015-.29v-.145H52.3l-.58-.218-1.232-.29v-.145h-.507v-.144h-.435l-1.015-.29-.507-.073-.073-.072-.58-.073-2.174-.435-.797-.072-.145-.073-1.16-.145-2.827-.145h-1.594l-3.262.145-1.377.145-.145.073-.87.072-.144.073-1.16.145-.942.217h-.653v.145l-.652.073-.073.072-.797.145-.652.073v.145l-.507.072-.073.072-.87.218-.435.145H25.7v.145h-.507v.145l-.363.072-.724.29h-.363v.145h-.362v.145l-.943.29-.797.362-1.16.435-1.16.58-1.304.58-.362.072v.145l-.29.145-.363.073v.145l-.217.072-.29.073v.145l-.652.217v.145h-.29v.145h-.218v.145l-.362.145-.29.072v.145l-.217.145-.435.073v-.218h-.145l-.218-.652h-.145v-.29h-.145v-.217h-.145l-.144-.363-.073-.29h-.145l-.072-.217-.073-.29h-.145l-.145-.29-.072-.362h-.145l-.145-.29-.943-1.667-.072-.29h-.145l-.435-.87-.072-.29h-.145l-.29-.58-.073-.29h-.145v-.29h-.145l-.29-.507-.072-.362h-.145v-.29h-.145l-.435-.797-.072-.363h-.145l-.29-.58-.58-.942-.145-.435h-.145l-.072-.29-.218-.362-.072-.29h-.145v-.218h-.145l-.218-.652H6.13l-.072-.217-.073-.29H5.84l-.145-.29-.072-.362h-.145l-.072-.218-.073-.29h-.145l-.507-.942-.87-1.522-.145-.435H3.52V44.9h-.145v-.29H3.23l-.145-.362-.072-.29h-.145l-.073-.217-.072-.29h-.145v-.218l.435-.145v-.145l.217-.072.29-.072v-.145l.29-.145.362-.073v-.145h.218v-.145l.435-.217.725-.435 1.522-.797-6.524-.073v-3.624H3.52v-1.594l.073-.725.072-2.102H.548v-3.552h12.177l-.362-1.45-.145-.507v-.58h-.145l-.073-.58-.29-1.014v-.507h-.145l-.072-.58-.073-.073-.072-.507-.218-.797-.29-.218-.58-.29v-.145h-.217l-.29-.217-.797-.435v-.145H8.74l-.435-.29v-.217l.29-.508h.145v-.217l.217-.435h.145l.073-.29.434-.797h.145v-.218h.145l.073-.29-.145-.87-.073-.072-.072-.507-.073-.073-.072-.507-.29-1.087-.145-.508-.072-.507-.073-.072-.29-1.45-.217-.652-.073-.58-.072-.073-.29-1.45-.073-.072-.072-.507-.073-.073-.072-.507-.29-1.087-.145-.508-.072-.507-.073-.072L7 5.037l.218-.145.87-.217.434-.145h.435v-.145l.507-.072.073-.073 1.232-.29.652-.217.943-.218 1.16-.29h.507V3.08l.652-.072.072-.073 1.088-.217h.652v-.145l.652-.072.145-.073.653-.072 1.377-.29.797-.073.145-.072.797-.073.073-.072 1.74-.218.87-.145.796-.072.145-.073 1.16-.072.217-.073.943-.072.29-.073 2.319-.144.362-.073 1.45-.072.145-.073 3.117-.072.652-.073h2.03v.145h.144v.145h.145v.145h.145l.073.217h.145v.145h.145v.145h.145v.145h.29v-.145l.362-.362.29-.145V.761h.145V.616l.217-.145h3.334l.87.073 2.754.072.145.073 1.957.072.435.073 1.16.072 1.16.145 1.014.072.218.073 1.232.072.145.073.87.072.145.073 1.232.145 1.087.145v.145h.87l.072.072.725.073.725.145 1.377.217.145.073.652.072.073.073 1.74.29.072.072.58.072v.145h.58l.144.073 1.45.29.072.072 1.015.218 1.015.29.942.217.58.217 1.232.29v.145h.218v.29l-.145.508-.218 1.014h-.145v.508l-.072.072-.218.87-.217 1.015h-.145v.507l-.073.145-.29 1.305-.217.652-.073.507-.29.943-.144.507-.073.507h-.145v.508l-.217.87-.218.652-.072.507-.218.652.073.435h.145l.87 1.595.145.362h.145v.29h.144v.218h.145v.29l-.434.217-.363.145v.145l-.652.217v.145l-.218.073-.29.072v.145l-.362.145-.29.073v.145l-.217.072-.218.58-.145.507-.217 1.015-.435 1.522-.072.507-.073.073-.29 1.305-.217.652-.073.507H77.45v3.48l-.073.072z" fill="#071A25"/><path d="M35.955 35.08h5.509l1.812.073.29.072 1.811.073.073.072 1.087.073.218.072 1.304.145.942.145.145.073.798.072.072.073.942.145.87.145.725.145.072.072 1.16.218.942.217.073.072.507.073.073.072 1.014.218.725.217.073.073.507.072v.145l.507.073.943.29.58.217 1.377.435.724.29 1.015.362.942.435.653.218v.145l.362.072.797.29v.145h.29v.145l.363.072.725.363.29.072v.145l.362.073.725.29v.145l.29.072.942.435v.145h.29v.145l.29.072.362.145v.145h.29v.145l.29.073.58.29v.145h.145v.144h-.145v.218h-.145l-.218.652h-.145l-.072.29-.508.87-.434.797-.145.29h-.145l-.073.363-.435.797h-.145l-.072.29-.145.362h-.145l-.073.29-.072.217h-.145l-.072.29-.29.58h-.145v.29h-.145l-.145.435-.653 1.087-.87 1.595h-.144v.29h-.145l-.073.362h-.145l-.072.29-.073.218h-.145l-.072.29-.435.87h-.145l-.145.434-.87 1.522-.507.942h-.145l-.072.29-.073.218h-.145l-.072.362-.145.29-.363-.072-.87-.435-.724-.435-.508-.218v-.145l-.29-.072-1.014-.435v-.145l-.363-.072-.29-.073v-.145l-.362-.072-.435-.145v-.145l-.362-.073-1.305-.507-1.16-.435-.507-.217-1.015-.29-1.74-.58-1.159-.218v-.145h-.507l-1.16-.29-.652-.145-.653-.072-.145-.072-.652-.073-.725-.145-.87-.145-1.014-.072-.218-.073-1.232-.072-.145-.073-3.624-.072-3.334.072-.217.073-1.232.072-.218.073-1.45.145-1.014.145-.145.072-.652.073-.145.072-.87.145-1.45.29-.072.072h-.58v.145l-1.015.218-.797.217-.58.218-1.087.362h-.435v.145l-.652.217-1.015.363-.87.362-.435.073v.145h-.362v.145h-.29v.145l-.507.217h-.29v.145l-.508.218-.652.29h-.218v.144h-.29v.145l-.942.508h-.217v.145l-.435.217h-.217v.145l-.29.145-.29-.072-.58-.943-.87-1.594-.29-.508v-.145h-.145l-.362-.724-.145-.218v-.217h-.145v-.29h-.145v-.218h-.145l-.217-.434v-.218h-.145l-.435-.797-.073-.363h-.145l-.507-.87-.435-.797-.217-.362v-.218h-.145l-.145-.507h-.145l-.073-.362h-.145v-.29h-.145l-.362-.653v-.217h-.145l-.435-.797-.58-1.015-.435-.797-.362-.58v-.218h-.145l-.217-.652h-.145l-.145-.29v-.217h-.145l-.29-.653.58-.362.724-.435.653-.362h.29v-.145l.724-.363h.218v-.145l.507-.217.29-.145h.218v-.145l.87-.362.507-.29h.29v-.145l.942-.363.58-.29h.29v-.145l.87-.29.797-.362 1.232-.435.725-.29.724-.217.508-.218 1.015-.29.58-.217.87-.217.869-.29 1.087-.218.073-.072 1.45-.29.652-.145.072-.072 1.232-.218.652-.145.653-.072.145-.073.725-.072.145-.073 1.45-.217 1.159-.145 1.015-.073.145-.072 1.667-.073.29-.072 1.884-.073z" fill="#071A25"/><path d="M37.694 24.788h.363l.072 9.205.58.073v-9.278h.508l.29.073 1.304.145 1.305.29.507.145v.145l.508.072.797.29v.145l.652.072.725-.145.072-.072.653-.073.072-.072.798-.073.144.363.073.652.29 1.305v.362h-.145l-.145.29-.217.073v.145h-.145v.145h-.145v.144l-.218.218h-.145v.145h-.145l-.217.435h-.145l-.145.362h-.145l-.145.363-.073.145h-.145v.29h-.145l-.144.362-.218.507h-.145l-.072.29-.653 1.522-.072.363.652.072v-.29h.145v-.362l.435-.942.218-.508h.144l.073-.29.652-1.014.29-.435h.145v-.218l.362-.362h.146v-.145h.144v-.145h.145l.145-.29.218-.073v-.144h.145v-.145l.217-.073.145.073v.145h.145v.144h.145l.652.87v.145h.145l.073.29h.145v.218h.145l.435.797.072.29h.145l.508 1.087.217.725.217.652.218.58v.435h.362l.073.072 2.319.435.652.218 1.233.29.652.145.58.217 1.16.29.507.145v.145l.507.072 1.015.29.435.145v.145l.507.073.218.072 14.713.073v1.16H64.802v.144l.507.145.943.435 1.594.725.363.145v.145l.362.072.652.363.29.072v.145l.29.073.87.434.652.363v.145l.29.072.218.073v.145l.362.072.29.145v.145l.29.073.217.072v.145l.145.072-.145.29h-.145l-.072.363-.145.29h-.145l-.073.29-.072.217h-.145l-.217.652h-.145l-.073.29-.435.87h-.145l-.072.29-.58 1.015-.435.725-.072.217h-.145l-.073.362-.435.798h-.145l-.072.29-.29.58h-.145v.29h-.145l-.072.29-.29.58h-.145v.29h-.145l-.145.361-.58 1.088-.797 1.377-.145.29h-.145l-.073.362-.145.29h-.145l-.072.29-.073.217h-.145l-.072.29-.435.87h-.145l-.217.652h-.145l-.073.29-.507.87-.073.218h-.145l-.072.29-.29.58h-.145l-.072.362-.218.217-.217-.072v-.145h-.29v-.145l-.29-.073-.58-.29v-.145h-.29v-.145l-.362-.072-.798-.435-1.087-.58-.725-.362-.29-.073v-.145h-.362v-.145l-.29-.072-.797-.363-.362-.072v-.145l-.363-.072-.942-.29v-.145h-.363v-.145l-.507-.073-.507-.217-.943-.218-.797-.29-.87-.217-.072-.072-2.03-.435-.072-.073-.58-.072-.072-.073-1.885-.29-.87-.145-.072-.072-1.087-.073-.218-.072-3.189-.218h-3.914l-3.261.218-.218.072-1.087.073-.072.072-1.957.29-.798.145-.072.073-.58.072-.507.145-1.16.29h-.507v.145l-.87.217-.797.29-.87.218-1.087.435h-.29v.145l-.725.217-1.087.435-.798.362h-.217v.145l-.725.29-.435.218h-.29v.145l-.507.217-.725.435-.725.362h-.217v.145h-.29v.145l-.797.435-.58.29-.29-.435v-.217h-.145l-.435-.87-.072-.29h-.145v-.217h-.145l-.218-.435v-.218h-.145l-.362-.724-.145-.218v-.217h-.145v-.29h-.145v-.218h-.145l-.58-1.087-.942-1.594v-.218h-.145l-.435-.87-.072-.29h-.145l-.145-.507h-.145l-.073-.362h-.145v-.29h-.145l-.435-.797-.072-.363H8.34l-.507-.87-.435-.87-.435-.724-.29-.435v-.218h-.145l-.217-.652h-.145l-.145-.29v-.217h-.145l-.363-.653v-.29h-.145v-.217h-.145l-.434-.87-.435-.725-.073-.217.363-.29h.217v-.145l.652-.217v-.145l.29-.145h.218v-.145l.435-.218h.217v-.145h.29v-.145l1.232-.58.29-.072v-.145l.725-.362.725-.29.652-.362h.217v-.145l.798-.29.362-.073v-.145l.58-.145v-.145h-10.8v-1.16l14.134-.072.362-.145h.29v-.145l.508-.145 1.522-.507h.435v-.145l1.232-.29.58-.217 1.16-.29.797-.218h.507v-.145l1.812-.362h.435l.072-.652.29-1.015.29-.725.218-.58h.145v-.29h.144l.073-.362.29-.58h.145v-.218h.145l.072-.29.29-.507h.145l.145-.29.363-.507h.145l.145-.29.362-.29.362.218v.144h.145v.146h.145l.363.362v.145h.145l.145.362h.145l.362.508v.145h.145l.217.362v.145h.145l.435.797.218.363v.29h.145l.434 1.16.073.362.652-.073v-.29h-.145l-.29-.942-.217-.435v-.29h-.145l-.218-.435v-.217h-.145v-.29h-.144l-.218-.363v-.144h-.145l-.507-.725v-.145h-.145v-.145h-.145l-.435-.58-.072-.217-.29-.145-.58-.508.072-.652.218-.87.217-1.16.87.073v.145h.652l.87.217.362-.072.29-.145h.29v-.145l.942-.29.58-.217 1.595-.363 1.015-.072.29-.073zM35.956 35.08l-1.884.073-.29.072-1.667.073-.145.072-1.015.073-1.667.217-.942.145-.145.073-.725.072-.145.073-.942.145-.87.145-.725.145-.072.072-1.088.218-1.014.217-.653.217-.652.145-1.16.363-.87.217-.797.29-.797.217-.507.218-.943.29-.87.362-1.16.435-.651.29-.29.072v.145l-.363.073-.507.217-.942.363v.145l-.363.072-.724.363-.58.217v.145l-.435.073-.29.217-.29.073v.144l-.29.073-.652.29v.145l-.363.072-.797.435-1.015.58-.072.145.29.58h.145l.072.29.073.217h.145l.217.652h.145l.072.29.58 1.015.435.725.435.87.29.507h.145l.072.362.29.508h.145v.29h.145l.073.362H9.5l.145.508h.145l.072.29.508.87.434.796.145.29h.145l.073.363.435.797h.145l.072.363.145.29h.145v.217h.145v.29h.145l.072.362.218.29.217.507h.145l.145.435.58 1.015.797 1.377.29.435.29-.072.218-.073v-.145l.362-.072.29-.145v-.145l.29-.073.87-.435v-.145h.29v-.145l.362-.072.725-.363.29-.072v-.145l.362-.072.435-.145v-.145h.29v-.145h.362v-.145l.435-.073 1.16-.435.725-.29.652-.217v-.145h.435l1.087-.362.58-.218 1.304-.362.508-.073v-.145h.58l.072-.072 1.45-.29.87-.145.145-.072.652-.073.145-.072 1.522-.218.942-.072.218-.073 1.232-.072.217-.073 3.624-.072 3.334.072.145.073 1.232.072.218.073 1.522.145.942.145.145.072.652.073.145.072.87.145 1.45.29.145.072h.507v.145l1.16.218.797.29.942.29 1.015.29.87.362 2.102.797.362.073v.145l.58.217h.217v.145l.363.145h.29v.145l1.087.507h.217v.145l1.16.58.725.435.29.145h.29l.217-.435v-.217h.145l.145-.29v-.218h.145l.58-1.087.942-1.667v-.145h.145l.435-.87.072-.29h.145l.145-.29v-.217h.145l.073-.362h.145v-.29h.145l.435-.797.724-1.233.435-.797.073-.29h.145v-.29h.145l.362-.652v-.218h.145l.145-.29v-.217h.145l.217-.435v-.217h.145l.435-.797.073-.363h.145l.507-.87.435-.797.217-.362v-.218h.145l.218-.652h.145v-.218h.145v-.145h-.145v-.145l-.58-.29-.29-.072v-.145h-.29v-.145l-.435-.217h-.217v-.145h-.29v-.145l-1.015-.508h-.217v-.145l-.725-.29-.363-.072v-.145l-.507-.217-.652-.29h-.218v-.145h-.29v-.145l-.797-.29-.362-.073v-.145l-1.16-.434-1.015-.435-.724-.29-.725-.218-1.088-.362-.58-.218-1.087-.362H57.7v-.145l-.507-.072-1.305-.435-.507-.073-.073-.072-.507-.073-.508-.145-1.16-.29-.507-.072-.072-.072-1.232-.218-.652-.145-.653-.072-.072-.073-.798-.072-.145-.073-1.45-.217-.797-.073-.217-.072-1.087-.073-.073-.072-1.812-.073-.29-.072-1.811-.073h-5.509z" fill="#E9571D"/><path d="M49.581 5.436h.725l.145.072 1.16.073.217.072 1.74.145 1.16.145.072.073.942.072.145.073 1.16.145 1.957.29.072.072.725.073.072.072 1.957.29.798.218 1.16.217 1.594.362.072.073.508.072-.073 1.015-.072.072-.073.508-.072.072-.073.508-.145.507-.217 1.015-.072.072-.218 1.16h-.145v.507l-.217 1.015-.145.29h-.363l-.072-.072-1.522-.29-.798-.218-1.45-.29-.579-.145v-.58l.217-1.304.363-.218h.29v-.145l.362-.145h.218v-.217h-.725l-.145-.073-1.015-.145-1.16-.217-.652-.072-.072-.073-.798-.072-.072-.073-1.16-.145-.435-.072-.145 1.377-.072.217-.073.798-.072.072-.073.942-.072.145-.29 2.465-.073.217-.072.797-.072.073-.073.942-.072.072-.145 1.378-.145 1.087-.073.217-.072.798-.145.217.652.073.797.072.073.072.797.073.073.072 1.087.145.942.218.29.072.072-.942.218-.87.072-.58.073-.072.072-.652-.652-.073-1.812-.29-.29-.145v-.652h.145v-.797l.073-.145.29-2.247.072-.073h.652l.073.073.797.072.073.073.942.145 1.16.145.144.072.653.073v.145h.652l.072.072 1.668.29.072.073.652.072v.145l.218.072-.073.508-.072.072-.073.508h.145l.363.652v.145h.145v.217h.145v.29h-.145v.145l-.653.363h-.145v.145l-.434.217-.073.507-.217.58-.145.87-.145.652h-.145v.58l-.145.508-.218 1.014-.072.073-.073.507-.072.073-.073.507h-.145v.507l-.217 1.015-.145.29h-.652l-.653-.145-.507-.072-.072-.073-.58-.072v-.145h-.653v-.145h-.652l-1.45-.29-.724-.073V26.6h-.725l-.145-.072-2.32-.29-.144-.073-.87-.072-.073-.073-.942-.072-.145-.073-1.667-.145-.652-.217.072-.362.145-2.03.073-.507.072-1.305.073-.145.072-1.45.073-.072.072-1.884h-.145v-.218h-.145v-.145h-.145l-.217-.29v-.145h-.145v-.217h-.145v-.29h.145v-.145l.29-.217h.145v-.145l.507-.363.072-.145h.145v-1.014l.073-.145.072-1.45.073-.362.29-3.552.072-.362.073-1.377.072-.073.073-1.522.072-.145zM41.608 5.001l3.117.073 2.175.145 1.739.072.362.073-.217.072v.145h-.29v.145h-.29v.145l-.725.362h-.29v.508l-.217.797-.435 2.32h-.145v.652l-.072.072-.218 1.232-.145.508-.072.652h-.145v.652l-.218.798-.072.87h.145l.145.434h.145v.218h.145l.217.362v.29h-.145v.145h-.217v.145l-.58.362h-.218v.145h-.145l-.217 1.522-.072.145-.073.653h-.145v.652l-.145.652-.217 1.377-.073.073-.072.652-.073.073-.072.725-.145.724-.145.363-.87-.218v-.145h-.435l-1.015-.29-.724-.072-.145-.073-1.45-.072h-.87l-1.45.072-.144.073-.725.072-1.015.29-.434.145h-.435v.145h-.218l-.145-.507-.072-.58-.073-.073-.072-.652-.073-.072-.29-1.74-.145-.725-.072-.072-.073-.652-.072-.073-.218-1.16v-.58h-.145l-.072-.507-.507-.362-.58-.29v-.145l-.29-.073v-.217h.145v-.217h.145l.145-.435.217-.363h.145l.073-.29.072-.217h-.145l-.072-.652-.29-1.16-.218-1.087-.072-.073-.073-.507-.072-.073-.435-2.174-.072-.072-.073-.508-.072-.072-.29-1.522-.145-.653-.29-.145v-.145h-.29v-.145l-.435-.072-.58-.29v-.145l1.595-.072.362-.073 3.19-.217h2.101l.145.362.145.942.217 1.015.073.652.072.145.073.653.145.724.217 1.305.073.145.072.652.073.073.072.725.145.652.218 1.377.072.145v.797h.145l.073.725.072.145.145 1.232.073.218v.797h.145l.072.797.072.145.145 1.015v.507h1.088l.145-1.522.145-1.16.072-.072.073-.87.072-.072.072-.797.145-.943.073-.652.072-.145.073-.725.072-.072.073-.798.217-1.087.145-1.087.145-.942.073-.073.072-.797.145-.725.217-1.377.145-.942.073-.073.073-.797.144-.29zM26.75 5.581h.652l.073.145.145 1.595.072.217.073 1.16.072.145.073 1.232.072.29.145 1.45v.652l-1.812.217-1.884.218-.145.072-1.088.072-.072-.144-.29-2.32v-.217h-.87v.145l-.797.072-.073.073-1.087.145-1.304.217h-.725v.145l.29.072.87.29.29 1.305.145.942.072.145.072.652.073.073.072.652.073.29.725-.072.145-.073h.797v-.145l.797-.072.942-.145 1.088-.145.145.217.072.798.073.145.072.87.073.144.145 1.087.072.725-.507.145-.798.073-.072.072-.87.073-.072.072-.87.145-1.087.145-.073.218.073.145.072.652.073.072.072.653.217.942v.362l1.957-.29.073-.072.725-.073.072-.072.797-.072.146-.073 1.884-.217.942-.073.073-.072h.58l.145.797.144 1.884.073.218.072 1.16-.072.072-.725.072-.145.073-.797.072-.145.073-.797.072-1.16.218-1.16.145-.145.072-.724.073-.073.072-.652.073-.073.072-1.16.145-.144.073-.653.072-.072.073-1.232.217-.653.145h-.507v.145h-.507l-.145-.145-.073-.507-.072-.073-.073-.507-.072-.073-.145-.87-.073-.145v-.507h-.145l-.072-.58-.145-.507-.29-1.16v-.507h-.145l-.072-.507-.145-.508-.218-1.087-.072-.217-.29-.073-.798-.507-.217-.073-.073-.217.073-.218h.145v-.217h.145l.072-.363.145-.29h.145l.145-.507h-.145l-.072-.58-.073-.072-.072-.58-.145-.507-.218-1.015-.072-.072-.073-.58-.145-.508-.29-1.087-.072-.507-.072-.073v-.507h-.145l-.29-1.45-.073-.145v-.507h-.145l-.217-1.16.435-.145 2.174-.435.073-.072.652-.072.072-.073 1.668-.29.87-.145.072-.072.725-.073.072-.072 3.117-.435.145-.073.797-.072.145-.073 1.015-.072 1.014-.145.943-.073.217-.072z" fill="#E8E8E8"/><path d="m36.68 1.595.362.072.508.58.145.072v.145h.145l.362.363v.145h.145v.145h.362v-.145h.145v-.145H39l.073-.218h.145v-.145h.145V2.32h.145v-.145h.145l.072-.217h.145v-.145h.145v-.145l.145-.072 5.58.072.146.073 1.957.072.362.072 2.61.218 1.16.145 1.014.072.145.073 1.014.072 1.523.218 1.232.145.145.072.797.073.145.072 1.522.218 1.232.217.073.073.724.072.073.072 1.667.29.652.145.073.073.58.072.072.073 1.45.29.652.145v.145h.507l1.088.29 1.014.217v.145h.435l.435.145-.072.507-.218.653-.435 1.884-.072.073-.073.507h-.145v.507l-.29 1.015-.217.942-.29 1.015-.217 1.015h-.145v.58l-.435 1.522-.218.942-.145.507-.072.363.217.434v.218h.145l.363.652v.145h.145v.29h.145v.218h.145l.072.507-1.232.725-.29.072v.145l-.652.363-.218.652-.217.797-.073.508H65.6v.507l-.29 1.015-.217.942-.217.652-.29 1.305-.218.652-.145.652-.217.798 12.249.072v1.16H63.642l-.072.435-.073.362-1.812-.362-.507-.145v-.145l-.652-.073-.653-.217-.507-.073v-.144h-.507l-.943-.29-.507-.073-.072-.072-.58-.073v-.145h-.508l-.58-.145-1.232-.217-.072-.073-.725-.072-.072-.073-1.885-.29-.217-.072-.797-.073v-.144h-1.015L49 28.92v-.145h-.145l-.362-.363v-.145h-.145v-.145h-.145l-.217-.217v-.145h.942l.072.072 1.015.073.145.072 1.305.145 1.16.218.724.072.725.145.072.073 1.74.29.072.072.58.073.073.072 1.45.29.652.217.507.073.652.217 1.16.29.58.218 1.16.29.072-.798.218-.58.072-.507.073-.072.072-.508.145-.507.217-1.015h.145v-.507l.145-.508.29-.942.218-1.087.435-1.522.072-.507h.145v-.508l.218-.435.362-.217h.217v-.145h.218v-.145l.435-.218h.217v-.144l.218-.073-.073-.435h-.145l-.507-.87v-.217h-.145l-.145-.507.217-.653.073-.507h.145v-.507l.29-.943.072-.507h.145v-.507l.145-.508.217-.942.218-.58.29-1.232.145-.652.072-.073.073-.507.217-.652.29-1.305.073-.073.072-.507.145-.507-.797-.29-.508-.073v-.145h-.434l-.508-.145-1.16-.29-.507-.072-.072-.073-.725-.144-1.522-.29v-.145h-.653v-.145h-.652l-.797-.145-.653-.145-.652-.073-.145-.072-.725-.073-.145-.072-2.174-.29-.217-.073-.798-.072-.072-.073-1.015-.072-.145-.072-2.9-.29-.216-.073-1.45-.072L49 3.044l-1.594-.072-.363-.073-3.986-.145h-2.537l-.217.218h-.145l-.145.29-.363.362h-.145l-.145.29-.362.362h-.145l-.145.29-.217.145-.363-.29v-.145l-.29-.145v-.145h-.145v-.145l-.29-.145-.072-.217-.29-.145-.362-.362-.29-.218h-.797l-3.48.145-.507.073-1.594.072-.218.073-1.594.072-2.465.29-.87.073-.144.072-1.088.072-.072.073-.797.072-.87.145-1.595.218-.145.072-.724.073-.943.217-1.16.218h-.652v.145l-.58.072-.072.073-2.32.434-.072.073-.507.072-.073.073-1.45.29-.072.072h-.435v.145l-1.304.29.29 1.16.29 1.305.072.072.217 1.087.218.942.072.073.073.58.072.072.218 1.015.217.942.073.073.072.58.218.652.29 1.45.072.072.217 1.087-.072.508-.507.87h-.145l-.073.29-.072.217h-.145v.29l.29.072.797.435v.145l.29.072.362.218.29 1.16.073.072.217 1.087.217 1.015.073.072v.58h.145l.435 2.03.072.072.073.58.217.58.145.87.073.145v.507h.145l.072.507.073.073.072.507.652-.072.653-.145.58-.218 1.377-.362.507-.145.58-.073.652-.217.87-.145.652-.145.073-.072 1.232-.218 1.16-.217.145-.073.652-.072.145-.073.797-.072 1.232-.218.508-.072h.58l-.146.072v.145h-.144v.145H28.2l-.218.435h-.145l-.145.362-.362.146-2.102.29-.145.072-.652.072-.87.218-1.667.29-.073.072-.507.073-.507.145-1.595.362-.58.217-1.304.29-.653.218-.942.217-.87.218-.145-.073-.145-.797H1.744v-1.16l12.54-.072-.073-.145v-.507h-.145l-.073-.58-.145-.508-.29-1.16V26.6h-.144l-.218-1.087-.217-1.015-.073-.072-.072-.507-.073-.073-.217-1.087-.29-1.087v-.218l-.435-.145-.217-.145v-.145h-.29v-.145h-.218v-.145l-.362-.145-.652-.362-.073-.218.145-.29h.145l.072-.29.073-.217h.145l.072-.29.145-.362h.145v-.218h.145l.073-.29.072-.144v-.508l-.217-1.014-.073-.073-.072-.507-.073-.073-.29-1.45-.072-.144v-.508h-.145l-.217-1.087-.218-1.015-.072-.072-.073-.508-.072-.072-.435-2.03-.073-.072v-.58h-.145l-.29-1.45-.217-.652v-.362l.87-.218.58-.217 1.232-.29.652-.217 1.45-.29.652-.218.652-.072.073-.073.725-.145 1.014-.217h.653v-.145h.797v-.145l.942-.145 1.087-.217.798-.073.145-.072.724-.073.073-.072 1.16-.145 1.304-.145.218-.073 1.087-.072.145-.073 1.015-.072.29-.073 2.609-.217 1.232-.073.29-.072 2.682-.072.145-.073 2.899-.072z" fill="#E9571D"/><path d="M37.984 37.762h.87l.218.073 3.769.072.507.145.362.87.218.507v.29h.145l.29.942.072.363h.145l.29 1.014.218.58v.363h.144l.218.724v.29h.145v-.145h.145l.072-.29.435-.724h.145l.073-.29.29-.508h.145l.072-.29.072-.217h.145l.145-.362.073-.145h.145l.145-.435.29-.362.072-.145h.145v-.218h.145l.145-.362.362-.58h.145v-.218l1.015.073.145.072.652.073.073.072.725.073 1.16.29 1.16.217.072.073.58.072.362.145-.218.145-.942.362-.725.29-.29 1.305-.072.072-.218 1.16-.217.942.073.508h.145l.144.29v.217h.145l.218.508-.073.145-.797.434-.29.073v.145h-.145l-.072.652h-.145v.508l-.145.652h-.145v.507l-.145.58-.218 1.087-.072.073-.072.507-.145.507-.218.798-.435-.073-.58-.072v-.145h-.652l-.073-.073-1.377-.217-.362-.145.073-.942.072-.073.072-.725.073-.072.145-1.16.145-1.014h.145l-.073-.653-.435.797H46.9l-.073.29-.29.653h-.145v.217h-.145l-.072.362-.218.435-.217.073-.87-.073-.072-.072-1.015-.073-.29-1.304-.073-.073v-.435h-.145l-.072-.507-.217-.58-.073-.217-.072.29-.073 1.884-.072.073-.073 1.884-.145.58-1.014-.072-2.465-.073-.072-5.58-.435-.436v-.145l-.218-.072v-.145h-.145v-.145l-.29-.145.435-.508.653-.652.072-4.639-.362-.145-.29-.217v-.145l-.363-.145v-.145zM35.593 37.762h.144v.145h-.144l-.145.29-.218.29h-.145l-.217.435h-.145l.145.435.217 1.087v.58h.145l.073.58.072.072.362 1.812.363.145.942.58-.072.29-.073.145h-.145l-.072.362h-.145v.29h-.145v.145h-.145l.072.797.073.073.072.652.073.073.217 1.304.218 1.232.072.145.073.725.072.073v.507l-2.537.217h-1.087l-.217-1.014-.218-.653v-.145l-.797.073-.145.072-.87.073-.072.072h-.653l.073.145v1.885l-1.305.217-.072.073h-.652v.145l-1.088.217h-.362l-.145-.217-.073-1.305-.072-.29-.218-2.61v-.869l-.29-.145-.362-.217v-.145h-.145v-.145h-.145v-.145l-.217-.073.072-.362.145-.218h.145l.145-.29.435-.507-.072-.362-.073-1.885-.072-.58-.073-1.522-.072-.217-.218-.072v-.145l-.435-.073-.58-.29v-.145l-.29-.072-.144-.145.797-.145.797-.073.145-.072h1.015v-.145l.87-.073.145-.072 1.45-.145 1.014-.145.145-.073 1.015-.072.145-.072.797-.073 1.884-.29.87-.072.073-.073zM56.25 40.371h.434l.798.29.362.073v.145h.435l.58.217.87.29.507.218.87.29.87.362.797.362.58.218.652.29.29.072v.145h.29v.145l.362.073.725.362.29.072v.145l.362.073.725.362-.073.363-.58 1.232-.144.29h-.145l-.073.362-.29.652H65.6l-.072.363-.29.725h-.145l-.073.29-.072.217h-.145l-.072.362-.798 1.45-1.087.073-.145.072-1.16.072-1.304.145-.87.073-.145.072-.942.073-.073.072-.797.073-.507.072-.218.725-.435 1.16-.145.435-.217.072-.29-.072v-.145l-.507-.073-1.015-.29v-.145h-.435l-.507-.217-.508-.145v-.507l.145-.435.218-.797.145-.508h.145v-.435l.145-.435.217-.797.145-.507h.145v-.435l.218-.87-.073-.507h-.145v-.29h-.145v-.218h-.145v-.29h-.145l.145-.29.435-.217h.217V45.3l.29-.145h.218v-.145h.145v-.362h.145v-.435l.145-.435.362-1.305.218-.507.145-.652.145-.58h.144v-.363zM21.749 40.227l.217.217.218.87.217.58.29 1.16.218.58.217.796v.435l-.87.29-.87.218-.58.217-.507.072v.145l-.652.145v-.145h-.145l-.29-.942-.072-.072v-.363l-.653.073v.145l-.652.217-.942.363-.435.217h-.29l.217.652.145.29v.29h.145l.363.943.507 1.087.725 1.74.217.434v.29h.145l.29.725.942-.29.073-.073h.362v-.145l1.015-.362-.145-.58-.217-.58v-.29h-.145l-.073-.507h.218v-.145h.362v-.145l.725-.217h.362v-.145l.87-.218.652-.217h.29l.29 1.16.218.58.362 1.304v.362h.145v.508h.145l.217 1.014-.652.218-.58.217h-.435v.145l-1.014.29-.073.073h-.362v.145h-.363v.145l-.942.29-.362.072v.145l-.943.363h-.217v.144h-.362v.145h-.29v.145l-.508.073v.145h-.29v.145h-.362v.145l-.797.362-.363-.072-.507-1.015v-.217h-.145v-.29h-.145l-.507-1.015v-.218h-.145l-.218-.58v-.217h-.145l-.145-.29v-.217h-.145v-.29h-.145l-.145-.508-.724-.145-.653-.217v-.29h.145l.073-.725.072-.145v-.507l-.29-.58v-.217h-.145v-.29h-.145l-.362-.725v-.29h-.145l-.362-.725v-.217h-.145l-.218-.508-.145-.29V45.3h-.145v-.29h-.145l-.072-.362.072-.145 1.015-.508h.29v-.145l.507-.217.29-.145h.218v-.145l1.16-.435.797-.362.507-.218h.29v-.145h.362v-.145l.943-.29 1.16-.434.724-.29h.435v-.145l2.03-.58.072-.072z" fill="#E8E8E8"/><path d="M59.366 44.648h.362l.653.29 1.014.362.435.218-.072.29-.29.797h-.145l-.072.362-.435.942-1.595.145-.362.073h-.653l.508-1.522.217-.58.29-.87.145-.507zM30.809 41.386h.145l.217.652.145.508v.435h.145l.218.87.29.942.145.507v.508h.145l.072.652h-.725v.145l-1.015.072-.072-1.232v-3.914l.29-.145z" fill="#071A25"/><path d="M69.223 33.123h.653v.218h.145l.217.652.145.218.363-.87.072-.218h.652v2.682h-.652l-.072-.797-.073.29h-.145v.145h-.362v-.145h-.145v-.363h-.145v.87h-.653v-2.682zM11.747 33.123h1.812v2.682h-1.812v-2.682zM64.512 33.123h1.74l.072.073v.87l-.072.072h-.58v-.362h-.507v1.522h.507v-.363l-.362-.072v-.58h.942l.072.073v1.45H64.44v-2.61l.072-.073zM67.194 33.123h1.232l.145.653.145.942.073 1.087h-.725v-.362l-.508.072-.145.29h-.652l.073-.507.072-1.015.073-.145.072-.797.145-.218zM7.325 33.123h.653l.217.363v.145h.145l.073.145.072-.653h.725v2.682h-.725l-.072-1.014-.363-.508-.072 1.522h-.653v-2.682zM4.861 33.123h.725l.072 2.175h.363v-2.175h.724v2.682h-1.45l-.217-.217v-.145h-.145l-.072-.145v-2.175zM58.496 33.123h.58l.073.073v1.087h.724v-1.16h.653v2.682h-.653v-.87h-.724v.87h-.653v-2.682zM16.458 33.123h.58l.072.145.073 1.088.29-.073.072-1.087.072-.073h.58l.073.073v1.16l-.29.145.217.797h.145v.29h.145v.217h-.797l-.29-.652h-.217l-.073.652h-.652v-2.682zM14.066 33.123h1.812v1.015h-.507l-.073-.362h-.58v1.522h.653v-.508h.507v1.015h-1.812v-2.682zM61.106 33.123H62.7l.073.073v.797l-.073.145h-.58l-.072-.362h-.29l-.073.507h.508l.072.073v.507l-.072.072h-.508v.363h.943v.507h-1.595v-2.61l.073-.072zM72.123 33.123h1.522v1.015h-.508v-.362h-.362l-.073.507h.508l.072.145v.435l-.072.072h-.508v.363h.943v.507H72.05v-2.61l.073-.072zM56.177 33.123h1.884v.58l-.507.073-.072 2.03h-.725v-2.103h-.652v-.507l.072-.073zM9.79 33.123h.652v2.175h.87v.507H9.79v-2.682z" fill="#E8E8E8"/><path d="M12.399 33.703h.435l.072.073v1.522H12.4v-1.595zM67.701 33.776l.218.072v1.015h-.363l.145-1.087z" fill="#071A25"/></svg>